<?xml version="1.0" encoding="UTF-8"?>
<svg width="90px" height="65px" viewBox="0 0 90 65" version="1.1" xmlns="http://www.w3.org/2000/svg" xmlns:xlink="http://www.w3.org/1999/xlink">
    <!-- Generator: Sketch 48.2 (47327) - http://www.bohemiancoding.com/sketch -->
    <title>icons/doubleEspresso/2x2</title>
    <desc>Created with Sketch.</desc>
    <defs></defs>
    <g id="Symbols" stroke="none" stroke-width="1" fill="none" fill-rule="evenodd">
        <g id="icons/doubleEspresso/2x2" fill="#D7BE82">
            <g id="doubleEspresso2x2">
                <g id="icons">
                    <text id="espresso" font-family="Lato-Thin, Lato" font-size="24" font-style="condensed" font-weight="300">
                        <tspan x="0" y="60">espresso</tspan>
                    </text>
                    <path d="M36.336,6.616 L36.744,2.584 L23.256,2.584 L23.664,6.616 L36.336,6.616 Z M30,17.584 C30.5280026,17.584 31.0239977,17.4480014 31.488,17.176 C31.9520023,16.9039986 32.3199986,16.5360023 32.592,16.072 C32.8640014,15.6079977 33,15.1120026 33,14.584 C33,14.1199977 32.8400016,13.5520034 32.52,12.88 C32.2799988,12.3519974 31.9440022,11.7680032 31.512,11.128 C31.1919984,10.6639977 30.8480018,10.2000023 30.48,9.736 L30,9.184 L29.52,9.736 C29.1519982,10.2000023 28.8160015,10.6639977 28.512,11.128 C28.0639978,11.7680032 27.7200012,12.3519974 27.48,12.88 C27.1599984,13.5520034 27,14.1199977 27,14.584 C27,15.1120026 27.1359986,15.6079977 27.408,16.072 C27.6800014,16.5360023 28.0479977,16.9039986 28.512,17.176 C28.9760023,17.4480014 29.4719974,17.584 30,17.584 Z M21,0.616 L39,0.616 L36.984,18.856 C36.9039996,19.3520025 36.6840018,19.7639984 36.324,20.092 C35.9639982,20.4200016 35.5280026,20.584 35.016,20.584 L24.984,20.584 C24.4719974,20.584 24.0360018,20.4200016 23.676,20.092 C23.3159982,19.7639984 23.0960004,19.3520025 23.016,18.856 L21,0.616 Z" id="local_drink---material-copy-3"></path>
                    <path d="M66.336,6.616 L66.744,2.584 L53.256,2.584 L53.664,6.616 L66.336,6.616 Z M60,17.584 C60.5280026,17.584 61.0239977,17.4480014 61.488,17.176 C61.9520023,16.9039986 62.3199986,16.5360023 62.592,16.072 C62.8640014,15.6079977 63,15.1120026 63,14.584 C63,14.1199977 62.8400016,13.5520034 62.52,12.88 C62.2799988,12.3519974 61.9440022,11.7680032 61.512,11.128 C61.1919984,10.6639977 60.8480018,10.2000023 60.48,9.736 L60,9.184 L59.52,9.736 C59.1519982,10.2000023 58.8160015,10.6639977 58.512,11.128 C58.0639978,11.7680032 57.7200012,12.3519974 57.48,12.88 C57.1599984,13.5520034 57,14.1199977 57,14.584 C57,15.1120026 57.1359986,15.6079977 57.408,16.072 C57.6800014,16.5360023 58.0479977,16.9039986 58.512,17.176 C58.9760023,17.4480014 59.4719974,17.584 60,17.584 Z M51,0.616 L69,0.616 L66.984,18.856 C66.9039996,19.3520025 66.6840018,19.7639984 66.324,20.092 C65.9639982,20.4200016 65.5280026,20.584 65.016,20.584 L54.984,20.584 C54.4719974,20.584 54.0360018,20.4200016 53.676,20.092 C53.3159982,19.7639984 53.0960004,19.3520025 53.016,18.856 L51,0.616 Z" id=""></path>
                </g>
            </g>
        </g>
    </g>
</svg>