<?xml version="1.0" encoding="UTF-8"?>
<svg width="23px" height="32px" viewBox="0 0 23 32" version="1.1" xmlns="http://www.w3.org/2000/svg" xmlns:xlink="http://www.w3.org/1999/xlink">
    <!-- Generator: Sketch 48.2 (47327) - http://www.bohemiancoding.com/sketch -->
    <title>icons/bitcoin/1x1</title>
    <desc>Created with Sketch.</desc>
    <defs></defs>
    <g id="Symbols" stroke="none" stroke-width="1" fill="none" fill-rule="evenodd">
        <g id="icons/bitcoin/1x1" fill="#D7BE82">
            <g id="bitcoin1x1">
                <g id="ion-social-bitcoin---Ionicons---group">
                    <path d="M22.078125,17.3671875 C22.4531269,18.257817 22.5937505,19.2890566 22.5,20.4609375 C22.4062495,22.0078202 22.0312533,23.2031208 21.375,24.046875 C20.6249963,24.9843797 19.5703193,25.7109349 18.2109375,26.2265625 C17.0859319,26.6953148 15.7031332,26.9531248 14.0625,27 L14.0625,31.5 L11.25,31.5 L11.25,27 L9,27 L9,31.5 L6.1171875,31.5 L6.1171875,27 L0,27 L0.6328125,23.625 L2.4609375,23.625 C2.88281461,23.625 3.1640618,23.6015627 3.3046875,23.5546875 C3.4453132,23.5078123 3.56249953,23.3437514 3.65625,23.0625 C3.75000047,22.7812486 3.796875,22.3828151 3.796875,21.8671875 L3.796875,9.703125 C3.796875,9.04687172 3.75000047,8.62500094 3.65625,8.4375 C3.56249953,8.2968743 3.42187594,8.1562507 3.234375,8.015625 C3.0937493,7.92187453 2.67187852,7.875 1.96875,7.875 L0,7.875 L0,4.5 L6.1171875,4.5 L6.1171875,0 L9,0 L9,4.5 L11.25,4.5 L11.25,0 L14.0625,0 L14.0625,4.5 C15.2812561,4.54687523 16.3593703,4.75781062 17.296875,5.1328125 C18.3750054,5.55468961 19.2421842,6.18749578 19.8984375,7.03125 C20.4140651,7.73437852 20.7187495,8.78905547 20.8125,10.1953125 C20.9062505,10.9453162 20.8359387,11.6015597 20.6015625,12.1640625 C20.4609368,12.7265653 20.0859405,13.2656224 19.4765625,13.78125 C19.1015606,14.1562519 18.7265644,14.4140618 18.3515625,14.5546875 C18.7734396,14.648438 19.3593713,14.8828106 20.109375,15.2578125 C21.0468797,15.7734401 21.7031231,16.476558 22.078125,17.3671875 Z M9,8.296875 L9,13.5 L11.25,13.5 L11.25,8.296875 L9,8.296875 Z M9,23.203125 L11.25,23.203125 L11.25,16.875 L9,16.875 L9,23.203125 Z M14.0625,8.578125 L14.0625,13.21875 C14.3437514,13.0781243 14.6484359,12.7968771 14.9765625,12.375 C15.3046891,11.9999981 15.46875,11.5312528 15.46875,10.96875 C15.46875,10.4062472 15.3281264,9.91406461 15.046875,9.4921875 C14.6249979,8.97655992 14.2968762,8.67187547 14.0625,8.578125 Z M16.1015625,21.7265625 C16.5703148,21.3046854 16.8046875,20.6953165 16.8046875,19.8984375 C16.8046875,19.195309 16.6171894,18.6093773 16.2421875,18.140625 C15.9140609,17.7656231 15.4453155,17.4609387 14.8359375,17.2265625 C14.6953118,17.1796873 14.4375019,17.1093755 14.0625,17.015625 L14.0625,22.78125 C14.2031257,22.78125 14.3671866,22.7343755 14.5546875,22.640625 C15.1640655,22.4062488 15.6796854,22.1015644 16.1015625,21.7265625 Z" id="ion-social-bitcoin---Ionicons"></path>
                </g>
            </g>
        </g>
    </g>
</svg>