<?xml version="1.0" encoding="UTF-8"?>
<svg width="30px" height="30px" viewBox="0 0 30 30" version="1.1" xmlns="http://www.w3.org/2000/svg" xmlns:xlink="http://www.w3.org/1999/xlink">
    <!-- Generator: Sketch 48.2 (47327) - http://www.bohemiancoding.com/sketch -->
    <title>icons/settings/1x1</title>
    <desc>Created with Sketch.</desc>
    <defs></defs>
    <g id="Symbols" stroke="none" stroke-width="1" fill="none" fill-rule="evenodd">
        <g id="icons/settings/1x1" fill="#D7BE82">
            <g id="settings1x1">
                <path d="M25.7832001,16.452 L28.9152001,18.9 C29.0592008,19.0200006 29.1432,19.175999 29.1672001,19.368 C29.1912002,19.560001 29.1552006,19.7399992 29.0592001,19.908 L26.0352001,25.092 C25.9391996,25.2600008 25.8132009,25.3679998 25.6572001,25.416 C25.5011993,25.4640002 25.3272011,25.4520004 25.1352001,25.38 L21.4272001,23.904 C20.4671953,24.6000035 19.6152038,25.0919986 18.8712001,25.38 L18.3312001,29.304 C18.2831999,29.496001 18.1932008,29.6519994 18.0612001,29.772 C17.9291994,29.8920006 17.7792009,29.952 17.6112001,29.952 L11.5632001,29.952 C11.3951993,29.952 11.2452008,29.8920006 11.1132001,29.772 C10.9811994,29.6519994 10.9032002,29.496001 10.8792001,29.304 L10.3032001,25.38 C9.29519505,24.971998 8.45520345,24.4800029 7.78320009,23.904 L4.03920009,25.38 C3.65519817,25.5480008 3.35520117,25.4520018 3.13920009,25.092 L0.115200092,19.908 C0.0191996122,19.7399992 -0.0168000278,19.560001 0.00720009216,19.368 C0.0312002122,19.175999 0.115199372,19.0200006 0.259200092,18.9 L3.42720009,16.452 C3.37919985,16.1159983 3.35520009,15.6240032 3.35520009,14.976 C3.35520009,14.3279968 3.37919985,13.8360017 3.42720009,13.5 L0.259200092,11.052 C0.115199372,10.9319994 0.0312002122,10.776001 0.00720009216,10.584 C-0.0168000278,10.391999 0.0191996122,10.2120008 0.115200092,10.044 L3.13920009,4.86 C3.35520117,4.4999982 3.65519817,4.40399916 4.03920009,4.572 L7.78320009,6.048 C8.64720441,5.39999676 9.48719601,4.90800168 10.3032001,4.572 L10.8792001,0.648 C10.9032002,0.45599904 10.9811994,0.3000006 11.1132001,0.18 C11.2452008,0.0599994 11.3951993,0 11.5632001,0 L17.6112001,0 C17.7792009,0 17.9291994,0.0599994 18.0612001,0.18 C18.1932008,0.3000006 18.2831999,0.45599904 18.3312001,0.648 L18.8712001,4.572 C19.8072048,4.9320018 20.6591963,5.42399688 21.4272001,6.048 L25.1352001,4.572 C25.3272011,4.49999964 25.5011993,4.48799976 25.6572001,4.536 C25.8132009,4.58400024 25.9391996,4.69199916 26.0352001,4.86 L29.0592001,10.044 C29.1552006,10.2120008 29.1912002,10.391999 29.1672001,10.584 C29.1432,10.776001 29.0592008,10.9319994 28.9152001,11.052 L25.7832001,13.5 C25.8312003,13.8360017 25.8552001,14.3279968 25.8552001,14.976 C25.8552001,15.6240032 25.8312003,16.1159983 25.7832001,16.452 Z M14.5872001,20.232 C15.5232048,20.232 16.399196,19.9920024 17.2152001,19.512 C18.0312042,19.0319976 18.6791977,18.390004 19.1592001,17.586 C19.6392025,16.781996 19.8792001,15.9120047 19.8792001,14.976 C19.8792001,14.0399953 19.6392025,13.1640041 19.1592001,12.348 C18.6791977,11.5319959 18.0312042,10.8840024 17.2152001,10.404 C16.399196,9.9239976 15.5232048,9.684 14.5872001,9.684 C13.6511954,9.684 12.7812041,9.9239976 11.9772001,10.404 C11.1731961,10.8840024 10.5312025,11.5319959 10.0512001,12.348 C9.57119769,13.1640041 9.33120009,14.0399953 9.33120009,14.976 C9.33120009,15.9120047 9.57119769,16.781996 10.0512001,17.586 C10.5312025,18.390004 11.1731961,19.0319976 11.9772001,19.512 C12.7812041,19.9920024 13.6511954,20.232 14.5872001,20.232 Z" id="Combined-Shape"></path>
            </g>
        </g>
    </g>
</svg>