<?xml version="1.0" encoding="UTF-8"?>
<svg width="90px" height="65px" viewBox="0 0 90 65" version="1.1" xmlns="http://www.w3.org/2000/svg" xmlns:xlink="http://www.w3.org/1999/xlink">
    <!-- Generator: Sketch 48.2 (47327) - http://www.bohemiancoding.com/sketch -->
    <title>icons/espresso/4x2</title>
    <desc>Created with Sketch.</desc>
    <defs></defs>
    <g id="Symbols" stroke="none" stroke-width="1" fill="none" fill-rule="evenodd">
        <g id="icons/espresso/4x2" fill="#D7BE82">
            <g id="espresso4x2">
                <text id="espresso" font-family="Lato-Thin, Lato" font-size="24" font-style="condensed" font-weight="300">
                    <tspan x="0" y="60">espresso</tspan>
                </text>
                <path d="M51.336,6.616 L51.744,2.584 L38.256,2.584 L38.664,6.616 L51.336,6.616 Z M45,17.584 C45.5280026,17.584 46.0239977,17.4480014 46.488,17.176 C46.9520023,16.9039986 47.3199986,16.5360023 47.592,16.072 C47.8640014,15.6079977 48,15.1120026 48,14.584 C48,14.1199977 47.8400016,13.5520034 47.52,12.88 C47.2799988,12.3519974 46.9440022,11.7680032 46.512,11.128 C46.1919984,10.6639977 45.8480018,10.2000023 45.48,9.736 L45,9.184 L44.52,9.736 C44.1519982,10.2000023 43.8160015,10.6639977 43.512,11.128 C43.0639978,11.7680032 42.7200012,12.3519974 42.48,12.88 C42.1599984,13.5520034 42,14.1199977 42,14.584 C42,15.1120026 42.1359986,15.6079977 42.408,16.072 C42.6800014,16.5360023 43.0479977,16.9039986 43.512,17.176 C43.9760023,17.4480014 44.4719974,17.584 45,17.584 Z M36,0.616 L54,0.616 L51.984,18.856 C51.9039996,19.3520025 51.6840018,19.7639984 51.324,20.092 C50.9639982,20.4200016 50.5280026,20.584 50.016,20.584 L39.984,20.584 C39.4719974,20.584 39.0360018,20.4200016 38.676,20.092 C38.3159982,19.7639984 38.0960004,19.3520025 38.016,18.856 L36,0.616 Z" id="local_drink---material-copy-2"></path>
            </g>
        </g>
    </g>
</svg>