<?xml version="1.0" encoding="UTF-8"?>
<svg width="27px" height="27px" viewBox="0 0 27 27" version="1.1" xmlns="http://www.w3.org/2000/svg" xmlns:xlink="http://www.w3.org/1999/xlink">
    <!-- Generator: Sketch 48.2 (47327) - http://www.bohemiancoding.com/sketch -->
    <title>icons/power/1x1</title>
    <desc>Created with Sketch.</desc>
    <defs></defs>
    <g id="Symbols" stroke="none" stroke-width="1" fill="none" fill-rule="evenodd">
        <g id="icons/power/1x1" fill="#D7BE82">
            <g id="PowerOff4x1">
                <g id="power_settings_new---material---group">
                    <path d="M22.212,3.24 C23.6760073,4.48800624 24.8399957,5.99999112 25.704,7.776 C26.5680043,9.60000912 27,11.50799 27,13.5 C27,15.9480122 26.3880061,18.2159896 25.164,20.304 C23.963994,22.3440102 22.3440102,23.963994 20.304,25.164 C18.2159896,26.3880061 15.9480122,27 13.5,27 C11.0519878,27 8.78401044,26.3880061 6.696,25.164 C4.6559898,23.963994 3.036006,22.3440102 1.836,20.304 C0.61199388,18.2159896 0,15.9480122 0,13.5 C0,11.50799 0.44399556,9.60000912 1.332,7.776 C2.1720042,5.99999112 3.32399268,4.48800624 4.788,3.24 L6.876,5.328 C5.69999412,6.31200492 4.77600336,7.49999304 4.104,8.892 C3.3839964,10.3560073 3.024,11.891992 3.024,13.5 C3.024,15.4200096 3.49199532,17.183992 4.428,18.792 C5.36400468,20.3760079 6.62399208,21.6359953 8.208,22.572 C9.81600804,23.5080047 11.5799904,23.976 13.5,23.976 C15.4200096,23.976 17.183992,23.5080047 18.792,22.572 C20.3760079,21.6359953 21.6359953,20.3760079 22.572,18.792 C23.5080047,17.183992 23.976,15.4200096 23.976,13.5 C23.976,11.8679918 23.6340034,10.350007 22.95,8.946 C22.2659966,7.54199298 21.324006,6.3600048 20.124,5.4 L22.212,3.24 Z" id="Path"></path>
                    <polygon id="Path" points="14.976 0 14.976 14.976 12.024 14.976 12.024 0"></polygon>
                </g>
            </g>
        </g>
    </g>
</svg>