G04 #@! TF.FileFunction,Other,User*
%FSLAX46Y46*%
G04 Gerber Fmt 4.6, Leading zero omitted, Abs format (unit mm)*
G04 Created by KiCad (PCBNEW 4.0.7) date 10/27/18 14:09:12*
%MOMM*%
%LPD*%
G01*
G04 APERTURE LIST*
%ADD10C,0.100000*%
%ADD11C,0.050000*%
G04 APERTURE END LIST*
D10*
D11*
X122152000Y-114532000D02*
X122152000Y-120682000D01*
X122152000Y-120682000D02*
X125752000Y-120682000D01*
X125752000Y-120682000D02*
X125752000Y-114532000D01*
X125752000Y-114532000D02*
X122152000Y-114532000D01*
X125752000Y-143532000D02*
X125752000Y-122182000D01*
X125752000Y-122182000D02*
X122152000Y-122182000D01*
X122152000Y-122182000D02*
X122152000Y-143532000D01*
X122152000Y-143532000D02*
X125752000Y-143532000D01*
X135404000Y-134388000D02*
X135404000Y-128238000D01*
X135404000Y-128238000D02*
X131804000Y-128238000D01*
X131804000Y-128238000D02*
X131804000Y-134388000D01*
X131804000Y-134388000D02*
X135404000Y-134388000D01*
X146072000Y-134388000D02*
X146072000Y-128238000D01*
X146072000Y-128238000D02*
X142472000Y-128238000D01*
X142472000Y-128238000D02*
X142472000Y-134388000D01*
X142472000Y-134388000D02*
X146072000Y-134388000D01*
X156740000Y-134388000D02*
X156740000Y-128238000D01*
X156740000Y-128238000D02*
X153140000Y-128238000D01*
X153140000Y-128238000D02*
X153140000Y-134388000D01*
X153140000Y-134388000D02*
X156740000Y-134388000D01*
X167408000Y-134388000D02*
X167408000Y-128238000D01*
X167408000Y-128238000D02*
X163808000Y-128238000D01*
X163808000Y-128238000D02*
X163808000Y-134388000D01*
X163808000Y-134388000D02*
X167408000Y-134388000D01*
X157966000Y-123422000D02*
X157966000Y-129572000D01*
X157966000Y-129572000D02*
X161566000Y-129572000D01*
X161566000Y-129572000D02*
X161566000Y-123422000D01*
X161566000Y-123422000D02*
X157966000Y-123422000D01*
X147298000Y-123422000D02*
X147298000Y-129572000D01*
X147298000Y-129572000D02*
X150898000Y-129572000D01*
X150898000Y-129572000D02*
X150898000Y-123422000D01*
X150898000Y-123422000D02*
X147298000Y-123422000D01*
X136630000Y-123422000D02*
X136630000Y-129572000D01*
X136630000Y-129572000D02*
X140230000Y-129572000D01*
X140230000Y-129572000D02*
X140230000Y-123422000D01*
X140230000Y-123422000D02*
X136630000Y-123422000D01*
X125962000Y-123422000D02*
X125962000Y-129572000D01*
X125962000Y-129572000D02*
X129562000Y-129572000D01*
X129562000Y-129572000D02*
X129562000Y-123422000D01*
X129562000Y-123422000D02*
X125962000Y-123422000D01*
X135304000Y-138402000D02*
X131904000Y-138402000D01*
X131904000Y-138402000D02*
X131904000Y-134902000D01*
X131904000Y-134902000D02*
X135304000Y-134902000D01*
X135304000Y-134902000D02*
X135304000Y-138402000D01*
X145972000Y-138402000D02*
X142572000Y-138402000D01*
X142572000Y-138402000D02*
X142572000Y-134902000D01*
X142572000Y-134902000D02*
X145972000Y-134902000D01*
X145972000Y-134902000D02*
X145972000Y-138402000D01*
X156640000Y-138402000D02*
X153240000Y-138402000D01*
X153240000Y-138402000D02*
X153240000Y-134902000D01*
X153240000Y-134902000D02*
X156640000Y-134902000D01*
X156640000Y-134902000D02*
X156640000Y-138402000D01*
X167308000Y-138402000D02*
X163908000Y-138402000D01*
X163908000Y-138402000D02*
X163908000Y-134902000D01*
X163908000Y-134902000D02*
X167308000Y-134902000D01*
X167308000Y-134902000D02*
X167308000Y-138402000D01*
X158066000Y-119408000D02*
X161466000Y-119408000D01*
X161466000Y-119408000D02*
X161466000Y-122908000D01*
X161466000Y-122908000D02*
X158066000Y-122908000D01*
X158066000Y-122908000D02*
X158066000Y-119408000D01*
X147398000Y-119408000D02*
X150798000Y-119408000D01*
X150798000Y-119408000D02*
X150798000Y-122908000D01*
X150798000Y-122908000D02*
X147398000Y-122908000D01*
X147398000Y-122908000D02*
X147398000Y-119408000D01*
X136730000Y-119408000D02*
X140130000Y-119408000D01*
X140130000Y-119408000D02*
X140130000Y-122908000D01*
X140130000Y-122908000D02*
X136730000Y-122908000D01*
X136730000Y-122908000D02*
X136730000Y-119408000D01*
X126062000Y-119408000D02*
X129462000Y-119408000D01*
X129462000Y-119408000D02*
X129462000Y-122908000D01*
X129462000Y-122908000D02*
X126062000Y-122908000D01*
X126062000Y-122908000D02*
X126062000Y-119408000D01*
X133720000Y-143574000D02*
X133720000Y-138874000D01*
X133720000Y-143574000D02*
X135520000Y-143574000D01*
X135520000Y-138874000D02*
X133720000Y-138874000D01*
X135520000Y-138874000D02*
X135520000Y-143574000D01*
X144388000Y-143574000D02*
X144388000Y-138874000D01*
X144388000Y-143574000D02*
X146188000Y-143574000D01*
X146188000Y-138874000D02*
X144388000Y-138874000D01*
X146188000Y-138874000D02*
X146188000Y-143574000D01*
X153024000Y-143574000D02*
X153024000Y-138874000D01*
X153024000Y-143574000D02*
X154824000Y-143574000D01*
X154824000Y-138874000D02*
X153024000Y-138874000D01*
X154824000Y-138874000D02*
X154824000Y-143574000D01*
X163692000Y-143574000D02*
X163692000Y-138874000D01*
X163692000Y-143574000D02*
X165492000Y-143574000D01*
X165492000Y-138874000D02*
X163692000Y-138874000D01*
X165492000Y-138874000D02*
X165492000Y-143574000D01*
X133488000Y-138874000D02*
X133488000Y-143574000D01*
X133488000Y-138874000D02*
X131688000Y-138874000D01*
X131688000Y-143574000D02*
X133488000Y-143574000D01*
X131688000Y-143574000D02*
X131688000Y-138874000D01*
X144156000Y-138874000D02*
X144156000Y-143574000D01*
X144156000Y-138874000D02*
X142356000Y-138874000D01*
X142356000Y-143574000D02*
X144156000Y-143574000D01*
X142356000Y-143574000D02*
X142356000Y-138874000D01*
X156856000Y-138874000D02*
X156856000Y-143574000D01*
X156856000Y-138874000D02*
X155056000Y-138874000D01*
X155056000Y-143574000D02*
X156856000Y-143574000D01*
X155056000Y-143574000D02*
X155056000Y-138874000D01*
X167524000Y-138874000D02*
X167524000Y-143574000D01*
X167524000Y-138874000D02*
X165724000Y-138874000D01*
X165724000Y-143574000D02*
X167524000Y-143574000D01*
X165724000Y-143574000D02*
X165724000Y-138874000D01*
X131382000Y-142124000D02*
X126682000Y-142124000D01*
X131382000Y-142124000D02*
X131382000Y-140324000D01*
X126682000Y-140324000D02*
X126682000Y-142124000D01*
X126682000Y-140324000D02*
X131382000Y-140324000D01*
X142050000Y-142124000D02*
X137350000Y-142124000D01*
X142050000Y-142124000D02*
X142050000Y-140324000D01*
X137350000Y-140324000D02*
X137350000Y-142124000D01*
X137350000Y-140324000D02*
X142050000Y-140324000D01*
X152718000Y-142124000D02*
X148018000Y-142124000D01*
X152718000Y-142124000D02*
X152718000Y-140324000D01*
X148018000Y-140324000D02*
X148018000Y-142124000D01*
X148018000Y-140324000D02*
X152718000Y-140324000D01*
X163386000Y-142124000D02*
X158686000Y-142124000D01*
X163386000Y-142124000D02*
X163386000Y-140324000D01*
X158686000Y-140324000D02*
X158686000Y-142124000D01*
X158686000Y-140324000D02*
X163386000Y-140324000D01*
X161682000Y-114236000D02*
X161682000Y-118936000D01*
X161682000Y-114236000D02*
X159882000Y-114236000D01*
X159882000Y-118936000D02*
X161682000Y-118936000D01*
X159882000Y-118936000D02*
X159882000Y-114236000D01*
X151014000Y-114236000D02*
X151014000Y-118936000D01*
X151014000Y-114236000D02*
X149214000Y-114236000D01*
X149214000Y-118936000D02*
X151014000Y-118936000D01*
X149214000Y-118936000D02*
X149214000Y-114236000D01*
X140346000Y-114236000D02*
X140346000Y-118936000D01*
X140346000Y-114236000D02*
X138546000Y-114236000D01*
X138546000Y-118936000D02*
X140346000Y-118936000D01*
X138546000Y-118936000D02*
X138546000Y-114236000D01*
X129678000Y-114236000D02*
X129678000Y-118936000D01*
X129678000Y-114236000D02*
X127878000Y-114236000D01*
X127878000Y-118936000D02*
X129678000Y-118936000D01*
X127878000Y-118936000D02*
X127878000Y-114236000D01*
X157850000Y-118936000D02*
X157850000Y-114236000D01*
X157850000Y-118936000D02*
X159650000Y-118936000D01*
X159650000Y-114236000D02*
X157850000Y-114236000D01*
X159650000Y-114236000D02*
X159650000Y-118936000D01*
X147182000Y-118936000D02*
X147182000Y-114236000D01*
X147182000Y-118936000D02*
X148982000Y-118936000D01*
X148982000Y-114236000D02*
X147182000Y-114236000D01*
X148982000Y-114236000D02*
X148982000Y-118936000D01*
X136514000Y-118936000D02*
X136514000Y-114236000D01*
X136514000Y-118936000D02*
X138314000Y-118936000D01*
X138314000Y-114236000D02*
X136514000Y-114236000D01*
X138314000Y-114236000D02*
X138314000Y-118936000D01*
X125846000Y-118936000D02*
X125846000Y-114236000D01*
X125846000Y-118936000D02*
X127646000Y-118936000D01*
X127646000Y-114236000D02*
X125846000Y-114236000D01*
X127646000Y-114236000D02*
X127646000Y-118936000D01*
X161988000Y-115686000D02*
X166688000Y-115686000D01*
X161988000Y-115686000D02*
X161988000Y-117486000D01*
X166688000Y-117486000D02*
X166688000Y-115686000D01*
X166688000Y-117486000D02*
X161988000Y-117486000D01*
X151320000Y-115686000D02*
X156020000Y-115686000D01*
X151320000Y-115686000D02*
X151320000Y-117486000D01*
X156020000Y-117486000D02*
X156020000Y-115686000D01*
X156020000Y-117486000D02*
X151320000Y-117486000D01*
X140652000Y-115686000D02*
X145352000Y-115686000D01*
X140652000Y-115686000D02*
X140652000Y-117486000D01*
X145352000Y-117486000D02*
X145352000Y-115686000D01*
X145352000Y-117486000D02*
X140652000Y-117486000D01*
X129984000Y-115686000D02*
X134684000Y-115686000D01*
X129984000Y-115686000D02*
X129984000Y-117486000D01*
X134684000Y-117486000D02*
X134684000Y-115686000D01*
X134684000Y-117486000D02*
X129984000Y-117486000D01*
X125958000Y-140292000D02*
X131608000Y-140292000D01*
X131608000Y-140292000D02*
X131608000Y-130492000D01*
X131608000Y-130492000D02*
X125958000Y-130492000D01*
X125958000Y-130492000D02*
X125958000Y-140292000D01*
X136626000Y-140292000D02*
X142276000Y-140292000D01*
X142276000Y-140292000D02*
X142276000Y-130492000D01*
X142276000Y-130492000D02*
X136626000Y-130492000D01*
X136626000Y-130492000D02*
X136626000Y-140292000D01*
X147294000Y-140292000D02*
X152944000Y-140292000D01*
X152944000Y-140292000D02*
X152944000Y-130492000D01*
X152944000Y-130492000D02*
X147294000Y-130492000D01*
X147294000Y-130492000D02*
X147294000Y-140292000D01*
X157962000Y-140292000D02*
X163612000Y-140292000D01*
X163612000Y-140292000D02*
X163612000Y-130492000D01*
X163612000Y-130492000D02*
X157962000Y-130492000D01*
X157962000Y-130492000D02*
X157962000Y-140292000D01*
X167412000Y-117518000D02*
X161762000Y-117518000D01*
X161762000Y-117518000D02*
X161762000Y-127318000D01*
X161762000Y-127318000D02*
X167412000Y-127318000D01*
X167412000Y-127318000D02*
X167412000Y-117518000D01*
X156744000Y-117518000D02*
X151094000Y-117518000D01*
X151094000Y-117518000D02*
X151094000Y-127318000D01*
X151094000Y-127318000D02*
X156744000Y-127318000D01*
X156744000Y-127318000D02*
X156744000Y-117518000D01*
X146076000Y-117518000D02*
X140426000Y-117518000D01*
X140426000Y-117518000D02*
X140426000Y-127318000D01*
X140426000Y-127318000D02*
X146076000Y-127318000D01*
X146076000Y-127318000D02*
X146076000Y-117518000D01*
X135408000Y-117518000D02*
X129758000Y-117518000D01*
X129758000Y-117518000D02*
X129758000Y-127318000D01*
X129758000Y-127318000D02*
X135408000Y-127318000D01*
X135408000Y-127318000D02*
X135408000Y-117518000D01*
M02*
