G04 #@! TF.FileFunction,Copper,L1,Top,Signal*
%FSLAX46Y46*%
G04 Gerber Fmt 4.6, Leading zero omitted, Abs format (unit mm)*
G04 Created by KiCad (PCBNEW 4.0.7) date 10/27/18 14:09:12*
%MOMM*%
%LPD*%
G01*
G04 APERTURE LIST*
%ADD10C,0.100000*%
%ADD11R,1.700000X1.700000*%
%ADD12O,1.700000X1.700000*%
%ADD13R,0.900000X0.800000*%
%ADD14R,1.300000X1.500000*%
%ADD15R,1.500000X1.300000*%
%ADD16R,1.600000X1.600000*%
%ADD17O,1.600000X1.600000*%
%ADD18C,0.685800*%
%ADD19C,0.152400*%
%ADD20C,0.254000*%
G04 APERTURE END LIST*
D10*
D11*
X123952000Y-116332000D03*
D12*
X123952000Y-118872000D03*
D11*
X123952000Y-141732000D03*
D12*
X123952000Y-139192000D03*
X123952000Y-136652000D03*
X123952000Y-134112000D03*
X123952000Y-131572000D03*
X123952000Y-129032000D03*
X123952000Y-126492000D03*
X123952000Y-123952000D03*
D11*
X133604000Y-132588000D03*
D12*
X133604000Y-130048000D03*
D11*
X144272000Y-132588000D03*
D12*
X144272000Y-130048000D03*
D11*
X154940000Y-132588000D03*
D12*
X154940000Y-130048000D03*
D11*
X165608000Y-132588000D03*
D12*
X165608000Y-130048000D03*
D11*
X159766000Y-125222000D03*
D12*
X159766000Y-127762000D03*
D11*
X149098000Y-125222000D03*
D12*
X149098000Y-127762000D03*
D11*
X138430000Y-125222000D03*
D12*
X138430000Y-127762000D03*
D11*
X127762000Y-125222000D03*
D12*
X127762000Y-127762000D03*
D13*
X134604000Y-137602000D03*
X134604000Y-135702000D03*
X132604000Y-136652000D03*
X145272000Y-137602000D03*
X145272000Y-135702000D03*
X143272000Y-136652000D03*
X155940000Y-137602000D03*
X155940000Y-135702000D03*
X153940000Y-136652000D03*
X166608000Y-137602000D03*
X166608000Y-135702000D03*
X164608000Y-136652000D03*
X158766000Y-120208000D03*
X158766000Y-122108000D03*
X160766000Y-121158000D03*
X148098000Y-120208000D03*
X148098000Y-122108000D03*
X150098000Y-121158000D03*
X137430000Y-120208000D03*
X137430000Y-122108000D03*
X139430000Y-121158000D03*
X126762000Y-120208000D03*
X126762000Y-122108000D03*
X128762000Y-121158000D03*
D14*
X134620000Y-142574000D03*
X134620000Y-139874000D03*
X145288000Y-142574000D03*
X145288000Y-139874000D03*
X153924000Y-142574000D03*
X153924000Y-139874000D03*
X164592000Y-142574000D03*
X164592000Y-139874000D03*
X132588000Y-139874000D03*
X132588000Y-142574000D03*
X143256000Y-139874000D03*
X143256000Y-142574000D03*
X155956000Y-139874000D03*
X155956000Y-142574000D03*
X166624000Y-139874000D03*
X166624000Y-142574000D03*
D15*
X130382000Y-141224000D03*
X127682000Y-141224000D03*
X141050000Y-141224000D03*
X138350000Y-141224000D03*
X151718000Y-141224000D03*
X149018000Y-141224000D03*
X162386000Y-141224000D03*
X159686000Y-141224000D03*
D14*
X160782000Y-115236000D03*
X160782000Y-117936000D03*
X150114000Y-115236000D03*
X150114000Y-117936000D03*
X139446000Y-115236000D03*
X139446000Y-117936000D03*
X128778000Y-115236000D03*
X128778000Y-117936000D03*
X158750000Y-117936000D03*
X158750000Y-115236000D03*
X148082000Y-117936000D03*
X148082000Y-115236000D03*
X137414000Y-117936000D03*
X137414000Y-115236000D03*
X126746000Y-117936000D03*
X126746000Y-115236000D03*
D15*
X162988000Y-116586000D03*
X165688000Y-116586000D03*
X152320000Y-116586000D03*
X155020000Y-116586000D03*
X141652000Y-116586000D03*
X144352000Y-116586000D03*
X130984000Y-116586000D03*
X133684000Y-116586000D03*
D16*
X127508000Y-139192000D03*
D17*
X130048000Y-131572000D03*
X130048000Y-139192000D03*
X127508000Y-131572000D03*
D16*
X138176000Y-139192000D03*
D17*
X140716000Y-131572000D03*
X140716000Y-139192000D03*
X138176000Y-131572000D03*
D16*
X148844000Y-139192000D03*
D17*
X151384000Y-131572000D03*
X151384000Y-139192000D03*
X148844000Y-131572000D03*
D16*
X159512000Y-139192000D03*
D17*
X162052000Y-131572000D03*
X162052000Y-139192000D03*
X159512000Y-131572000D03*
D16*
X165862000Y-118618000D03*
D17*
X163322000Y-126238000D03*
X163322000Y-118618000D03*
X165862000Y-126238000D03*
D16*
X155194000Y-118618000D03*
D17*
X152654000Y-126238000D03*
X152654000Y-118618000D03*
X155194000Y-126238000D03*
D16*
X144526000Y-118618000D03*
D17*
X141986000Y-126238000D03*
X141986000Y-118618000D03*
X144526000Y-126238000D03*
D16*
X133858000Y-118618000D03*
D17*
X131318000Y-126238000D03*
X131318000Y-118618000D03*
X133858000Y-126238000D03*
D18*
X131064000Y-114300000D03*
X132588000Y-123444000D03*
X130556000Y-143256000D03*
X141224000Y-144780000D03*
X151892000Y-143764000D03*
X162560000Y-143256000D03*
X156464000Y-113792000D03*
X142240000Y-123444000D03*
X145796000Y-113792000D03*
X135128000Y-113284000D03*
X141224000Y-143256000D03*
X140716000Y-136144000D03*
X139192000Y-136144000D03*
D19*
X130984000Y-116586000D02*
X131064000Y-116840000D01*
X131064000Y-116840000D02*
X131064000Y-114300000D01*
X132588000Y-123444000D02*
X132588000Y-127508000D01*
X132588000Y-127508000D02*
X132080000Y-128016000D01*
X132080000Y-128016000D02*
X132080000Y-134112000D01*
X132080000Y-134112000D02*
X133604000Y-135636000D01*
X133604000Y-135636000D02*
X133604000Y-137668000D01*
X133604000Y-137668000D02*
X133096000Y-137668000D01*
X133096000Y-137668000D02*
X132080000Y-138684000D01*
X132080000Y-138684000D02*
X131572000Y-138684000D01*
X131572000Y-138684000D02*
X131572000Y-140716000D01*
X131572000Y-140716000D02*
X131064000Y-140716000D01*
X131064000Y-140716000D02*
X130556000Y-141224000D01*
X130556000Y-141224000D02*
X130382000Y-141224000D01*
X130984000Y-116586000D02*
X131064000Y-116840000D01*
X131064000Y-116840000D02*
X132588000Y-115316000D01*
X132588000Y-115316000D02*
X135128000Y-115316000D01*
X135128000Y-115316000D02*
X136144000Y-116332000D01*
X136144000Y-116332000D02*
X141224000Y-116332000D01*
X141224000Y-116332000D02*
X141732000Y-116840000D01*
X141732000Y-116840000D02*
X141652000Y-116586000D01*
X141652000Y-116586000D02*
X141732000Y-116840000D01*
X141732000Y-116840000D02*
X143256000Y-115316000D01*
X143256000Y-115316000D02*
X145796000Y-115316000D01*
X145796000Y-115316000D02*
X146812000Y-116332000D01*
X146812000Y-116332000D02*
X151892000Y-116332000D01*
X151892000Y-116332000D02*
X152400000Y-116840000D01*
X152400000Y-116840000D02*
X152320000Y-116586000D01*
X152320000Y-116586000D02*
X152400000Y-116840000D01*
X152400000Y-116840000D02*
X153924000Y-115316000D01*
X153924000Y-115316000D02*
X156464000Y-115316000D01*
X156464000Y-115316000D02*
X157480000Y-116332000D01*
X157480000Y-116332000D02*
X162560000Y-116332000D01*
X162560000Y-116332000D02*
X163068000Y-116840000D01*
X163068000Y-116840000D02*
X162988000Y-116586000D01*
X130382000Y-141224000D02*
X136144000Y-141224000D01*
X136144000Y-141224000D02*
X137160000Y-142240000D01*
X137160000Y-142240000D02*
X140208000Y-142240000D01*
X140208000Y-142240000D02*
X141224000Y-141224000D01*
X141224000Y-141224000D02*
X141050000Y-141224000D01*
X151718000Y-141224000D02*
X151892000Y-141224000D01*
X151892000Y-141224000D02*
X152400000Y-140716000D01*
X152400000Y-140716000D02*
X152908000Y-140716000D01*
X152908000Y-140716000D02*
X152908000Y-138684000D01*
X152908000Y-138684000D02*
X154940000Y-138684000D01*
X154940000Y-138684000D02*
X154940000Y-141224000D01*
X154940000Y-141224000D02*
X157480000Y-141224000D01*
X157480000Y-141224000D02*
X158496000Y-142240000D01*
X158496000Y-142240000D02*
X161544000Y-142240000D01*
X161544000Y-142240000D02*
X162560000Y-141224000D01*
X162560000Y-141224000D02*
X162386000Y-141224000D01*
X123952000Y-116332000D02*
X130556000Y-116332000D01*
X130556000Y-116332000D02*
X131064000Y-116840000D01*
X131064000Y-116840000D02*
X130984000Y-116586000D01*
X148098000Y-122108000D02*
X148336000Y-121920000D01*
X148336000Y-121920000D02*
X145796000Y-124460000D01*
X145796000Y-124460000D02*
X145796000Y-134112000D01*
X145796000Y-134112000D02*
X145288000Y-134620000D01*
X145288000Y-134620000D02*
X145288000Y-135636000D01*
X145288000Y-135636000D02*
X145272000Y-135702000D01*
X126762000Y-122108000D02*
X127000000Y-121920000D01*
X127000000Y-121920000D02*
X123952000Y-118872000D01*
X158766000Y-122108000D02*
X159004000Y-121920000D01*
X159004000Y-121920000D02*
X160020000Y-120904000D01*
X160020000Y-120904000D02*
X160020000Y-120396000D01*
X160020000Y-120396000D02*
X161036000Y-119380000D01*
X161036000Y-119380000D02*
X161036000Y-117856000D01*
X161036000Y-117856000D02*
X160782000Y-117936000D01*
X148098000Y-122108000D02*
X148336000Y-121920000D01*
X148336000Y-121920000D02*
X148336000Y-121412000D01*
X148336000Y-121412000D02*
X150368000Y-119380000D01*
X150368000Y-119380000D02*
X150368000Y-117856000D01*
X150368000Y-117856000D02*
X150114000Y-117936000D01*
X166608000Y-135702000D02*
X166624000Y-135636000D01*
X166624000Y-135636000D02*
X165608000Y-136652000D01*
X165608000Y-136652000D02*
X165608000Y-137668000D01*
X165608000Y-137668000D02*
X164592000Y-138684000D01*
X164592000Y-138684000D02*
X164592000Y-139874000D01*
X137430000Y-122108000D02*
X137668000Y-121920000D01*
X137668000Y-121920000D02*
X137668000Y-121412000D01*
X137668000Y-121412000D02*
X139700000Y-119380000D01*
X139700000Y-119380000D02*
X139700000Y-117856000D01*
X139700000Y-117856000D02*
X139446000Y-117936000D01*
X145288000Y-139874000D02*
X145288000Y-139700000D01*
X145288000Y-139700000D02*
X144272000Y-138684000D01*
X144272000Y-138684000D02*
X143256000Y-138684000D01*
X143256000Y-138684000D02*
X142240000Y-137668000D01*
X142240000Y-137668000D02*
X136652000Y-137668000D01*
X136652000Y-137668000D02*
X136144000Y-138176000D01*
X136144000Y-138176000D02*
X136144000Y-139192000D01*
X136144000Y-139192000D02*
X135128000Y-139192000D01*
X135128000Y-139192000D02*
X134620000Y-139700000D01*
X134620000Y-139700000D02*
X134620000Y-139874000D01*
X155940000Y-135702000D02*
X155956000Y-135636000D01*
X155956000Y-135636000D02*
X166624000Y-135636000D01*
X166624000Y-135636000D02*
X166608000Y-135702000D01*
X137430000Y-122108000D02*
X137668000Y-121920000D01*
X137668000Y-121920000D02*
X127000000Y-121920000D01*
X127000000Y-121920000D02*
X126762000Y-122108000D01*
X148098000Y-122108000D02*
X148336000Y-121920000D01*
X148336000Y-121920000D02*
X137668000Y-121920000D01*
X137668000Y-121920000D02*
X137430000Y-122108000D01*
X158766000Y-122108000D02*
X159004000Y-121920000D01*
X159004000Y-121920000D02*
X148336000Y-121920000D01*
X148336000Y-121920000D02*
X148098000Y-122108000D01*
X145288000Y-139874000D02*
X145288000Y-139700000D01*
X145288000Y-139700000D02*
X147828000Y-142240000D01*
X147828000Y-142240000D02*
X152908000Y-142240000D01*
X152908000Y-142240000D02*
X152908000Y-141224000D01*
X152908000Y-141224000D02*
X153924000Y-140208000D01*
X153924000Y-140208000D02*
X153924000Y-139874000D01*
X123952000Y-118872000D02*
X124968000Y-117856000D01*
X124968000Y-117856000D02*
X125476000Y-117856000D01*
X125476000Y-117856000D02*
X125476000Y-116840000D01*
X125476000Y-116840000D02*
X128016000Y-116840000D01*
X128016000Y-116840000D02*
X129032000Y-117856000D01*
X129032000Y-117856000D02*
X128778000Y-117936000D01*
X134620000Y-139874000D02*
X134620000Y-139700000D01*
X134620000Y-139700000D02*
X135636000Y-138684000D01*
X135636000Y-138684000D02*
X135636000Y-136652000D01*
X135636000Y-136652000D02*
X134620000Y-135636000D01*
X134620000Y-135636000D02*
X134604000Y-135702000D01*
X145272000Y-135702000D02*
X145288000Y-135636000D01*
X145288000Y-135636000D02*
X146304000Y-136652000D01*
X146304000Y-136652000D02*
X146304000Y-138684000D01*
X146304000Y-138684000D02*
X145288000Y-139700000D01*
X145288000Y-139700000D02*
X145288000Y-139874000D01*
X130556000Y-143256000D02*
X132080000Y-143256000D01*
X132080000Y-143256000D02*
X132588000Y-142748000D01*
X132588000Y-142748000D02*
X132588000Y-142574000D01*
X132588000Y-142574000D02*
X132588000Y-142748000D01*
X132588000Y-142748000D02*
X134620000Y-142748000D01*
X134620000Y-142748000D02*
X134620000Y-142574000D01*
X141224000Y-144780000D02*
X143256000Y-142748000D01*
X143256000Y-142748000D02*
X143256000Y-142574000D01*
X143256000Y-142574000D02*
X143256000Y-142748000D01*
X143256000Y-142748000D02*
X145288000Y-142748000D01*
X145288000Y-142748000D02*
X145288000Y-142574000D01*
X153924000Y-142574000D02*
X153924000Y-142748000D01*
X153924000Y-142748000D02*
X152908000Y-142748000D01*
X152908000Y-142748000D02*
X151892000Y-143764000D01*
X153924000Y-142574000D02*
X153924000Y-142748000D01*
X153924000Y-142748000D02*
X155956000Y-142748000D01*
X155956000Y-142748000D02*
X155956000Y-142574000D01*
X164592000Y-142574000D02*
X164592000Y-142748000D01*
X164592000Y-142748000D02*
X163068000Y-142748000D01*
X163068000Y-142748000D02*
X162560000Y-143256000D01*
X166624000Y-142574000D02*
X166624000Y-142748000D01*
X166624000Y-142748000D02*
X164592000Y-142748000D01*
X164592000Y-142748000D02*
X164592000Y-142574000D01*
X158750000Y-115236000D02*
X159004000Y-115316000D01*
X159004000Y-115316000D02*
X157988000Y-115316000D01*
X157988000Y-115316000D02*
X156464000Y-113792000D01*
X142240000Y-123444000D02*
X134112000Y-123444000D01*
X134112000Y-123444000D02*
X133096000Y-122428000D01*
X133096000Y-122428000D02*
X132080000Y-122428000D01*
X132080000Y-122428000D02*
X129032000Y-125476000D01*
X129032000Y-125476000D02*
X129032000Y-129032000D01*
X129032000Y-129032000D02*
X127000000Y-129032000D01*
X127000000Y-129032000D02*
X125476000Y-130556000D01*
X125476000Y-130556000D02*
X124968000Y-130556000D01*
X124968000Y-130556000D02*
X123952000Y-131572000D01*
X158750000Y-115236000D02*
X159004000Y-115316000D01*
X159004000Y-115316000D02*
X161036000Y-115316000D01*
X161036000Y-115316000D02*
X160782000Y-115236000D01*
X148082000Y-115236000D02*
X148336000Y-115316000D01*
X148336000Y-115316000D02*
X147320000Y-115316000D01*
X147320000Y-115316000D02*
X145796000Y-113792000D01*
X148082000Y-115236000D02*
X148336000Y-115316000D01*
X148336000Y-115316000D02*
X150368000Y-115316000D01*
X150368000Y-115316000D02*
X150114000Y-115236000D01*
X137414000Y-115236000D02*
X137668000Y-115316000D01*
X137668000Y-115316000D02*
X137160000Y-115316000D01*
X137160000Y-115316000D02*
X135128000Y-113284000D01*
X137414000Y-115236000D02*
X137668000Y-115316000D01*
X137668000Y-115316000D02*
X139700000Y-115316000D01*
X139700000Y-115316000D02*
X139446000Y-115236000D01*
X126746000Y-115236000D02*
X127000000Y-115316000D01*
X127000000Y-115316000D02*
X125984000Y-115316000D01*
X125984000Y-115316000D02*
X125476000Y-114808000D01*
X125476000Y-114808000D02*
X122428000Y-114808000D01*
X122428000Y-114808000D02*
X122428000Y-120396000D01*
X122428000Y-120396000D02*
X123952000Y-121920000D01*
X123952000Y-121920000D02*
X123952000Y-123952000D01*
X128778000Y-115236000D02*
X129032000Y-115316000D01*
X129032000Y-115316000D02*
X127000000Y-115316000D01*
X127000000Y-115316000D02*
X126746000Y-115236000D01*
X132588000Y-139874000D02*
X132588000Y-139700000D01*
X132588000Y-139700000D02*
X134620000Y-137668000D01*
X134620000Y-137668000D02*
X134604000Y-137602000D01*
X130048000Y-139192000D02*
X132588000Y-136652000D01*
X132588000Y-136652000D02*
X132604000Y-136652000D01*
X143256000Y-139874000D02*
X143256000Y-139700000D01*
X143256000Y-139700000D02*
X142240000Y-140716000D01*
X142240000Y-140716000D02*
X142240000Y-142240000D01*
X142240000Y-142240000D02*
X141224000Y-143256000D01*
X140716000Y-136144000D02*
X141732000Y-136144000D01*
X141732000Y-136144000D02*
X142240000Y-135636000D01*
X142240000Y-135636000D02*
X144272000Y-135636000D01*
X144272000Y-135636000D02*
X144272000Y-136652000D01*
X144272000Y-136652000D02*
X145288000Y-137668000D01*
X145288000Y-137668000D02*
X145272000Y-137602000D01*
X143272000Y-136652000D02*
X141732000Y-136652000D01*
X141732000Y-136652000D02*
X141224000Y-137160000D01*
X141224000Y-137160000D02*
X140208000Y-137160000D01*
X140208000Y-137160000D02*
X139192000Y-136144000D01*
X155956000Y-139874000D02*
X155956000Y-137668000D01*
X155956000Y-137668000D02*
X155940000Y-137602000D01*
X153940000Y-136652000D02*
X153924000Y-136652000D01*
X153924000Y-136652000D02*
X151384000Y-139192000D01*
X166608000Y-137602000D02*
X166624000Y-137668000D01*
X166624000Y-137668000D02*
X166624000Y-139874000D01*
X164608000Y-136652000D02*
X164592000Y-136652000D01*
X164592000Y-136652000D02*
X162052000Y-139192000D01*
X158766000Y-120208000D02*
X159004000Y-120396000D01*
X159004000Y-120396000D02*
X159004000Y-117856000D01*
X159004000Y-117856000D02*
X158750000Y-117936000D01*
X160766000Y-121158000D02*
X160528000Y-121412000D01*
X160528000Y-121412000D02*
X161036000Y-121412000D01*
X161036000Y-121412000D02*
X163576000Y-118872000D01*
X163576000Y-118872000D02*
X163322000Y-118618000D01*
X148098000Y-120208000D02*
X148336000Y-120396000D01*
X148336000Y-120396000D02*
X148336000Y-117856000D01*
X148336000Y-117856000D02*
X148082000Y-117936000D01*
X150098000Y-121158000D02*
X149860000Y-121412000D01*
X149860000Y-121412000D02*
X150368000Y-121412000D01*
X150368000Y-121412000D02*
X152908000Y-118872000D01*
X152908000Y-118872000D02*
X152654000Y-118618000D01*
X137414000Y-117936000D02*
X137668000Y-117856000D01*
X137668000Y-117856000D02*
X137668000Y-120396000D01*
X137668000Y-120396000D02*
X137430000Y-120208000D01*
X141986000Y-118618000D02*
X142240000Y-118872000D01*
X142240000Y-118872000D02*
X141732000Y-118872000D01*
X141732000Y-118872000D02*
X139192000Y-121412000D01*
X139192000Y-121412000D02*
X139430000Y-121158000D01*
X126746000Y-117936000D02*
X127000000Y-117856000D01*
X127000000Y-117856000D02*
X127000000Y-120396000D01*
X127000000Y-120396000D02*
X126762000Y-120208000D01*
X128762000Y-121158000D02*
X128524000Y-121412000D01*
X128524000Y-121412000D02*
X129032000Y-121412000D01*
X129032000Y-121412000D02*
X131572000Y-118872000D01*
X131572000Y-118872000D02*
X131318000Y-118618000D01*
X127682000Y-141224000D02*
X127508000Y-141224000D01*
X127508000Y-141224000D02*
X127508000Y-139192000D01*
X138350000Y-141224000D02*
X138176000Y-141224000D01*
X138176000Y-141224000D02*
X138176000Y-139192000D01*
X149018000Y-141224000D02*
X148844000Y-141224000D01*
X148844000Y-141224000D02*
X148844000Y-139192000D01*
X159512000Y-139192000D02*
X159512000Y-141224000D01*
X159512000Y-141224000D02*
X159686000Y-141224000D01*
X165862000Y-118618000D02*
X165608000Y-118364000D01*
X165608000Y-118364000D02*
X165608000Y-116840000D01*
X165608000Y-116840000D02*
X165688000Y-116586000D01*
X155194000Y-118618000D02*
X154940000Y-118364000D01*
X154940000Y-118364000D02*
X154940000Y-116840000D01*
X154940000Y-116840000D02*
X155020000Y-116586000D01*
X144526000Y-118618000D02*
X144272000Y-118364000D01*
X144272000Y-118364000D02*
X144272000Y-116840000D01*
X144272000Y-116840000D02*
X144352000Y-116586000D01*
X133858000Y-118618000D02*
X133604000Y-118364000D01*
X133604000Y-118364000D02*
X133604000Y-116840000D01*
X133604000Y-116840000D02*
X133684000Y-116586000D01*
D20*
G36*
X166939937Y-113029264D02*
X167207774Y-113208226D01*
X167386736Y-113476063D01*
X167463000Y-113859467D01*
X167463000Y-134808975D01*
X167417698Y-134763673D01*
X167184309Y-134667000D01*
X166893750Y-134667000D01*
X166735000Y-134825750D01*
X166735000Y-135575000D01*
X166755000Y-135575000D01*
X166755000Y-135829000D01*
X166735000Y-135829000D01*
X166735000Y-135849000D01*
X166481000Y-135849000D01*
X166481000Y-135829000D01*
X165681750Y-135829000D01*
X165595738Y-135915012D01*
X165522090Y-135800559D01*
X165309890Y-135655569D01*
X165058000Y-135604560D01*
X164158000Y-135604560D01*
X163922683Y-135648838D01*
X163706559Y-135787910D01*
X163561569Y-136000110D01*
X163510560Y-136252000D01*
X163510560Y-136727651D01*
X162433450Y-137804762D01*
X162052000Y-137728887D01*
X161502849Y-137838120D01*
X161037302Y-138149189D01*
X160940899Y-138293465D01*
X160915162Y-138156683D01*
X160776090Y-137940559D01*
X160563890Y-137795569D01*
X160312000Y-137744560D01*
X158712000Y-137744560D01*
X158476683Y-137788838D01*
X158260559Y-137927910D01*
X158115569Y-138140110D01*
X158064560Y-138392000D01*
X158064560Y-139992000D01*
X158108838Y-140227317D01*
X158247910Y-140443441D01*
X158306844Y-140483709D01*
X158288560Y-140574000D01*
X158288560Y-141026772D01*
X157982894Y-140721106D01*
X157752165Y-140566937D01*
X157480000Y-140512800D01*
X157253440Y-140512800D01*
X157253440Y-139124000D01*
X157209162Y-138888683D01*
X157070090Y-138672559D01*
X156857890Y-138527569D01*
X156772707Y-138510319D01*
X156841441Y-138466090D01*
X156986431Y-138253890D01*
X157037440Y-138002000D01*
X157037440Y-137202000D01*
X156993162Y-136966683D01*
X156854090Y-136750559D01*
X156714250Y-136655010D01*
X156749698Y-136640327D01*
X156928327Y-136461699D01*
X157025000Y-136228310D01*
X157025000Y-135987750D01*
X156866250Y-135829000D01*
X156067000Y-135829000D01*
X156067000Y-135849000D01*
X155813000Y-135849000D01*
X155813000Y-135829000D01*
X155013750Y-135829000D01*
X154927738Y-135915012D01*
X154854090Y-135800559D01*
X154641890Y-135655569D01*
X154390000Y-135604560D01*
X153490000Y-135604560D01*
X153254683Y-135648838D01*
X153038559Y-135787910D01*
X152893569Y-136000110D01*
X152842560Y-136252000D01*
X152842560Y-136727651D01*
X151765450Y-137804762D01*
X151384000Y-137728887D01*
X150834849Y-137838120D01*
X150369302Y-138149189D01*
X150272899Y-138293465D01*
X150247162Y-138156683D01*
X150108090Y-137940559D01*
X149895890Y-137795569D01*
X149644000Y-137744560D01*
X148044000Y-137744560D01*
X147808683Y-137788838D01*
X147592559Y-137927910D01*
X147447569Y-138140110D01*
X147396560Y-138392000D01*
X147396560Y-139992000D01*
X147440838Y-140227317D01*
X147579910Y-140443441D01*
X147638844Y-140483709D01*
X147620560Y-140574000D01*
X147620560Y-141874000D01*
X147664838Y-142109317D01*
X147803910Y-142325441D01*
X148016110Y-142470431D01*
X148268000Y-142521440D01*
X149768000Y-142521440D01*
X150003317Y-142477162D01*
X150219441Y-142338090D01*
X150364431Y-142125890D01*
X150367081Y-142112803D01*
X150503910Y-142325441D01*
X150716110Y-142470431D01*
X150968000Y-142521440D01*
X152128772Y-142521440D01*
X151864137Y-142786075D01*
X151698337Y-142785931D01*
X151338788Y-142934493D01*
X151063460Y-143209341D01*
X150914270Y-143568630D01*
X150913931Y-143957663D01*
X151062493Y-144317212D01*
X151337341Y-144592540D01*
X151362531Y-144603000D01*
X142406788Y-144603000D01*
X143038348Y-143971440D01*
X143906000Y-143971440D01*
X144141317Y-143927162D01*
X144272457Y-143842775D01*
X144386110Y-143920431D01*
X144638000Y-143971440D01*
X145938000Y-143971440D01*
X146173317Y-143927162D01*
X146389441Y-143788090D01*
X146534431Y-143575890D01*
X146585440Y-143324000D01*
X146585440Y-141824000D01*
X146541162Y-141588683D01*
X146402090Y-141372559D01*
X146189890Y-141227569D01*
X146156510Y-141220809D01*
X146297699Y-141162327D01*
X146476327Y-140983698D01*
X146573000Y-140750309D01*
X146573000Y-140159750D01*
X146414250Y-140001000D01*
X145415000Y-140001000D01*
X145415000Y-140021000D01*
X145161000Y-140021000D01*
X145161000Y-140001000D01*
X145141000Y-140001000D01*
X145141000Y-139747000D01*
X145161000Y-139747000D01*
X145161000Y-139727000D01*
X145415000Y-139727000D01*
X145415000Y-139747000D01*
X146414250Y-139747000D01*
X146573000Y-139588250D01*
X146573000Y-138997691D01*
X146476327Y-138764302D01*
X146297699Y-138585673D01*
X146109043Y-138507529D01*
X146173441Y-138466090D01*
X146318431Y-138253890D01*
X146369440Y-138002000D01*
X146369440Y-137202000D01*
X146325162Y-136966683D01*
X146186090Y-136750559D01*
X146046250Y-136655010D01*
X146081698Y-136640327D01*
X146260327Y-136461699D01*
X146357000Y-136228310D01*
X146357000Y-135987750D01*
X146198250Y-135829000D01*
X145399000Y-135829000D01*
X145399000Y-135849000D01*
X145145000Y-135849000D01*
X145145000Y-135829000D01*
X145125000Y-135829000D01*
X145125000Y-135575000D01*
X145145000Y-135575000D01*
X145145000Y-134825750D01*
X145399000Y-134825750D01*
X145399000Y-135575000D01*
X146198250Y-135575000D01*
X146357000Y-135416250D01*
X146357000Y-135175690D01*
X154855000Y-135175690D01*
X154855000Y-135416250D01*
X155013750Y-135575000D01*
X155813000Y-135575000D01*
X155813000Y-134825750D01*
X156067000Y-134825750D01*
X156067000Y-135575000D01*
X156866250Y-135575000D01*
X157025000Y-135416250D01*
X157025000Y-135175690D01*
X165523000Y-135175690D01*
X165523000Y-135416250D01*
X165681750Y-135575000D01*
X166481000Y-135575000D01*
X166481000Y-134825750D01*
X166322250Y-134667000D01*
X166031691Y-134667000D01*
X165798302Y-134763673D01*
X165619673Y-134942301D01*
X165523000Y-135175690D01*
X157025000Y-135175690D01*
X156928327Y-134942301D01*
X156749698Y-134763673D01*
X156516309Y-134667000D01*
X156225750Y-134667000D01*
X156067000Y-134825750D01*
X155813000Y-134825750D01*
X155654250Y-134667000D01*
X155363691Y-134667000D01*
X155130302Y-134763673D01*
X154951673Y-134942301D01*
X154855000Y-135175690D01*
X146357000Y-135175690D01*
X146260327Y-134942301D01*
X146081698Y-134763673D01*
X145848309Y-134667000D01*
X145557750Y-134667000D01*
X145399000Y-134825750D01*
X145145000Y-134825750D01*
X144986250Y-134667000D01*
X144695691Y-134667000D01*
X144462302Y-134763673D01*
X144296334Y-134929640D01*
X144272000Y-134924800D01*
X142240000Y-134924800D01*
X141967836Y-134978937D01*
X141967834Y-134978938D01*
X141967835Y-134978938D01*
X141737105Y-135133106D01*
X141437412Y-135432800D01*
X141387794Y-135432800D01*
X141270659Y-135315460D01*
X140911370Y-135166270D01*
X140522337Y-135165931D01*
X140162788Y-135314493D01*
X139953877Y-135523040D01*
X139746659Y-135315460D01*
X139387370Y-135166270D01*
X138998337Y-135165931D01*
X138638788Y-135314493D01*
X138363460Y-135589341D01*
X138214270Y-135948630D01*
X138213931Y-136337663D01*
X138362493Y-136697212D01*
X138637341Y-136972540D01*
X138996630Y-137121730D01*
X139164088Y-137121876D01*
X139705106Y-137662894D01*
X139935835Y-137817063D01*
X140138139Y-137857304D01*
X139701302Y-138149189D01*
X139604899Y-138293465D01*
X139579162Y-138156683D01*
X139440090Y-137940559D01*
X139227890Y-137795569D01*
X138976000Y-137744560D01*
X137376000Y-137744560D01*
X137140683Y-137788838D01*
X136924559Y-137927910D01*
X136779569Y-138140110D01*
X136728560Y-138392000D01*
X136728560Y-139992000D01*
X136772838Y-140227317D01*
X136911910Y-140443441D01*
X136970844Y-140483709D01*
X136952560Y-140574000D01*
X136952560Y-141026772D01*
X136646894Y-140721106D01*
X136416165Y-140566937D01*
X136144000Y-140512800D01*
X135905000Y-140512800D01*
X135905000Y-140159750D01*
X135746250Y-140001000D01*
X134747000Y-140001000D01*
X134747000Y-140021000D01*
X134493000Y-140021000D01*
X134493000Y-140001000D01*
X134473000Y-140001000D01*
X134473000Y-139747000D01*
X134493000Y-139747000D01*
X134493000Y-139727000D01*
X134747000Y-139727000D01*
X134747000Y-139747000D01*
X135746250Y-139747000D01*
X135905000Y-139588250D01*
X135905000Y-138997691D01*
X135808327Y-138764302D01*
X135629699Y-138585673D01*
X135441043Y-138507529D01*
X135505441Y-138466090D01*
X135650431Y-138253890D01*
X135701440Y-138002000D01*
X135701440Y-137202000D01*
X135657162Y-136966683D01*
X135518090Y-136750559D01*
X135378250Y-136655010D01*
X135413698Y-136640327D01*
X135592327Y-136461699D01*
X135689000Y-136228310D01*
X135689000Y-135987750D01*
X135530250Y-135829000D01*
X134731000Y-135829000D01*
X134731000Y-135849000D01*
X134477000Y-135849000D01*
X134477000Y-135829000D01*
X134457000Y-135829000D01*
X134457000Y-135575000D01*
X134477000Y-135575000D01*
X134477000Y-134825750D01*
X134731000Y-134825750D01*
X134731000Y-135575000D01*
X135530250Y-135575000D01*
X135689000Y-135416250D01*
X135689000Y-135175690D01*
X135592327Y-134942301D01*
X135413698Y-134763673D01*
X135180309Y-134667000D01*
X134889750Y-134667000D01*
X134731000Y-134825750D01*
X134477000Y-134825750D01*
X134318250Y-134667000D01*
X134027691Y-134667000D01*
X133794302Y-134763673D01*
X133765882Y-134792093D01*
X133059228Y-134085440D01*
X134454000Y-134085440D01*
X134689317Y-134041162D01*
X134905441Y-133902090D01*
X135050431Y-133689890D01*
X135101440Y-133438000D01*
X135101440Y-131738000D01*
X135064916Y-131543887D01*
X136741000Y-131543887D01*
X136741000Y-131600113D01*
X136850233Y-132149264D01*
X137161302Y-132614811D01*
X137626849Y-132925880D01*
X138176000Y-133035113D01*
X138725151Y-132925880D01*
X139190698Y-132614811D01*
X139446000Y-132232725D01*
X139701302Y-132614811D01*
X140166849Y-132925880D01*
X140716000Y-133035113D01*
X141265151Y-132925880D01*
X141730698Y-132614811D01*
X142041767Y-132149264D01*
X142151000Y-131600113D01*
X142151000Y-131543887D01*
X142041767Y-130994736D01*
X141730698Y-130529189D01*
X141265151Y-130218120D01*
X140716000Y-130108887D01*
X140166849Y-130218120D01*
X139701302Y-130529189D01*
X139446000Y-130911275D01*
X139190698Y-130529189D01*
X138725151Y-130218120D01*
X138176000Y-130108887D01*
X137626849Y-130218120D01*
X137161302Y-130529189D01*
X136850233Y-130994736D01*
X136741000Y-131543887D01*
X135064916Y-131543887D01*
X135057162Y-131502683D01*
X134918090Y-131286559D01*
X134705890Y-131141569D01*
X134638459Y-131127914D01*
X134683147Y-131098054D01*
X135005054Y-130616285D01*
X135118093Y-130048000D01*
X142757907Y-130048000D01*
X142870946Y-130616285D01*
X143192853Y-131098054D01*
X143234452Y-131125850D01*
X143186683Y-131134838D01*
X142970559Y-131273910D01*
X142825569Y-131486110D01*
X142774560Y-131738000D01*
X142774560Y-133438000D01*
X142818838Y-133673317D01*
X142957910Y-133889441D01*
X143170110Y-134034431D01*
X143422000Y-134085440D01*
X145122000Y-134085440D01*
X145357317Y-134041162D01*
X145573441Y-133902090D01*
X145718431Y-133689890D01*
X145769440Y-133438000D01*
X145769440Y-131738000D01*
X145732916Y-131543887D01*
X147409000Y-131543887D01*
X147409000Y-131600113D01*
X147518233Y-132149264D01*
X147829302Y-132614811D01*
X148294849Y-132925880D01*
X148844000Y-133035113D01*
X149393151Y-132925880D01*
X149858698Y-132614811D01*
X150114000Y-132232725D01*
X150369302Y-132614811D01*
X150834849Y-132925880D01*
X151384000Y-133035113D01*
X151933151Y-132925880D01*
X152398698Y-132614811D01*
X152709767Y-132149264D01*
X152819000Y-131600113D01*
X152819000Y-131543887D01*
X152709767Y-130994736D01*
X152398698Y-130529189D01*
X151933151Y-130218120D01*
X151384000Y-130108887D01*
X150834849Y-130218120D01*
X150369302Y-130529189D01*
X150114000Y-130911275D01*
X149858698Y-130529189D01*
X149393151Y-130218120D01*
X148844000Y-130108887D01*
X148294849Y-130218120D01*
X147829302Y-130529189D01*
X147518233Y-130994736D01*
X147409000Y-131543887D01*
X145732916Y-131543887D01*
X145725162Y-131502683D01*
X145586090Y-131286559D01*
X145373890Y-131141569D01*
X145306459Y-131127914D01*
X145351147Y-131098054D01*
X145673054Y-130616285D01*
X145786093Y-130048000D01*
X153425907Y-130048000D01*
X153538946Y-130616285D01*
X153860853Y-131098054D01*
X153902452Y-131125850D01*
X153854683Y-131134838D01*
X153638559Y-131273910D01*
X153493569Y-131486110D01*
X153442560Y-131738000D01*
X153442560Y-133438000D01*
X153486838Y-133673317D01*
X153625910Y-133889441D01*
X153838110Y-134034431D01*
X154090000Y-134085440D01*
X155790000Y-134085440D01*
X156025317Y-134041162D01*
X156241441Y-133902090D01*
X156386431Y-133689890D01*
X156437440Y-133438000D01*
X156437440Y-131738000D01*
X156400916Y-131543887D01*
X158077000Y-131543887D01*
X158077000Y-131600113D01*
X158186233Y-132149264D01*
X158497302Y-132614811D01*
X158962849Y-132925880D01*
X159512000Y-133035113D01*
X160061151Y-132925880D01*
X160526698Y-132614811D01*
X160782000Y-132232725D01*
X161037302Y-132614811D01*
X161502849Y-132925880D01*
X162052000Y-133035113D01*
X162601151Y-132925880D01*
X163066698Y-132614811D01*
X163377767Y-132149264D01*
X163487000Y-131600113D01*
X163487000Y-131543887D01*
X163377767Y-130994736D01*
X163066698Y-130529189D01*
X162601151Y-130218120D01*
X162052000Y-130108887D01*
X161502849Y-130218120D01*
X161037302Y-130529189D01*
X160782000Y-130911275D01*
X160526698Y-130529189D01*
X160061151Y-130218120D01*
X159512000Y-130108887D01*
X158962849Y-130218120D01*
X158497302Y-130529189D01*
X158186233Y-130994736D01*
X158077000Y-131543887D01*
X156400916Y-131543887D01*
X156393162Y-131502683D01*
X156254090Y-131286559D01*
X156041890Y-131141569D01*
X155974459Y-131127914D01*
X156019147Y-131098054D01*
X156341054Y-130616285D01*
X156454093Y-130048000D01*
X164093907Y-130048000D01*
X164206946Y-130616285D01*
X164528853Y-131098054D01*
X164570452Y-131125850D01*
X164522683Y-131134838D01*
X164306559Y-131273910D01*
X164161569Y-131486110D01*
X164110560Y-131738000D01*
X164110560Y-133438000D01*
X164154838Y-133673317D01*
X164293910Y-133889441D01*
X164506110Y-134034431D01*
X164758000Y-134085440D01*
X166458000Y-134085440D01*
X166693317Y-134041162D01*
X166909441Y-133902090D01*
X167054431Y-133689890D01*
X167105440Y-133438000D01*
X167105440Y-131738000D01*
X167061162Y-131502683D01*
X166922090Y-131286559D01*
X166709890Y-131141569D01*
X166642459Y-131127914D01*
X166687147Y-131098054D01*
X167009054Y-130616285D01*
X167122093Y-130048000D01*
X167009054Y-129479715D01*
X166687147Y-128997946D01*
X166205378Y-128676039D01*
X165637093Y-128563000D01*
X165578907Y-128563000D01*
X165010622Y-128676039D01*
X164528853Y-128997946D01*
X164206946Y-129479715D01*
X164093907Y-130048000D01*
X156454093Y-130048000D01*
X156341054Y-129479715D01*
X156019147Y-128997946D01*
X155537378Y-128676039D01*
X154969093Y-128563000D01*
X154910907Y-128563000D01*
X154342622Y-128676039D01*
X153860853Y-128997946D01*
X153538946Y-129479715D01*
X153425907Y-130048000D01*
X145786093Y-130048000D01*
X145673054Y-129479715D01*
X145351147Y-128997946D01*
X144869378Y-128676039D01*
X144301093Y-128563000D01*
X144242907Y-128563000D01*
X143674622Y-128676039D01*
X143192853Y-128997946D01*
X142870946Y-129479715D01*
X142757907Y-130048000D01*
X135118093Y-130048000D01*
X135005054Y-129479715D01*
X134683147Y-128997946D01*
X134201378Y-128676039D01*
X133633093Y-128563000D01*
X133574907Y-128563000D01*
X133006622Y-128676039D01*
X132791200Y-128819979D01*
X132791200Y-128310588D01*
X133090894Y-128010895D01*
X133245062Y-127780165D01*
X133245063Y-127780164D01*
X133285605Y-127576349D01*
X133308849Y-127591880D01*
X133858000Y-127701113D01*
X134407151Y-127591880D01*
X134872698Y-127280811D01*
X135183767Y-126815264D01*
X135293000Y-126266113D01*
X135293000Y-126209887D01*
X135183767Y-125660736D01*
X134872698Y-125195189D01*
X134407151Y-124884120D01*
X133858000Y-124774887D01*
X133308849Y-124884120D01*
X133299200Y-124890567D01*
X133299200Y-124115794D01*
X133416540Y-123998659D01*
X133488228Y-123826016D01*
X133609106Y-123946894D01*
X133839835Y-124101063D01*
X134112000Y-124155200D01*
X136976463Y-124155200D01*
X136932560Y-124372000D01*
X136932560Y-126072000D01*
X136976838Y-126307317D01*
X137115910Y-126523441D01*
X137328110Y-126668431D01*
X137395541Y-126682086D01*
X137350853Y-126711946D01*
X137028946Y-127193715D01*
X136915907Y-127762000D01*
X137028946Y-128330285D01*
X137350853Y-128812054D01*
X137832622Y-129133961D01*
X138400907Y-129247000D01*
X138459093Y-129247000D01*
X139027378Y-129133961D01*
X139509147Y-128812054D01*
X139831054Y-128330285D01*
X139944093Y-127762000D01*
X147583907Y-127762000D01*
X147696946Y-128330285D01*
X148018853Y-128812054D01*
X148500622Y-129133961D01*
X149068907Y-129247000D01*
X149127093Y-129247000D01*
X149695378Y-129133961D01*
X150177147Y-128812054D01*
X150499054Y-128330285D01*
X150612093Y-127762000D01*
X158251907Y-127762000D01*
X158364946Y-128330285D01*
X158686853Y-128812054D01*
X159168622Y-129133961D01*
X159736907Y-129247000D01*
X159795093Y-129247000D01*
X160363378Y-129133961D01*
X160845147Y-128812054D01*
X161167054Y-128330285D01*
X161280093Y-127762000D01*
X161167054Y-127193715D01*
X160845147Y-126711946D01*
X160803548Y-126684150D01*
X160851317Y-126675162D01*
X161067441Y-126536090D01*
X161212431Y-126323890D01*
X161235517Y-126209887D01*
X161887000Y-126209887D01*
X161887000Y-126266113D01*
X161996233Y-126815264D01*
X162307302Y-127280811D01*
X162772849Y-127591880D01*
X163322000Y-127701113D01*
X163871151Y-127591880D01*
X164336698Y-127280811D01*
X164592000Y-126898725D01*
X164847302Y-127280811D01*
X165312849Y-127591880D01*
X165862000Y-127701113D01*
X166411151Y-127591880D01*
X166876698Y-127280811D01*
X167187767Y-126815264D01*
X167297000Y-126266113D01*
X167297000Y-126209887D01*
X167187767Y-125660736D01*
X166876698Y-125195189D01*
X166411151Y-124884120D01*
X165862000Y-124774887D01*
X165312849Y-124884120D01*
X164847302Y-125195189D01*
X164592000Y-125577275D01*
X164336698Y-125195189D01*
X163871151Y-124884120D01*
X163322000Y-124774887D01*
X162772849Y-124884120D01*
X162307302Y-125195189D01*
X161996233Y-125660736D01*
X161887000Y-126209887D01*
X161235517Y-126209887D01*
X161263440Y-126072000D01*
X161263440Y-124372000D01*
X161219162Y-124136683D01*
X161080090Y-123920559D01*
X160867890Y-123775569D01*
X160616000Y-123724560D01*
X158916000Y-123724560D01*
X158680683Y-123768838D01*
X158464559Y-123907910D01*
X158319569Y-124120110D01*
X158268560Y-124372000D01*
X158268560Y-126072000D01*
X158312838Y-126307317D01*
X158451910Y-126523441D01*
X158664110Y-126668431D01*
X158731541Y-126682086D01*
X158686853Y-126711946D01*
X158364946Y-127193715D01*
X158251907Y-127762000D01*
X150612093Y-127762000D01*
X150499054Y-127193715D01*
X150177147Y-126711946D01*
X150135548Y-126684150D01*
X150183317Y-126675162D01*
X150399441Y-126536090D01*
X150544431Y-126323890D01*
X150567517Y-126209887D01*
X151219000Y-126209887D01*
X151219000Y-126266113D01*
X151328233Y-126815264D01*
X151639302Y-127280811D01*
X152104849Y-127591880D01*
X152654000Y-127701113D01*
X153203151Y-127591880D01*
X153668698Y-127280811D01*
X153924000Y-126898725D01*
X154179302Y-127280811D01*
X154644849Y-127591880D01*
X155194000Y-127701113D01*
X155743151Y-127591880D01*
X156208698Y-127280811D01*
X156519767Y-126815264D01*
X156629000Y-126266113D01*
X156629000Y-126209887D01*
X156519767Y-125660736D01*
X156208698Y-125195189D01*
X155743151Y-124884120D01*
X155194000Y-124774887D01*
X154644849Y-124884120D01*
X154179302Y-125195189D01*
X153924000Y-125577275D01*
X153668698Y-125195189D01*
X153203151Y-124884120D01*
X152654000Y-124774887D01*
X152104849Y-124884120D01*
X151639302Y-125195189D01*
X151328233Y-125660736D01*
X151219000Y-126209887D01*
X150567517Y-126209887D01*
X150595440Y-126072000D01*
X150595440Y-124372000D01*
X150551162Y-124136683D01*
X150412090Y-123920559D01*
X150199890Y-123775569D01*
X149948000Y-123724560D01*
X148248000Y-123724560D01*
X148012683Y-123768838D01*
X147796559Y-123907910D01*
X147651569Y-124120110D01*
X147600560Y-124372000D01*
X147600560Y-126072000D01*
X147644838Y-126307317D01*
X147783910Y-126523441D01*
X147996110Y-126668431D01*
X148063541Y-126682086D01*
X148018853Y-126711946D01*
X147696946Y-127193715D01*
X147583907Y-127762000D01*
X139944093Y-127762000D01*
X139831054Y-127193715D01*
X139509147Y-126711946D01*
X139467548Y-126684150D01*
X139515317Y-126675162D01*
X139731441Y-126536090D01*
X139876431Y-126323890D01*
X139899517Y-126209887D01*
X140551000Y-126209887D01*
X140551000Y-126266113D01*
X140660233Y-126815264D01*
X140971302Y-127280811D01*
X141436849Y-127591880D01*
X141986000Y-127701113D01*
X142535151Y-127591880D01*
X143000698Y-127280811D01*
X143256000Y-126898725D01*
X143511302Y-127280811D01*
X143976849Y-127591880D01*
X144526000Y-127701113D01*
X145075151Y-127591880D01*
X145540698Y-127280811D01*
X145851767Y-126815264D01*
X145961000Y-126266113D01*
X145961000Y-126209887D01*
X145851767Y-125660736D01*
X145540698Y-125195189D01*
X145075151Y-124884120D01*
X144526000Y-124774887D01*
X143976849Y-124884120D01*
X143511302Y-125195189D01*
X143256000Y-125577275D01*
X143000698Y-125195189D01*
X142535151Y-124884120D01*
X141986000Y-124774887D01*
X141436849Y-124884120D01*
X140971302Y-125195189D01*
X140660233Y-125660736D01*
X140551000Y-126209887D01*
X139899517Y-126209887D01*
X139927440Y-126072000D01*
X139927440Y-124372000D01*
X139886646Y-124155200D01*
X141568206Y-124155200D01*
X141685341Y-124272540D01*
X142044630Y-124421730D01*
X142433663Y-124422069D01*
X142793212Y-124273507D01*
X143068540Y-123998659D01*
X143217730Y-123639370D01*
X143218069Y-123250337D01*
X143069507Y-122890788D01*
X142794659Y-122615460D01*
X142435370Y-122466270D01*
X142046337Y-122465931D01*
X141686788Y-122614493D01*
X141568274Y-122732800D01*
X138474204Y-122732800D01*
X138515000Y-122634310D01*
X138515000Y-122393750D01*
X147013000Y-122393750D01*
X147013000Y-122634310D01*
X147109673Y-122867699D01*
X147288302Y-123046327D01*
X147521691Y-123143000D01*
X147812250Y-123143000D01*
X147971000Y-122984250D01*
X147971000Y-122235000D01*
X148225000Y-122235000D01*
X148225000Y-122984250D01*
X148383750Y-123143000D01*
X148674309Y-123143000D01*
X148907698Y-123046327D01*
X149086327Y-122867699D01*
X149183000Y-122634310D01*
X149183000Y-122393750D01*
X157681000Y-122393750D01*
X157681000Y-122634310D01*
X157777673Y-122867699D01*
X157956302Y-123046327D01*
X158189691Y-123143000D01*
X158480250Y-123143000D01*
X158639000Y-122984250D01*
X158639000Y-122235000D01*
X158893000Y-122235000D01*
X158893000Y-122984250D01*
X159051750Y-123143000D01*
X159342309Y-123143000D01*
X159575698Y-123046327D01*
X159754327Y-122867699D01*
X159851000Y-122634310D01*
X159851000Y-122393750D01*
X159692250Y-122235000D01*
X158893000Y-122235000D01*
X158639000Y-122235000D01*
X157839750Y-122235000D01*
X157681000Y-122393750D01*
X149183000Y-122393750D01*
X149024250Y-122235000D01*
X148225000Y-122235000D01*
X147971000Y-122235000D01*
X147171750Y-122235000D01*
X147013000Y-122393750D01*
X138515000Y-122393750D01*
X138356250Y-122235000D01*
X137557000Y-122235000D01*
X137557000Y-122255000D01*
X137303000Y-122255000D01*
X137303000Y-122235000D01*
X136503750Y-122235000D01*
X136345000Y-122393750D01*
X136345000Y-122634310D01*
X136385796Y-122732800D01*
X134406588Y-122732800D01*
X133598894Y-121925106D01*
X133368165Y-121770937D01*
X133096000Y-121716800D01*
X132080000Y-121716800D01*
X131807835Y-121770937D01*
X131577106Y-121925106D01*
X129238975Y-124263237D01*
X129215162Y-124136683D01*
X129076090Y-123920559D01*
X128863890Y-123775569D01*
X128612000Y-123724560D01*
X126912000Y-123724560D01*
X126676683Y-123768838D01*
X126460559Y-123907910D01*
X126315569Y-124120110D01*
X126264560Y-124372000D01*
X126264560Y-126072000D01*
X126308838Y-126307317D01*
X126447910Y-126523441D01*
X126660110Y-126668431D01*
X126727541Y-126682086D01*
X126682853Y-126711946D01*
X126360946Y-127193715D01*
X126247907Y-127762000D01*
X126360946Y-128330285D01*
X126495120Y-128531091D01*
X125206313Y-129819899D01*
X125353054Y-129600285D01*
X125466093Y-129032000D01*
X125353054Y-128463715D01*
X125031147Y-127981946D01*
X124701974Y-127762000D01*
X125031147Y-127542054D01*
X125353054Y-127060285D01*
X125466093Y-126492000D01*
X125353054Y-125923715D01*
X125031147Y-125441946D01*
X124701974Y-125222000D01*
X125031147Y-125002054D01*
X125353054Y-124520285D01*
X125466093Y-123952000D01*
X125353054Y-123383715D01*
X125031147Y-122901946D01*
X124663200Y-122656092D01*
X124663200Y-122393750D01*
X125677000Y-122393750D01*
X125677000Y-122634310D01*
X125773673Y-122867699D01*
X125952302Y-123046327D01*
X126185691Y-123143000D01*
X126476250Y-123143000D01*
X126635000Y-122984250D01*
X126635000Y-122235000D01*
X126889000Y-122235000D01*
X126889000Y-122984250D01*
X127047750Y-123143000D01*
X127338309Y-123143000D01*
X127571698Y-123046327D01*
X127750327Y-122867699D01*
X127847000Y-122634310D01*
X127847000Y-122393750D01*
X127688250Y-122235000D01*
X126889000Y-122235000D01*
X126635000Y-122235000D01*
X125835750Y-122235000D01*
X125677000Y-122393750D01*
X124663200Y-122393750D01*
X124663200Y-121920000D01*
X124609063Y-121647836D01*
X124557906Y-121571274D01*
X124454894Y-121417105D01*
X123139200Y-120101412D01*
X123139200Y-120099380D01*
X123595108Y-120313486D01*
X123825000Y-120192819D01*
X123825000Y-118999000D01*
X124079000Y-118999000D01*
X124079000Y-120192819D01*
X124308892Y-120313486D01*
X124833358Y-120067183D01*
X125223645Y-119638924D01*
X125393476Y-119228890D01*
X125272155Y-118999000D01*
X124079000Y-118999000D01*
X123825000Y-118999000D01*
X123805000Y-118999000D01*
X123805000Y-118745000D01*
X123825000Y-118745000D01*
X123825000Y-118725000D01*
X124079000Y-118725000D01*
X124079000Y-118745000D01*
X125272155Y-118745000D01*
X125393476Y-118515110D01*
X125223645Y-118105076D01*
X124947499Y-117802063D01*
X125037317Y-117785162D01*
X125253441Y-117646090D01*
X125398431Y-117433890D01*
X125448560Y-117186346D01*
X125448560Y-118686000D01*
X125492838Y-118921317D01*
X125631910Y-119137441D01*
X125844110Y-119282431D01*
X125929293Y-119299681D01*
X125860559Y-119343910D01*
X125715569Y-119556110D01*
X125664560Y-119808000D01*
X125664560Y-120608000D01*
X125708838Y-120843317D01*
X125847910Y-121059441D01*
X125987750Y-121154990D01*
X125952302Y-121169673D01*
X125773673Y-121348301D01*
X125677000Y-121581690D01*
X125677000Y-121822250D01*
X125835750Y-121981000D01*
X126635000Y-121981000D01*
X126635000Y-121961000D01*
X126889000Y-121961000D01*
X126889000Y-121981000D01*
X127688250Y-121981000D01*
X127774262Y-121894988D01*
X127847910Y-122009441D01*
X128060110Y-122154431D01*
X128312000Y-122205440D01*
X129212000Y-122205440D01*
X129447317Y-122161162D01*
X129663441Y-122022090D01*
X129808431Y-121809890D01*
X129851226Y-121598562D01*
X131381259Y-120068530D01*
X131867151Y-119971880D01*
X132332698Y-119660811D01*
X132429101Y-119516535D01*
X132454838Y-119653317D01*
X132593910Y-119869441D01*
X132806110Y-120014431D01*
X133058000Y-120065440D01*
X134658000Y-120065440D01*
X134893317Y-120021162D01*
X135109441Y-119882090D01*
X135254431Y-119669890D01*
X135305440Y-119418000D01*
X135305440Y-117818000D01*
X135261162Y-117582683D01*
X135122090Y-117366559D01*
X135063156Y-117326291D01*
X135081440Y-117236000D01*
X135081440Y-116275228D01*
X135641106Y-116834894D01*
X135871835Y-116989063D01*
X136144000Y-117043200D01*
X136145478Y-117043200D01*
X136116560Y-117186000D01*
X136116560Y-118686000D01*
X136160838Y-118921317D01*
X136299910Y-119137441D01*
X136512110Y-119282431D01*
X136597293Y-119299681D01*
X136528559Y-119343910D01*
X136383569Y-119556110D01*
X136332560Y-119808000D01*
X136332560Y-120608000D01*
X136376838Y-120843317D01*
X136515910Y-121059441D01*
X136655750Y-121154990D01*
X136620302Y-121169673D01*
X136441673Y-121348301D01*
X136345000Y-121581690D01*
X136345000Y-121822250D01*
X136503750Y-121981000D01*
X137303000Y-121981000D01*
X137303000Y-121961000D01*
X137557000Y-121961000D01*
X137557000Y-121981000D01*
X138356250Y-121981000D01*
X138442262Y-121894988D01*
X138515910Y-122009441D01*
X138728110Y-122154431D01*
X138980000Y-122205440D01*
X139880000Y-122205440D01*
X140115317Y-122161162D01*
X140331441Y-122022090D01*
X140476431Y-121809890D01*
X140527440Y-121558000D01*
X140527440Y-121082348D01*
X141604551Y-120005238D01*
X141986000Y-120081113D01*
X142535151Y-119971880D01*
X143000698Y-119660811D01*
X143097101Y-119516535D01*
X143122838Y-119653317D01*
X143261910Y-119869441D01*
X143474110Y-120014431D01*
X143726000Y-120065440D01*
X145326000Y-120065440D01*
X145561317Y-120021162D01*
X145777441Y-119882090D01*
X145922431Y-119669890D01*
X145973440Y-119418000D01*
X145973440Y-117818000D01*
X145929162Y-117582683D01*
X145790090Y-117366559D01*
X145731156Y-117326291D01*
X145749440Y-117236000D01*
X145749440Y-116275228D01*
X146309106Y-116834894D01*
X146539835Y-116989063D01*
X146812000Y-117043200D01*
X146813478Y-117043200D01*
X146784560Y-117186000D01*
X146784560Y-118686000D01*
X146828838Y-118921317D01*
X146967910Y-119137441D01*
X147180110Y-119282431D01*
X147265293Y-119299681D01*
X147196559Y-119343910D01*
X147051569Y-119556110D01*
X147000560Y-119808000D01*
X147000560Y-120608000D01*
X147044838Y-120843317D01*
X147183910Y-121059441D01*
X147323750Y-121154990D01*
X147288302Y-121169673D01*
X147109673Y-121348301D01*
X147013000Y-121581690D01*
X147013000Y-121822250D01*
X147171750Y-121981000D01*
X147971000Y-121981000D01*
X147971000Y-121961000D01*
X148225000Y-121961000D01*
X148225000Y-121981000D01*
X149024250Y-121981000D01*
X149110262Y-121894988D01*
X149183910Y-122009441D01*
X149396110Y-122154431D01*
X149648000Y-122205440D01*
X150548000Y-122205440D01*
X150783317Y-122161162D01*
X150999441Y-122022090D01*
X151144431Y-121809890D01*
X151187226Y-121598562D01*
X152717259Y-120068530D01*
X153203151Y-119971880D01*
X153668698Y-119660811D01*
X153765101Y-119516535D01*
X153790838Y-119653317D01*
X153929910Y-119869441D01*
X154142110Y-120014431D01*
X154394000Y-120065440D01*
X155994000Y-120065440D01*
X156229317Y-120021162D01*
X156445441Y-119882090D01*
X156590431Y-119669890D01*
X156641440Y-119418000D01*
X156641440Y-117818000D01*
X156597162Y-117582683D01*
X156458090Y-117366559D01*
X156399156Y-117326291D01*
X156417440Y-117236000D01*
X156417440Y-116275228D01*
X156977106Y-116834894D01*
X157207835Y-116989063D01*
X157480000Y-117043200D01*
X157481478Y-117043200D01*
X157452560Y-117186000D01*
X157452560Y-118686000D01*
X157496838Y-118921317D01*
X157635910Y-119137441D01*
X157848110Y-119282431D01*
X157933293Y-119299681D01*
X157864559Y-119343910D01*
X157719569Y-119556110D01*
X157668560Y-119808000D01*
X157668560Y-120608000D01*
X157712838Y-120843317D01*
X157851910Y-121059441D01*
X157991750Y-121154990D01*
X157956302Y-121169673D01*
X157777673Y-121348301D01*
X157681000Y-121581690D01*
X157681000Y-121822250D01*
X157839750Y-121981000D01*
X158639000Y-121981000D01*
X158639000Y-121961000D01*
X158893000Y-121961000D01*
X158893000Y-121981000D01*
X159692250Y-121981000D01*
X159778262Y-121894988D01*
X159851910Y-122009441D01*
X160064110Y-122154431D01*
X160316000Y-122205440D01*
X161216000Y-122205440D01*
X161451317Y-122161162D01*
X161667441Y-122022090D01*
X161812431Y-121809890D01*
X161855226Y-121598562D01*
X163385259Y-120068530D01*
X163871151Y-119971880D01*
X164336698Y-119660811D01*
X164433101Y-119516535D01*
X164458838Y-119653317D01*
X164597910Y-119869441D01*
X164810110Y-120014431D01*
X165062000Y-120065440D01*
X166662000Y-120065440D01*
X166897317Y-120021162D01*
X167113441Y-119882090D01*
X167258431Y-119669890D01*
X167309440Y-119418000D01*
X167309440Y-117818000D01*
X167265162Y-117582683D01*
X167126090Y-117366559D01*
X167067156Y-117326291D01*
X167085440Y-117236000D01*
X167085440Y-115936000D01*
X167041162Y-115700683D01*
X166902090Y-115484559D01*
X166689890Y-115339569D01*
X166438000Y-115288560D01*
X164938000Y-115288560D01*
X164702683Y-115332838D01*
X164486559Y-115471910D01*
X164341569Y-115684110D01*
X164338919Y-115697197D01*
X164202090Y-115484559D01*
X163989890Y-115339569D01*
X163738000Y-115288560D01*
X162238000Y-115288560D01*
X162079440Y-115318395D01*
X162079440Y-114486000D01*
X162035162Y-114250683D01*
X161896090Y-114034559D01*
X161683890Y-113889569D01*
X161432000Y-113838560D01*
X160132000Y-113838560D01*
X159896683Y-113882838D01*
X159765543Y-113967225D01*
X159651890Y-113889569D01*
X159400000Y-113838560D01*
X158100000Y-113838560D01*
X157864683Y-113882838D01*
X157679676Y-114001887D01*
X157441925Y-113764136D01*
X157442069Y-113598337D01*
X157293507Y-113238788D01*
X157018659Y-112963460D01*
X156993469Y-112953000D01*
X166556533Y-112953000D01*
X166939937Y-113029264D01*
X166939937Y-113029264D01*
G37*
X166939937Y-113029264D02*
X167207774Y-113208226D01*
X167386736Y-113476063D01*
X167463000Y-113859467D01*
X167463000Y-134808975D01*
X167417698Y-134763673D01*
X167184309Y-134667000D01*
X166893750Y-134667000D01*
X166735000Y-134825750D01*
X166735000Y-135575000D01*
X166755000Y-135575000D01*
X166755000Y-135829000D01*
X166735000Y-135829000D01*
X166735000Y-135849000D01*
X166481000Y-135849000D01*
X166481000Y-135829000D01*
X165681750Y-135829000D01*
X165595738Y-135915012D01*
X165522090Y-135800559D01*
X165309890Y-135655569D01*
X165058000Y-135604560D01*
X164158000Y-135604560D01*
X163922683Y-135648838D01*
X163706559Y-135787910D01*
X163561569Y-136000110D01*
X163510560Y-136252000D01*
X163510560Y-136727651D01*
X162433450Y-137804762D01*
X162052000Y-137728887D01*
X161502849Y-137838120D01*
X161037302Y-138149189D01*
X160940899Y-138293465D01*
X160915162Y-138156683D01*
X160776090Y-137940559D01*
X160563890Y-137795569D01*
X160312000Y-137744560D01*
X158712000Y-137744560D01*
X158476683Y-137788838D01*
X158260559Y-137927910D01*
X158115569Y-138140110D01*
X158064560Y-138392000D01*
X158064560Y-139992000D01*
X158108838Y-140227317D01*
X158247910Y-140443441D01*
X158306844Y-140483709D01*
X158288560Y-140574000D01*
X158288560Y-141026772D01*
X157982894Y-140721106D01*
X157752165Y-140566937D01*
X157480000Y-140512800D01*
X157253440Y-140512800D01*
X157253440Y-139124000D01*
X157209162Y-138888683D01*
X157070090Y-138672559D01*
X156857890Y-138527569D01*
X156772707Y-138510319D01*
X156841441Y-138466090D01*
X156986431Y-138253890D01*
X157037440Y-138002000D01*
X157037440Y-137202000D01*
X156993162Y-136966683D01*
X156854090Y-136750559D01*
X156714250Y-136655010D01*
X156749698Y-136640327D01*
X156928327Y-136461699D01*
X157025000Y-136228310D01*
X157025000Y-135987750D01*
X156866250Y-135829000D01*
X156067000Y-135829000D01*
X156067000Y-135849000D01*
X155813000Y-135849000D01*
X155813000Y-135829000D01*
X155013750Y-135829000D01*
X154927738Y-135915012D01*
X154854090Y-135800559D01*
X154641890Y-135655569D01*
X154390000Y-135604560D01*
X153490000Y-135604560D01*
X153254683Y-135648838D01*
X153038559Y-135787910D01*
X152893569Y-136000110D01*
X152842560Y-136252000D01*
X152842560Y-136727651D01*
X151765450Y-137804762D01*
X151384000Y-137728887D01*
X150834849Y-137838120D01*
X150369302Y-138149189D01*
X150272899Y-138293465D01*
X150247162Y-138156683D01*
X150108090Y-137940559D01*
X149895890Y-137795569D01*
X149644000Y-137744560D01*
X148044000Y-137744560D01*
X147808683Y-137788838D01*
X147592559Y-137927910D01*
X147447569Y-138140110D01*
X147396560Y-138392000D01*
X147396560Y-139992000D01*
X147440838Y-140227317D01*
X147579910Y-140443441D01*
X147638844Y-140483709D01*
X147620560Y-140574000D01*
X147620560Y-141874000D01*
X147664838Y-142109317D01*
X147803910Y-142325441D01*
X148016110Y-142470431D01*
X148268000Y-142521440D01*
X149768000Y-142521440D01*
X150003317Y-142477162D01*
X150219441Y-142338090D01*
X150364431Y-142125890D01*
X150367081Y-142112803D01*
X150503910Y-142325441D01*
X150716110Y-142470431D01*
X150968000Y-142521440D01*
X152128772Y-142521440D01*
X151864137Y-142786075D01*
X151698337Y-142785931D01*
X151338788Y-142934493D01*
X151063460Y-143209341D01*
X150914270Y-143568630D01*
X150913931Y-143957663D01*
X151062493Y-144317212D01*
X151337341Y-144592540D01*
X151362531Y-144603000D01*
X142406788Y-144603000D01*
X143038348Y-143971440D01*
X143906000Y-143971440D01*
X144141317Y-143927162D01*
X144272457Y-143842775D01*
X144386110Y-143920431D01*
X144638000Y-143971440D01*
X145938000Y-143971440D01*
X146173317Y-143927162D01*
X146389441Y-143788090D01*
X146534431Y-143575890D01*
X146585440Y-143324000D01*
X146585440Y-141824000D01*
X146541162Y-141588683D01*
X146402090Y-141372559D01*
X146189890Y-141227569D01*
X146156510Y-141220809D01*
X146297699Y-141162327D01*
X146476327Y-140983698D01*
X146573000Y-140750309D01*
X146573000Y-140159750D01*
X146414250Y-140001000D01*
X145415000Y-140001000D01*
X145415000Y-140021000D01*
X145161000Y-140021000D01*
X145161000Y-140001000D01*
X145141000Y-140001000D01*
X145141000Y-139747000D01*
X145161000Y-139747000D01*
X145161000Y-139727000D01*
X145415000Y-139727000D01*
X145415000Y-139747000D01*
X146414250Y-139747000D01*
X146573000Y-139588250D01*
X146573000Y-138997691D01*
X146476327Y-138764302D01*
X146297699Y-138585673D01*
X146109043Y-138507529D01*
X146173441Y-138466090D01*
X146318431Y-138253890D01*
X146369440Y-138002000D01*
X146369440Y-137202000D01*
X146325162Y-136966683D01*
X146186090Y-136750559D01*
X146046250Y-136655010D01*
X146081698Y-136640327D01*
X146260327Y-136461699D01*
X146357000Y-136228310D01*
X146357000Y-135987750D01*
X146198250Y-135829000D01*
X145399000Y-135829000D01*
X145399000Y-135849000D01*
X145145000Y-135849000D01*
X145145000Y-135829000D01*
X145125000Y-135829000D01*
X145125000Y-135575000D01*
X145145000Y-135575000D01*
X145145000Y-134825750D01*
X145399000Y-134825750D01*
X145399000Y-135575000D01*
X146198250Y-135575000D01*
X146357000Y-135416250D01*
X146357000Y-135175690D01*
X154855000Y-135175690D01*
X154855000Y-135416250D01*
X155013750Y-135575000D01*
X155813000Y-135575000D01*
X155813000Y-134825750D01*
X156067000Y-134825750D01*
X156067000Y-135575000D01*
X156866250Y-135575000D01*
X157025000Y-135416250D01*
X157025000Y-135175690D01*
X165523000Y-135175690D01*
X165523000Y-135416250D01*
X165681750Y-135575000D01*
X166481000Y-135575000D01*
X166481000Y-134825750D01*
X166322250Y-134667000D01*
X166031691Y-134667000D01*
X165798302Y-134763673D01*
X165619673Y-134942301D01*
X165523000Y-135175690D01*
X157025000Y-135175690D01*
X156928327Y-134942301D01*
X156749698Y-134763673D01*
X156516309Y-134667000D01*
X156225750Y-134667000D01*
X156067000Y-134825750D01*
X155813000Y-134825750D01*
X155654250Y-134667000D01*
X155363691Y-134667000D01*
X155130302Y-134763673D01*
X154951673Y-134942301D01*
X154855000Y-135175690D01*
X146357000Y-135175690D01*
X146260327Y-134942301D01*
X146081698Y-134763673D01*
X145848309Y-134667000D01*
X145557750Y-134667000D01*
X145399000Y-134825750D01*
X145145000Y-134825750D01*
X144986250Y-134667000D01*
X144695691Y-134667000D01*
X144462302Y-134763673D01*
X144296334Y-134929640D01*
X144272000Y-134924800D01*
X142240000Y-134924800D01*
X141967836Y-134978937D01*
X141967834Y-134978938D01*
X141967835Y-134978938D01*
X141737105Y-135133106D01*
X141437412Y-135432800D01*
X141387794Y-135432800D01*
X141270659Y-135315460D01*
X140911370Y-135166270D01*
X140522337Y-135165931D01*
X140162788Y-135314493D01*
X139953877Y-135523040D01*
X139746659Y-135315460D01*
X139387370Y-135166270D01*
X138998337Y-135165931D01*
X138638788Y-135314493D01*
X138363460Y-135589341D01*
X138214270Y-135948630D01*
X138213931Y-136337663D01*
X138362493Y-136697212D01*
X138637341Y-136972540D01*
X138996630Y-137121730D01*
X139164088Y-137121876D01*
X139705106Y-137662894D01*
X139935835Y-137817063D01*
X140138139Y-137857304D01*
X139701302Y-138149189D01*
X139604899Y-138293465D01*
X139579162Y-138156683D01*
X139440090Y-137940559D01*
X139227890Y-137795569D01*
X138976000Y-137744560D01*
X137376000Y-137744560D01*
X137140683Y-137788838D01*
X136924559Y-137927910D01*
X136779569Y-138140110D01*
X136728560Y-138392000D01*
X136728560Y-139992000D01*
X136772838Y-140227317D01*
X136911910Y-140443441D01*
X136970844Y-140483709D01*
X136952560Y-140574000D01*
X136952560Y-141026772D01*
X136646894Y-140721106D01*
X136416165Y-140566937D01*
X136144000Y-140512800D01*
X135905000Y-140512800D01*
X135905000Y-140159750D01*
X135746250Y-140001000D01*
X134747000Y-140001000D01*
X134747000Y-140021000D01*
X134493000Y-140021000D01*
X134493000Y-140001000D01*
X134473000Y-140001000D01*
X134473000Y-139747000D01*
X134493000Y-139747000D01*
X134493000Y-139727000D01*
X134747000Y-139727000D01*
X134747000Y-139747000D01*
X135746250Y-139747000D01*
X135905000Y-139588250D01*
X135905000Y-138997691D01*
X135808327Y-138764302D01*
X135629699Y-138585673D01*
X135441043Y-138507529D01*
X135505441Y-138466090D01*
X135650431Y-138253890D01*
X135701440Y-138002000D01*
X135701440Y-137202000D01*
X135657162Y-136966683D01*
X135518090Y-136750559D01*
X135378250Y-136655010D01*
X135413698Y-136640327D01*
X135592327Y-136461699D01*
X135689000Y-136228310D01*
X135689000Y-135987750D01*
X135530250Y-135829000D01*
X134731000Y-135829000D01*
X134731000Y-135849000D01*
X134477000Y-135849000D01*
X134477000Y-135829000D01*
X134457000Y-135829000D01*
X134457000Y-135575000D01*
X134477000Y-135575000D01*
X134477000Y-134825750D01*
X134731000Y-134825750D01*
X134731000Y-135575000D01*
X135530250Y-135575000D01*
X135689000Y-135416250D01*
X135689000Y-135175690D01*
X135592327Y-134942301D01*
X135413698Y-134763673D01*
X135180309Y-134667000D01*
X134889750Y-134667000D01*
X134731000Y-134825750D01*
X134477000Y-134825750D01*
X134318250Y-134667000D01*
X134027691Y-134667000D01*
X133794302Y-134763673D01*
X133765882Y-134792093D01*
X133059228Y-134085440D01*
X134454000Y-134085440D01*
X134689317Y-134041162D01*
X134905441Y-133902090D01*
X135050431Y-133689890D01*
X135101440Y-133438000D01*
X135101440Y-131738000D01*
X135064916Y-131543887D01*
X136741000Y-131543887D01*
X136741000Y-131600113D01*
X136850233Y-132149264D01*
X137161302Y-132614811D01*
X137626849Y-132925880D01*
X138176000Y-133035113D01*
X138725151Y-132925880D01*
X139190698Y-132614811D01*
X139446000Y-132232725D01*
X139701302Y-132614811D01*
X140166849Y-132925880D01*
X140716000Y-133035113D01*
X141265151Y-132925880D01*
X141730698Y-132614811D01*
X142041767Y-132149264D01*
X142151000Y-131600113D01*
X142151000Y-131543887D01*
X142041767Y-130994736D01*
X141730698Y-130529189D01*
X141265151Y-130218120D01*
X140716000Y-130108887D01*
X140166849Y-130218120D01*
X139701302Y-130529189D01*
X139446000Y-130911275D01*
X139190698Y-130529189D01*
X138725151Y-130218120D01*
X138176000Y-130108887D01*
X137626849Y-130218120D01*
X137161302Y-130529189D01*
X136850233Y-130994736D01*
X136741000Y-131543887D01*
X135064916Y-131543887D01*
X135057162Y-131502683D01*
X134918090Y-131286559D01*
X134705890Y-131141569D01*
X134638459Y-131127914D01*
X134683147Y-131098054D01*
X135005054Y-130616285D01*
X135118093Y-130048000D01*
X142757907Y-130048000D01*
X142870946Y-130616285D01*
X143192853Y-131098054D01*
X143234452Y-131125850D01*
X143186683Y-131134838D01*
X142970559Y-131273910D01*
X142825569Y-131486110D01*
X142774560Y-131738000D01*
X142774560Y-133438000D01*
X142818838Y-133673317D01*
X142957910Y-133889441D01*
X143170110Y-134034431D01*
X143422000Y-134085440D01*
X145122000Y-134085440D01*
X145357317Y-134041162D01*
X145573441Y-133902090D01*
X145718431Y-133689890D01*
X145769440Y-133438000D01*
X145769440Y-131738000D01*
X145732916Y-131543887D01*
X147409000Y-131543887D01*
X147409000Y-131600113D01*
X147518233Y-132149264D01*
X147829302Y-132614811D01*
X148294849Y-132925880D01*
X148844000Y-133035113D01*
X149393151Y-132925880D01*
X149858698Y-132614811D01*
X150114000Y-132232725D01*
X150369302Y-132614811D01*
X150834849Y-132925880D01*
X151384000Y-133035113D01*
X151933151Y-132925880D01*
X152398698Y-132614811D01*
X152709767Y-132149264D01*
X152819000Y-131600113D01*
X152819000Y-131543887D01*
X152709767Y-130994736D01*
X152398698Y-130529189D01*
X151933151Y-130218120D01*
X151384000Y-130108887D01*
X150834849Y-130218120D01*
X150369302Y-130529189D01*
X150114000Y-130911275D01*
X149858698Y-130529189D01*
X149393151Y-130218120D01*
X148844000Y-130108887D01*
X148294849Y-130218120D01*
X147829302Y-130529189D01*
X147518233Y-130994736D01*
X147409000Y-131543887D01*
X145732916Y-131543887D01*
X145725162Y-131502683D01*
X145586090Y-131286559D01*
X145373890Y-131141569D01*
X145306459Y-131127914D01*
X145351147Y-131098054D01*
X145673054Y-130616285D01*
X145786093Y-130048000D01*
X153425907Y-130048000D01*
X153538946Y-130616285D01*
X153860853Y-131098054D01*
X153902452Y-131125850D01*
X153854683Y-131134838D01*
X153638559Y-131273910D01*
X153493569Y-131486110D01*
X153442560Y-131738000D01*
X153442560Y-133438000D01*
X153486838Y-133673317D01*
X153625910Y-133889441D01*
X153838110Y-134034431D01*
X154090000Y-134085440D01*
X155790000Y-134085440D01*
X156025317Y-134041162D01*
X156241441Y-133902090D01*
X156386431Y-133689890D01*
X156437440Y-133438000D01*
X156437440Y-131738000D01*
X156400916Y-131543887D01*
X158077000Y-131543887D01*
X158077000Y-131600113D01*
X158186233Y-132149264D01*
X158497302Y-132614811D01*
X158962849Y-132925880D01*
X159512000Y-133035113D01*
X160061151Y-132925880D01*
X160526698Y-132614811D01*
X160782000Y-132232725D01*
X161037302Y-132614811D01*
X161502849Y-132925880D01*
X162052000Y-133035113D01*
X162601151Y-132925880D01*
X163066698Y-132614811D01*
X163377767Y-132149264D01*
X163487000Y-131600113D01*
X163487000Y-131543887D01*
X163377767Y-130994736D01*
X163066698Y-130529189D01*
X162601151Y-130218120D01*
X162052000Y-130108887D01*
X161502849Y-130218120D01*
X161037302Y-130529189D01*
X160782000Y-130911275D01*
X160526698Y-130529189D01*
X160061151Y-130218120D01*
X159512000Y-130108887D01*
X158962849Y-130218120D01*
X158497302Y-130529189D01*
X158186233Y-130994736D01*
X158077000Y-131543887D01*
X156400916Y-131543887D01*
X156393162Y-131502683D01*
X156254090Y-131286559D01*
X156041890Y-131141569D01*
X155974459Y-131127914D01*
X156019147Y-131098054D01*
X156341054Y-130616285D01*
X156454093Y-130048000D01*
X164093907Y-130048000D01*
X164206946Y-130616285D01*
X164528853Y-131098054D01*
X164570452Y-131125850D01*
X164522683Y-131134838D01*
X164306559Y-131273910D01*
X164161569Y-131486110D01*
X164110560Y-131738000D01*
X164110560Y-133438000D01*
X164154838Y-133673317D01*
X164293910Y-133889441D01*
X164506110Y-134034431D01*
X164758000Y-134085440D01*
X166458000Y-134085440D01*
X166693317Y-134041162D01*
X166909441Y-133902090D01*
X167054431Y-133689890D01*
X167105440Y-133438000D01*
X167105440Y-131738000D01*
X167061162Y-131502683D01*
X166922090Y-131286559D01*
X166709890Y-131141569D01*
X166642459Y-131127914D01*
X166687147Y-131098054D01*
X167009054Y-130616285D01*
X167122093Y-130048000D01*
X167009054Y-129479715D01*
X166687147Y-128997946D01*
X166205378Y-128676039D01*
X165637093Y-128563000D01*
X165578907Y-128563000D01*
X165010622Y-128676039D01*
X164528853Y-128997946D01*
X164206946Y-129479715D01*
X164093907Y-130048000D01*
X156454093Y-130048000D01*
X156341054Y-129479715D01*
X156019147Y-128997946D01*
X155537378Y-128676039D01*
X154969093Y-128563000D01*
X154910907Y-128563000D01*
X154342622Y-128676039D01*
X153860853Y-128997946D01*
X153538946Y-129479715D01*
X153425907Y-130048000D01*
X145786093Y-130048000D01*
X145673054Y-129479715D01*
X145351147Y-128997946D01*
X144869378Y-128676039D01*
X144301093Y-128563000D01*
X144242907Y-128563000D01*
X143674622Y-128676039D01*
X143192853Y-128997946D01*
X142870946Y-129479715D01*
X142757907Y-130048000D01*
X135118093Y-130048000D01*
X135005054Y-129479715D01*
X134683147Y-128997946D01*
X134201378Y-128676039D01*
X133633093Y-128563000D01*
X133574907Y-128563000D01*
X133006622Y-128676039D01*
X132791200Y-128819979D01*
X132791200Y-128310588D01*
X133090894Y-128010895D01*
X133245062Y-127780165D01*
X133245063Y-127780164D01*
X133285605Y-127576349D01*
X133308849Y-127591880D01*
X133858000Y-127701113D01*
X134407151Y-127591880D01*
X134872698Y-127280811D01*
X135183767Y-126815264D01*
X135293000Y-126266113D01*
X135293000Y-126209887D01*
X135183767Y-125660736D01*
X134872698Y-125195189D01*
X134407151Y-124884120D01*
X133858000Y-124774887D01*
X133308849Y-124884120D01*
X133299200Y-124890567D01*
X133299200Y-124115794D01*
X133416540Y-123998659D01*
X133488228Y-123826016D01*
X133609106Y-123946894D01*
X133839835Y-124101063D01*
X134112000Y-124155200D01*
X136976463Y-124155200D01*
X136932560Y-124372000D01*
X136932560Y-126072000D01*
X136976838Y-126307317D01*
X137115910Y-126523441D01*
X137328110Y-126668431D01*
X137395541Y-126682086D01*
X137350853Y-126711946D01*
X137028946Y-127193715D01*
X136915907Y-127762000D01*
X137028946Y-128330285D01*
X137350853Y-128812054D01*
X137832622Y-129133961D01*
X138400907Y-129247000D01*
X138459093Y-129247000D01*
X139027378Y-129133961D01*
X139509147Y-128812054D01*
X139831054Y-128330285D01*
X139944093Y-127762000D01*
X147583907Y-127762000D01*
X147696946Y-128330285D01*
X148018853Y-128812054D01*
X148500622Y-129133961D01*
X149068907Y-129247000D01*
X149127093Y-129247000D01*
X149695378Y-129133961D01*
X150177147Y-128812054D01*
X150499054Y-128330285D01*
X150612093Y-127762000D01*
X158251907Y-127762000D01*
X158364946Y-128330285D01*
X158686853Y-128812054D01*
X159168622Y-129133961D01*
X159736907Y-129247000D01*
X159795093Y-129247000D01*
X160363378Y-129133961D01*
X160845147Y-128812054D01*
X161167054Y-128330285D01*
X161280093Y-127762000D01*
X161167054Y-127193715D01*
X160845147Y-126711946D01*
X160803548Y-126684150D01*
X160851317Y-126675162D01*
X161067441Y-126536090D01*
X161212431Y-126323890D01*
X161235517Y-126209887D01*
X161887000Y-126209887D01*
X161887000Y-126266113D01*
X161996233Y-126815264D01*
X162307302Y-127280811D01*
X162772849Y-127591880D01*
X163322000Y-127701113D01*
X163871151Y-127591880D01*
X164336698Y-127280811D01*
X164592000Y-126898725D01*
X164847302Y-127280811D01*
X165312849Y-127591880D01*
X165862000Y-127701113D01*
X166411151Y-127591880D01*
X166876698Y-127280811D01*
X167187767Y-126815264D01*
X167297000Y-126266113D01*
X167297000Y-126209887D01*
X167187767Y-125660736D01*
X166876698Y-125195189D01*
X166411151Y-124884120D01*
X165862000Y-124774887D01*
X165312849Y-124884120D01*
X164847302Y-125195189D01*
X164592000Y-125577275D01*
X164336698Y-125195189D01*
X163871151Y-124884120D01*
X163322000Y-124774887D01*
X162772849Y-124884120D01*
X162307302Y-125195189D01*
X161996233Y-125660736D01*
X161887000Y-126209887D01*
X161235517Y-126209887D01*
X161263440Y-126072000D01*
X161263440Y-124372000D01*
X161219162Y-124136683D01*
X161080090Y-123920559D01*
X160867890Y-123775569D01*
X160616000Y-123724560D01*
X158916000Y-123724560D01*
X158680683Y-123768838D01*
X158464559Y-123907910D01*
X158319569Y-124120110D01*
X158268560Y-124372000D01*
X158268560Y-126072000D01*
X158312838Y-126307317D01*
X158451910Y-126523441D01*
X158664110Y-126668431D01*
X158731541Y-126682086D01*
X158686853Y-126711946D01*
X158364946Y-127193715D01*
X158251907Y-127762000D01*
X150612093Y-127762000D01*
X150499054Y-127193715D01*
X150177147Y-126711946D01*
X150135548Y-126684150D01*
X150183317Y-126675162D01*
X150399441Y-126536090D01*
X150544431Y-126323890D01*
X150567517Y-126209887D01*
X151219000Y-126209887D01*
X151219000Y-126266113D01*
X151328233Y-126815264D01*
X151639302Y-127280811D01*
X152104849Y-127591880D01*
X152654000Y-127701113D01*
X153203151Y-127591880D01*
X153668698Y-127280811D01*
X153924000Y-126898725D01*
X154179302Y-127280811D01*
X154644849Y-127591880D01*
X155194000Y-127701113D01*
X155743151Y-127591880D01*
X156208698Y-127280811D01*
X156519767Y-126815264D01*
X156629000Y-126266113D01*
X156629000Y-126209887D01*
X156519767Y-125660736D01*
X156208698Y-125195189D01*
X155743151Y-124884120D01*
X155194000Y-124774887D01*
X154644849Y-124884120D01*
X154179302Y-125195189D01*
X153924000Y-125577275D01*
X153668698Y-125195189D01*
X153203151Y-124884120D01*
X152654000Y-124774887D01*
X152104849Y-124884120D01*
X151639302Y-125195189D01*
X151328233Y-125660736D01*
X151219000Y-126209887D01*
X150567517Y-126209887D01*
X150595440Y-126072000D01*
X150595440Y-124372000D01*
X150551162Y-124136683D01*
X150412090Y-123920559D01*
X150199890Y-123775569D01*
X149948000Y-123724560D01*
X148248000Y-123724560D01*
X148012683Y-123768838D01*
X147796559Y-123907910D01*
X147651569Y-124120110D01*
X147600560Y-124372000D01*
X147600560Y-126072000D01*
X147644838Y-126307317D01*
X147783910Y-126523441D01*
X147996110Y-126668431D01*
X148063541Y-126682086D01*
X148018853Y-126711946D01*
X147696946Y-127193715D01*
X147583907Y-127762000D01*
X139944093Y-127762000D01*
X139831054Y-127193715D01*
X139509147Y-126711946D01*
X139467548Y-126684150D01*
X139515317Y-126675162D01*
X139731441Y-126536090D01*
X139876431Y-126323890D01*
X139899517Y-126209887D01*
X140551000Y-126209887D01*
X140551000Y-126266113D01*
X140660233Y-126815264D01*
X140971302Y-127280811D01*
X141436849Y-127591880D01*
X141986000Y-127701113D01*
X142535151Y-127591880D01*
X143000698Y-127280811D01*
X143256000Y-126898725D01*
X143511302Y-127280811D01*
X143976849Y-127591880D01*
X144526000Y-127701113D01*
X145075151Y-127591880D01*
X145540698Y-127280811D01*
X145851767Y-126815264D01*
X145961000Y-126266113D01*
X145961000Y-126209887D01*
X145851767Y-125660736D01*
X145540698Y-125195189D01*
X145075151Y-124884120D01*
X144526000Y-124774887D01*
X143976849Y-124884120D01*
X143511302Y-125195189D01*
X143256000Y-125577275D01*
X143000698Y-125195189D01*
X142535151Y-124884120D01*
X141986000Y-124774887D01*
X141436849Y-124884120D01*
X140971302Y-125195189D01*
X140660233Y-125660736D01*
X140551000Y-126209887D01*
X139899517Y-126209887D01*
X139927440Y-126072000D01*
X139927440Y-124372000D01*
X139886646Y-124155200D01*
X141568206Y-124155200D01*
X141685341Y-124272540D01*
X142044630Y-124421730D01*
X142433663Y-124422069D01*
X142793212Y-124273507D01*
X143068540Y-123998659D01*
X143217730Y-123639370D01*
X143218069Y-123250337D01*
X143069507Y-122890788D01*
X142794659Y-122615460D01*
X142435370Y-122466270D01*
X142046337Y-122465931D01*
X141686788Y-122614493D01*
X141568274Y-122732800D01*
X138474204Y-122732800D01*
X138515000Y-122634310D01*
X138515000Y-122393750D01*
X147013000Y-122393750D01*
X147013000Y-122634310D01*
X147109673Y-122867699D01*
X147288302Y-123046327D01*
X147521691Y-123143000D01*
X147812250Y-123143000D01*
X147971000Y-122984250D01*
X147971000Y-122235000D01*
X148225000Y-122235000D01*
X148225000Y-122984250D01*
X148383750Y-123143000D01*
X148674309Y-123143000D01*
X148907698Y-123046327D01*
X149086327Y-122867699D01*
X149183000Y-122634310D01*
X149183000Y-122393750D01*
X157681000Y-122393750D01*
X157681000Y-122634310D01*
X157777673Y-122867699D01*
X157956302Y-123046327D01*
X158189691Y-123143000D01*
X158480250Y-123143000D01*
X158639000Y-122984250D01*
X158639000Y-122235000D01*
X158893000Y-122235000D01*
X158893000Y-122984250D01*
X159051750Y-123143000D01*
X159342309Y-123143000D01*
X159575698Y-123046327D01*
X159754327Y-122867699D01*
X159851000Y-122634310D01*
X159851000Y-122393750D01*
X159692250Y-122235000D01*
X158893000Y-122235000D01*
X158639000Y-122235000D01*
X157839750Y-122235000D01*
X157681000Y-122393750D01*
X149183000Y-122393750D01*
X149024250Y-122235000D01*
X148225000Y-122235000D01*
X147971000Y-122235000D01*
X147171750Y-122235000D01*
X147013000Y-122393750D01*
X138515000Y-122393750D01*
X138356250Y-122235000D01*
X137557000Y-122235000D01*
X137557000Y-122255000D01*
X137303000Y-122255000D01*
X137303000Y-122235000D01*
X136503750Y-122235000D01*
X136345000Y-122393750D01*
X136345000Y-122634310D01*
X136385796Y-122732800D01*
X134406588Y-122732800D01*
X133598894Y-121925106D01*
X133368165Y-121770937D01*
X133096000Y-121716800D01*
X132080000Y-121716800D01*
X131807835Y-121770937D01*
X131577106Y-121925106D01*
X129238975Y-124263237D01*
X129215162Y-124136683D01*
X129076090Y-123920559D01*
X128863890Y-123775569D01*
X128612000Y-123724560D01*
X126912000Y-123724560D01*
X126676683Y-123768838D01*
X126460559Y-123907910D01*
X126315569Y-124120110D01*
X126264560Y-124372000D01*
X126264560Y-126072000D01*
X126308838Y-126307317D01*
X126447910Y-126523441D01*
X126660110Y-126668431D01*
X126727541Y-126682086D01*
X126682853Y-126711946D01*
X126360946Y-127193715D01*
X126247907Y-127762000D01*
X126360946Y-128330285D01*
X126495120Y-128531091D01*
X125206313Y-129819899D01*
X125353054Y-129600285D01*
X125466093Y-129032000D01*
X125353054Y-128463715D01*
X125031147Y-127981946D01*
X124701974Y-127762000D01*
X125031147Y-127542054D01*
X125353054Y-127060285D01*
X125466093Y-126492000D01*
X125353054Y-125923715D01*
X125031147Y-125441946D01*
X124701974Y-125222000D01*
X125031147Y-125002054D01*
X125353054Y-124520285D01*
X125466093Y-123952000D01*
X125353054Y-123383715D01*
X125031147Y-122901946D01*
X124663200Y-122656092D01*
X124663200Y-122393750D01*
X125677000Y-122393750D01*
X125677000Y-122634310D01*
X125773673Y-122867699D01*
X125952302Y-123046327D01*
X126185691Y-123143000D01*
X126476250Y-123143000D01*
X126635000Y-122984250D01*
X126635000Y-122235000D01*
X126889000Y-122235000D01*
X126889000Y-122984250D01*
X127047750Y-123143000D01*
X127338309Y-123143000D01*
X127571698Y-123046327D01*
X127750327Y-122867699D01*
X127847000Y-122634310D01*
X127847000Y-122393750D01*
X127688250Y-122235000D01*
X126889000Y-122235000D01*
X126635000Y-122235000D01*
X125835750Y-122235000D01*
X125677000Y-122393750D01*
X124663200Y-122393750D01*
X124663200Y-121920000D01*
X124609063Y-121647836D01*
X124557906Y-121571274D01*
X124454894Y-121417105D01*
X123139200Y-120101412D01*
X123139200Y-120099380D01*
X123595108Y-120313486D01*
X123825000Y-120192819D01*
X123825000Y-118999000D01*
X124079000Y-118999000D01*
X124079000Y-120192819D01*
X124308892Y-120313486D01*
X124833358Y-120067183D01*
X125223645Y-119638924D01*
X125393476Y-119228890D01*
X125272155Y-118999000D01*
X124079000Y-118999000D01*
X123825000Y-118999000D01*
X123805000Y-118999000D01*
X123805000Y-118745000D01*
X123825000Y-118745000D01*
X123825000Y-118725000D01*
X124079000Y-118725000D01*
X124079000Y-118745000D01*
X125272155Y-118745000D01*
X125393476Y-118515110D01*
X125223645Y-118105076D01*
X124947499Y-117802063D01*
X125037317Y-117785162D01*
X125253441Y-117646090D01*
X125398431Y-117433890D01*
X125448560Y-117186346D01*
X125448560Y-118686000D01*
X125492838Y-118921317D01*
X125631910Y-119137441D01*
X125844110Y-119282431D01*
X125929293Y-119299681D01*
X125860559Y-119343910D01*
X125715569Y-119556110D01*
X125664560Y-119808000D01*
X125664560Y-120608000D01*
X125708838Y-120843317D01*
X125847910Y-121059441D01*
X125987750Y-121154990D01*
X125952302Y-121169673D01*
X125773673Y-121348301D01*
X125677000Y-121581690D01*
X125677000Y-121822250D01*
X125835750Y-121981000D01*
X126635000Y-121981000D01*
X126635000Y-121961000D01*
X126889000Y-121961000D01*
X126889000Y-121981000D01*
X127688250Y-121981000D01*
X127774262Y-121894988D01*
X127847910Y-122009441D01*
X128060110Y-122154431D01*
X128312000Y-122205440D01*
X129212000Y-122205440D01*
X129447317Y-122161162D01*
X129663441Y-122022090D01*
X129808431Y-121809890D01*
X129851226Y-121598562D01*
X131381259Y-120068530D01*
X131867151Y-119971880D01*
X132332698Y-119660811D01*
X132429101Y-119516535D01*
X132454838Y-119653317D01*
X132593910Y-119869441D01*
X132806110Y-120014431D01*
X133058000Y-120065440D01*
X134658000Y-120065440D01*
X134893317Y-120021162D01*
X135109441Y-119882090D01*
X135254431Y-119669890D01*
X135305440Y-119418000D01*
X135305440Y-117818000D01*
X135261162Y-117582683D01*
X135122090Y-117366559D01*
X135063156Y-117326291D01*
X135081440Y-117236000D01*
X135081440Y-116275228D01*
X135641106Y-116834894D01*
X135871835Y-116989063D01*
X136144000Y-117043200D01*
X136145478Y-117043200D01*
X136116560Y-117186000D01*
X136116560Y-118686000D01*
X136160838Y-118921317D01*
X136299910Y-119137441D01*
X136512110Y-119282431D01*
X136597293Y-119299681D01*
X136528559Y-119343910D01*
X136383569Y-119556110D01*
X136332560Y-119808000D01*
X136332560Y-120608000D01*
X136376838Y-120843317D01*
X136515910Y-121059441D01*
X136655750Y-121154990D01*
X136620302Y-121169673D01*
X136441673Y-121348301D01*
X136345000Y-121581690D01*
X136345000Y-121822250D01*
X136503750Y-121981000D01*
X137303000Y-121981000D01*
X137303000Y-121961000D01*
X137557000Y-121961000D01*
X137557000Y-121981000D01*
X138356250Y-121981000D01*
X138442262Y-121894988D01*
X138515910Y-122009441D01*
X138728110Y-122154431D01*
X138980000Y-122205440D01*
X139880000Y-122205440D01*
X140115317Y-122161162D01*
X140331441Y-122022090D01*
X140476431Y-121809890D01*
X140527440Y-121558000D01*
X140527440Y-121082348D01*
X141604551Y-120005238D01*
X141986000Y-120081113D01*
X142535151Y-119971880D01*
X143000698Y-119660811D01*
X143097101Y-119516535D01*
X143122838Y-119653317D01*
X143261910Y-119869441D01*
X143474110Y-120014431D01*
X143726000Y-120065440D01*
X145326000Y-120065440D01*
X145561317Y-120021162D01*
X145777441Y-119882090D01*
X145922431Y-119669890D01*
X145973440Y-119418000D01*
X145973440Y-117818000D01*
X145929162Y-117582683D01*
X145790090Y-117366559D01*
X145731156Y-117326291D01*
X145749440Y-117236000D01*
X145749440Y-116275228D01*
X146309106Y-116834894D01*
X146539835Y-116989063D01*
X146812000Y-117043200D01*
X146813478Y-117043200D01*
X146784560Y-117186000D01*
X146784560Y-118686000D01*
X146828838Y-118921317D01*
X146967910Y-119137441D01*
X147180110Y-119282431D01*
X147265293Y-119299681D01*
X147196559Y-119343910D01*
X147051569Y-119556110D01*
X147000560Y-119808000D01*
X147000560Y-120608000D01*
X147044838Y-120843317D01*
X147183910Y-121059441D01*
X147323750Y-121154990D01*
X147288302Y-121169673D01*
X147109673Y-121348301D01*
X147013000Y-121581690D01*
X147013000Y-121822250D01*
X147171750Y-121981000D01*
X147971000Y-121981000D01*
X147971000Y-121961000D01*
X148225000Y-121961000D01*
X148225000Y-121981000D01*
X149024250Y-121981000D01*
X149110262Y-121894988D01*
X149183910Y-122009441D01*
X149396110Y-122154431D01*
X149648000Y-122205440D01*
X150548000Y-122205440D01*
X150783317Y-122161162D01*
X150999441Y-122022090D01*
X151144431Y-121809890D01*
X151187226Y-121598562D01*
X152717259Y-120068530D01*
X153203151Y-119971880D01*
X153668698Y-119660811D01*
X153765101Y-119516535D01*
X153790838Y-119653317D01*
X153929910Y-119869441D01*
X154142110Y-120014431D01*
X154394000Y-120065440D01*
X155994000Y-120065440D01*
X156229317Y-120021162D01*
X156445441Y-119882090D01*
X156590431Y-119669890D01*
X156641440Y-119418000D01*
X156641440Y-117818000D01*
X156597162Y-117582683D01*
X156458090Y-117366559D01*
X156399156Y-117326291D01*
X156417440Y-117236000D01*
X156417440Y-116275228D01*
X156977106Y-116834894D01*
X157207835Y-116989063D01*
X157480000Y-117043200D01*
X157481478Y-117043200D01*
X157452560Y-117186000D01*
X157452560Y-118686000D01*
X157496838Y-118921317D01*
X157635910Y-119137441D01*
X157848110Y-119282431D01*
X157933293Y-119299681D01*
X157864559Y-119343910D01*
X157719569Y-119556110D01*
X157668560Y-119808000D01*
X157668560Y-120608000D01*
X157712838Y-120843317D01*
X157851910Y-121059441D01*
X157991750Y-121154990D01*
X157956302Y-121169673D01*
X157777673Y-121348301D01*
X157681000Y-121581690D01*
X157681000Y-121822250D01*
X157839750Y-121981000D01*
X158639000Y-121981000D01*
X158639000Y-121961000D01*
X158893000Y-121961000D01*
X158893000Y-121981000D01*
X159692250Y-121981000D01*
X159778262Y-121894988D01*
X159851910Y-122009441D01*
X160064110Y-122154431D01*
X160316000Y-122205440D01*
X161216000Y-122205440D01*
X161451317Y-122161162D01*
X161667441Y-122022090D01*
X161812431Y-121809890D01*
X161855226Y-121598562D01*
X163385259Y-120068530D01*
X163871151Y-119971880D01*
X164336698Y-119660811D01*
X164433101Y-119516535D01*
X164458838Y-119653317D01*
X164597910Y-119869441D01*
X164810110Y-120014431D01*
X165062000Y-120065440D01*
X166662000Y-120065440D01*
X166897317Y-120021162D01*
X167113441Y-119882090D01*
X167258431Y-119669890D01*
X167309440Y-119418000D01*
X167309440Y-117818000D01*
X167265162Y-117582683D01*
X167126090Y-117366559D01*
X167067156Y-117326291D01*
X167085440Y-117236000D01*
X167085440Y-115936000D01*
X167041162Y-115700683D01*
X166902090Y-115484559D01*
X166689890Y-115339569D01*
X166438000Y-115288560D01*
X164938000Y-115288560D01*
X164702683Y-115332838D01*
X164486559Y-115471910D01*
X164341569Y-115684110D01*
X164338919Y-115697197D01*
X164202090Y-115484559D01*
X163989890Y-115339569D01*
X163738000Y-115288560D01*
X162238000Y-115288560D01*
X162079440Y-115318395D01*
X162079440Y-114486000D01*
X162035162Y-114250683D01*
X161896090Y-114034559D01*
X161683890Y-113889569D01*
X161432000Y-113838560D01*
X160132000Y-113838560D01*
X159896683Y-113882838D01*
X159765543Y-113967225D01*
X159651890Y-113889569D01*
X159400000Y-113838560D01*
X158100000Y-113838560D01*
X157864683Y-113882838D01*
X157679676Y-114001887D01*
X157441925Y-113764136D01*
X157442069Y-113598337D01*
X157293507Y-113238788D01*
X157018659Y-112963460D01*
X156993469Y-112953000D01*
X166556533Y-112953000D01*
X166939937Y-113029264D01*
G36*
X154051000Y-139747000D02*
X154071000Y-139747000D01*
X154071000Y-140001000D01*
X154051000Y-140001000D01*
X154051000Y-140021000D01*
X153797000Y-140021000D01*
X153797000Y-140001000D01*
X153777000Y-140001000D01*
X153777000Y-139747000D01*
X153797000Y-139747000D01*
X153797000Y-139727000D01*
X154051000Y-139727000D01*
X154051000Y-139747000D01*
X154051000Y-139747000D01*
G37*
X154051000Y-139747000D02*
X154071000Y-139747000D01*
X154071000Y-140001000D01*
X154051000Y-140001000D01*
X154051000Y-140021000D01*
X153797000Y-140021000D01*
X153797000Y-140001000D01*
X153777000Y-140001000D01*
X153777000Y-139747000D01*
X153797000Y-139747000D01*
X153797000Y-139727000D01*
X154051000Y-139727000D01*
X154051000Y-139747000D01*
G36*
X165510560Y-138002000D02*
X165554838Y-138237317D01*
X165693910Y-138453441D01*
X165780918Y-138512891D01*
X165738683Y-138520838D01*
X165615883Y-138599857D01*
X165601699Y-138585673D01*
X165368310Y-138489000D01*
X164877750Y-138489000D01*
X164719000Y-138647750D01*
X164719000Y-139747000D01*
X164739000Y-139747000D01*
X164739000Y-140001000D01*
X164719000Y-140001000D01*
X164719000Y-140021000D01*
X164465000Y-140021000D01*
X164465000Y-140001000D01*
X164445000Y-140001000D01*
X164445000Y-139747000D01*
X164465000Y-139747000D01*
X164465000Y-138647750D01*
X164306250Y-138489000D01*
X163815690Y-138489000D01*
X163721967Y-138527821D01*
X164550349Y-137699440D01*
X165058000Y-137699440D01*
X165293317Y-137655162D01*
X165509441Y-137516090D01*
X165510560Y-137514452D01*
X165510560Y-138002000D01*
X165510560Y-138002000D01*
G37*
X165510560Y-138002000D02*
X165554838Y-138237317D01*
X165693910Y-138453441D01*
X165780918Y-138512891D01*
X165738683Y-138520838D01*
X165615883Y-138599857D01*
X165601699Y-138585673D01*
X165368310Y-138489000D01*
X164877750Y-138489000D01*
X164719000Y-138647750D01*
X164719000Y-139747000D01*
X164739000Y-139747000D01*
X164739000Y-140001000D01*
X164719000Y-140001000D01*
X164719000Y-140021000D01*
X164465000Y-140021000D01*
X164465000Y-140001000D01*
X164445000Y-140001000D01*
X164445000Y-139747000D01*
X164465000Y-139747000D01*
X164465000Y-138647750D01*
X164306250Y-138489000D01*
X163815690Y-138489000D01*
X163721967Y-138527821D01*
X164550349Y-137699440D01*
X165058000Y-137699440D01*
X165293317Y-137655162D01*
X165509441Y-137516090D01*
X165510560Y-137514452D01*
X165510560Y-138002000D01*
G36*
X142357910Y-137503441D02*
X142570110Y-137648431D01*
X142822000Y-137699440D01*
X143722000Y-137699440D01*
X143957317Y-137655162D01*
X144147192Y-137532980D01*
X144174560Y-137560348D01*
X144174560Y-138002000D01*
X144218838Y-138237317D01*
X144357910Y-138453441D01*
X144448350Y-138515236D01*
X144278301Y-138585673D01*
X144263943Y-138600032D01*
X144157890Y-138527569D01*
X143906000Y-138476560D01*
X142606000Y-138476560D01*
X142370683Y-138520838D01*
X142154559Y-138659910D01*
X142074159Y-138777580D01*
X142041767Y-138614736D01*
X141730698Y-138149189D01*
X141293861Y-137857304D01*
X141496165Y-137817063D01*
X141726894Y-137662894D01*
X142026589Y-137363200D01*
X142267667Y-137363200D01*
X142357910Y-137503441D01*
X142357910Y-137503441D01*
G37*
X142357910Y-137503441D02*
X142570110Y-137648431D01*
X142822000Y-137699440D01*
X143722000Y-137699440D01*
X143957317Y-137655162D01*
X144147192Y-137532980D01*
X144174560Y-137560348D01*
X144174560Y-138002000D01*
X144218838Y-138237317D01*
X144357910Y-138453441D01*
X144448350Y-138515236D01*
X144278301Y-138585673D01*
X144263943Y-138600032D01*
X144157890Y-138527569D01*
X143906000Y-138476560D01*
X142606000Y-138476560D01*
X142370683Y-138520838D01*
X142154559Y-138659910D01*
X142074159Y-138777580D01*
X142041767Y-138614736D01*
X141730698Y-138149189D01*
X141293861Y-137857304D01*
X141496165Y-137817063D01*
X141726894Y-137662894D01*
X142026589Y-137363200D01*
X142267667Y-137363200D01*
X142357910Y-137503441D01*
G36*
X128905000Y-117809000D02*
X128925000Y-117809000D01*
X128925000Y-118063000D01*
X128905000Y-118063000D01*
X128905000Y-119162250D01*
X129063750Y-119321000D01*
X129554310Y-119321000D01*
X129787699Y-119224327D01*
X129963120Y-119048905D01*
X129992233Y-119195264D01*
X130092655Y-119345556D01*
X129308176Y-120130036D01*
X129212000Y-120110560D01*
X128312000Y-120110560D01*
X128076683Y-120154838D01*
X127860559Y-120293910D01*
X127859440Y-120295548D01*
X127859440Y-119808000D01*
X127815162Y-119572683D01*
X127711200Y-119411121D01*
X127711200Y-119237759D01*
X127754117Y-119210143D01*
X127768301Y-119224327D01*
X128001690Y-119321000D01*
X128492250Y-119321000D01*
X128651000Y-119162250D01*
X128651000Y-118063000D01*
X128631000Y-118063000D01*
X128631000Y-117809000D01*
X128651000Y-117809000D01*
X128651000Y-117789000D01*
X128905000Y-117789000D01*
X128905000Y-117809000D01*
X128905000Y-117809000D01*
G37*
X128905000Y-117809000D02*
X128925000Y-117809000D01*
X128925000Y-118063000D01*
X128905000Y-118063000D01*
X128905000Y-119162250D01*
X129063750Y-119321000D01*
X129554310Y-119321000D01*
X129787699Y-119224327D01*
X129963120Y-119048905D01*
X129992233Y-119195264D01*
X130092655Y-119345556D01*
X129308176Y-120130036D01*
X129212000Y-120110560D01*
X128312000Y-120110560D01*
X128076683Y-120154838D01*
X127860559Y-120293910D01*
X127859440Y-120295548D01*
X127859440Y-119808000D01*
X127815162Y-119572683D01*
X127711200Y-119411121D01*
X127711200Y-119237759D01*
X127754117Y-119210143D01*
X127768301Y-119224327D01*
X128001690Y-119321000D01*
X128492250Y-119321000D01*
X128651000Y-119162250D01*
X128651000Y-118063000D01*
X128631000Y-118063000D01*
X128631000Y-117809000D01*
X128651000Y-117809000D01*
X128651000Y-117789000D01*
X128905000Y-117789000D01*
X128905000Y-117809000D01*
G36*
X160909000Y-117809000D02*
X160929000Y-117809000D01*
X160929000Y-118063000D01*
X160909000Y-118063000D01*
X160909000Y-119162250D01*
X161067750Y-119321000D01*
X161558310Y-119321000D01*
X161791699Y-119224327D01*
X161967120Y-119048905D01*
X161996233Y-119195264D01*
X162096655Y-119345556D01*
X161312176Y-120130036D01*
X161216000Y-120110560D01*
X160316000Y-120110560D01*
X160080683Y-120154838D01*
X159864559Y-120293910D01*
X159863440Y-120295548D01*
X159863440Y-119808000D01*
X159819162Y-119572683D01*
X159715200Y-119411121D01*
X159715200Y-119237759D01*
X159758117Y-119210143D01*
X159772301Y-119224327D01*
X160005690Y-119321000D01*
X160496250Y-119321000D01*
X160655000Y-119162250D01*
X160655000Y-118063000D01*
X160635000Y-118063000D01*
X160635000Y-117809000D01*
X160655000Y-117809000D01*
X160655000Y-117789000D01*
X160909000Y-117789000D01*
X160909000Y-117809000D01*
X160909000Y-117809000D01*
G37*
X160909000Y-117809000D02*
X160929000Y-117809000D01*
X160929000Y-118063000D01*
X160909000Y-118063000D01*
X160909000Y-119162250D01*
X161067750Y-119321000D01*
X161558310Y-119321000D01*
X161791699Y-119224327D01*
X161967120Y-119048905D01*
X161996233Y-119195264D01*
X162096655Y-119345556D01*
X161312176Y-120130036D01*
X161216000Y-120110560D01*
X160316000Y-120110560D01*
X160080683Y-120154838D01*
X159864559Y-120293910D01*
X159863440Y-120295548D01*
X159863440Y-119808000D01*
X159819162Y-119572683D01*
X159715200Y-119411121D01*
X159715200Y-119237759D01*
X159758117Y-119210143D01*
X159772301Y-119224327D01*
X160005690Y-119321000D01*
X160496250Y-119321000D01*
X160655000Y-119162250D01*
X160655000Y-118063000D01*
X160635000Y-118063000D01*
X160635000Y-117809000D01*
X160655000Y-117809000D01*
X160655000Y-117789000D01*
X160909000Y-117789000D01*
X160909000Y-117809000D01*
G36*
X139573000Y-117809000D02*
X139593000Y-117809000D01*
X139593000Y-118063000D01*
X139573000Y-118063000D01*
X139573000Y-119162250D01*
X139731750Y-119321000D01*
X140222310Y-119321000D01*
X140316033Y-119282179D01*
X139487652Y-120110560D01*
X138980000Y-120110560D01*
X138744683Y-120154838D01*
X138528559Y-120293910D01*
X138527440Y-120295548D01*
X138527440Y-119808000D01*
X138483162Y-119572683D01*
X138379200Y-119411121D01*
X138379200Y-119237759D01*
X138422117Y-119210143D01*
X138436301Y-119224327D01*
X138669690Y-119321000D01*
X139160250Y-119321000D01*
X139319000Y-119162250D01*
X139319000Y-118063000D01*
X139299000Y-118063000D01*
X139299000Y-117809000D01*
X139319000Y-117809000D01*
X139319000Y-117789000D01*
X139573000Y-117789000D01*
X139573000Y-117809000D01*
X139573000Y-117809000D01*
G37*
X139573000Y-117809000D02*
X139593000Y-117809000D01*
X139593000Y-118063000D01*
X139573000Y-118063000D01*
X139573000Y-119162250D01*
X139731750Y-119321000D01*
X140222310Y-119321000D01*
X140316033Y-119282179D01*
X139487652Y-120110560D01*
X138980000Y-120110560D01*
X138744683Y-120154838D01*
X138528559Y-120293910D01*
X138527440Y-120295548D01*
X138527440Y-119808000D01*
X138483162Y-119572683D01*
X138379200Y-119411121D01*
X138379200Y-119237759D01*
X138422117Y-119210143D01*
X138436301Y-119224327D01*
X138669690Y-119321000D01*
X139160250Y-119321000D01*
X139319000Y-119162250D01*
X139319000Y-118063000D01*
X139299000Y-118063000D01*
X139299000Y-117809000D01*
X139319000Y-117809000D01*
X139319000Y-117789000D01*
X139573000Y-117789000D01*
X139573000Y-117809000D01*
G36*
X150241000Y-117809000D02*
X150261000Y-117809000D01*
X150261000Y-118063000D01*
X150241000Y-118063000D01*
X150241000Y-119162250D01*
X150399750Y-119321000D01*
X150890310Y-119321000D01*
X151123699Y-119224327D01*
X151299120Y-119048905D01*
X151328233Y-119195264D01*
X151428655Y-119345556D01*
X150644176Y-120130036D01*
X150548000Y-120110560D01*
X149648000Y-120110560D01*
X149412683Y-120154838D01*
X149196559Y-120293910D01*
X149195440Y-120295548D01*
X149195440Y-119808000D01*
X149151162Y-119572683D01*
X149047200Y-119411121D01*
X149047200Y-119237759D01*
X149090117Y-119210143D01*
X149104301Y-119224327D01*
X149337690Y-119321000D01*
X149828250Y-119321000D01*
X149987000Y-119162250D01*
X149987000Y-118063000D01*
X149967000Y-118063000D01*
X149967000Y-117809000D01*
X149987000Y-117809000D01*
X149987000Y-117789000D01*
X150241000Y-117789000D01*
X150241000Y-117809000D01*
X150241000Y-117809000D01*
G37*
X150241000Y-117809000D02*
X150261000Y-117809000D01*
X150261000Y-118063000D01*
X150241000Y-118063000D01*
X150241000Y-119162250D01*
X150399750Y-119321000D01*
X150890310Y-119321000D01*
X151123699Y-119224327D01*
X151299120Y-119048905D01*
X151328233Y-119195264D01*
X151428655Y-119345556D01*
X150644176Y-120130036D01*
X150548000Y-120110560D01*
X149648000Y-120110560D01*
X149412683Y-120154838D01*
X149196559Y-120293910D01*
X149195440Y-120295548D01*
X149195440Y-119808000D01*
X149151162Y-119572683D01*
X149047200Y-119411121D01*
X149047200Y-119237759D01*
X149090117Y-119210143D01*
X149104301Y-119224327D01*
X149337690Y-119321000D01*
X149828250Y-119321000D01*
X149987000Y-119162250D01*
X149987000Y-118063000D01*
X149967000Y-118063000D01*
X149967000Y-117809000D01*
X149987000Y-117809000D01*
X149987000Y-117789000D01*
X150241000Y-117789000D01*
X150241000Y-117809000D01*
M02*
