G04 #@! TF.FileFunction,Other,Fab,Top*
%FSLAX46Y46*%
G04 Gerber Fmt 4.6, Leading zero omitted, Abs format (unit mm)*
G04 Created by KiCad (PCBNEW 4.0.7) date 10/27/18 14:09:12*
%MOMM*%
%LPD*%
G01*
G04 APERTURE LIST*
%ADD10C,0.100000*%
%ADD11C,0.150000*%
%ADD12C,0.075000*%
G04 APERTURE END LIST*
D10*
X123317000Y-115062000D02*
X125222000Y-115062000D01*
X125222000Y-115062000D02*
X125222000Y-120142000D01*
X125222000Y-120142000D02*
X122682000Y-120142000D01*
X122682000Y-120142000D02*
X122682000Y-115697000D01*
X122682000Y-115697000D02*
X123317000Y-115062000D01*
X124587000Y-143002000D02*
X122682000Y-143002000D01*
X122682000Y-143002000D02*
X122682000Y-122682000D01*
X122682000Y-122682000D02*
X125222000Y-122682000D01*
X125222000Y-122682000D02*
X125222000Y-142367000D01*
X125222000Y-142367000D02*
X124587000Y-143002000D01*
X134239000Y-133858000D02*
X132334000Y-133858000D01*
X132334000Y-133858000D02*
X132334000Y-128778000D01*
X132334000Y-128778000D02*
X134874000Y-128778000D01*
X134874000Y-128778000D02*
X134874000Y-133223000D01*
X134874000Y-133223000D02*
X134239000Y-133858000D01*
X144907000Y-133858000D02*
X143002000Y-133858000D01*
X143002000Y-133858000D02*
X143002000Y-128778000D01*
X143002000Y-128778000D02*
X145542000Y-128778000D01*
X145542000Y-128778000D02*
X145542000Y-133223000D01*
X145542000Y-133223000D02*
X144907000Y-133858000D01*
X155575000Y-133858000D02*
X153670000Y-133858000D01*
X153670000Y-133858000D02*
X153670000Y-128778000D01*
X153670000Y-128778000D02*
X156210000Y-128778000D01*
X156210000Y-128778000D02*
X156210000Y-133223000D01*
X156210000Y-133223000D02*
X155575000Y-133858000D01*
X166243000Y-133858000D02*
X164338000Y-133858000D01*
X164338000Y-133858000D02*
X164338000Y-128778000D01*
X164338000Y-128778000D02*
X166878000Y-128778000D01*
X166878000Y-128778000D02*
X166878000Y-133223000D01*
X166878000Y-133223000D02*
X166243000Y-133858000D01*
X159131000Y-123952000D02*
X161036000Y-123952000D01*
X161036000Y-123952000D02*
X161036000Y-129032000D01*
X161036000Y-129032000D02*
X158496000Y-129032000D01*
X158496000Y-129032000D02*
X158496000Y-124587000D01*
X158496000Y-124587000D02*
X159131000Y-123952000D01*
X148463000Y-123952000D02*
X150368000Y-123952000D01*
X150368000Y-123952000D02*
X150368000Y-129032000D01*
X150368000Y-129032000D02*
X147828000Y-129032000D01*
X147828000Y-129032000D02*
X147828000Y-124587000D01*
X147828000Y-124587000D02*
X148463000Y-123952000D01*
X137795000Y-123952000D02*
X139700000Y-123952000D01*
X139700000Y-123952000D02*
X139700000Y-129032000D01*
X139700000Y-129032000D02*
X137160000Y-129032000D01*
X137160000Y-129032000D02*
X137160000Y-124587000D01*
X137160000Y-124587000D02*
X137795000Y-123952000D01*
X127127000Y-123952000D02*
X129032000Y-123952000D01*
X129032000Y-123952000D02*
X129032000Y-129032000D01*
X129032000Y-129032000D02*
X126492000Y-129032000D01*
X126492000Y-129032000D02*
X126492000Y-124587000D01*
X126492000Y-124587000D02*
X127127000Y-123952000D01*
X134304000Y-137602000D02*
X134304000Y-135152000D01*
X133754000Y-138172000D02*
X132904000Y-138172000D01*
X134304000Y-137602000D02*
X133754000Y-138172000D01*
X132904000Y-138172000D02*
X132904000Y-135132000D01*
X134304000Y-135132000D02*
X132904000Y-135132000D01*
X144972000Y-137602000D02*
X144972000Y-135152000D01*
X144422000Y-138172000D02*
X143572000Y-138172000D01*
X144972000Y-137602000D02*
X144422000Y-138172000D01*
X143572000Y-138172000D02*
X143572000Y-135132000D01*
X144972000Y-135132000D02*
X143572000Y-135132000D01*
X155640000Y-137602000D02*
X155640000Y-135152000D01*
X155090000Y-138172000D02*
X154240000Y-138172000D01*
X155640000Y-137602000D02*
X155090000Y-138172000D01*
X154240000Y-138172000D02*
X154240000Y-135132000D01*
X155640000Y-135132000D02*
X154240000Y-135132000D01*
X166308000Y-137602000D02*
X166308000Y-135152000D01*
X165758000Y-138172000D02*
X164908000Y-138172000D01*
X166308000Y-137602000D02*
X165758000Y-138172000D01*
X164908000Y-138172000D02*
X164908000Y-135132000D01*
X166308000Y-135132000D02*
X164908000Y-135132000D01*
X159066000Y-120208000D02*
X159066000Y-122658000D01*
X159616000Y-119638000D02*
X160466000Y-119638000D01*
X159066000Y-120208000D02*
X159616000Y-119638000D01*
X160466000Y-119638000D02*
X160466000Y-122678000D01*
X159066000Y-122678000D02*
X160466000Y-122678000D01*
X148398000Y-120208000D02*
X148398000Y-122658000D01*
X148948000Y-119638000D02*
X149798000Y-119638000D01*
X148398000Y-120208000D02*
X148948000Y-119638000D01*
X149798000Y-119638000D02*
X149798000Y-122678000D01*
X148398000Y-122678000D02*
X149798000Y-122678000D01*
X137730000Y-120208000D02*
X137730000Y-122658000D01*
X138280000Y-119638000D02*
X139130000Y-119638000D01*
X137730000Y-120208000D02*
X138280000Y-119638000D01*
X139130000Y-119638000D02*
X139130000Y-122678000D01*
X137730000Y-122678000D02*
X139130000Y-122678000D01*
X127062000Y-120208000D02*
X127062000Y-122658000D01*
X127612000Y-119638000D02*
X128462000Y-119638000D01*
X127062000Y-120208000D02*
X127612000Y-119638000D01*
X128462000Y-119638000D02*
X128462000Y-122678000D01*
X127062000Y-122678000D02*
X128462000Y-122678000D01*
X135240000Y-142224000D02*
X134000000Y-142224000D01*
X135240000Y-140224000D02*
X135240000Y-142224000D01*
X134000000Y-140224000D02*
X135240000Y-140224000D01*
X134000000Y-142224000D02*
X134000000Y-140224000D01*
X145908000Y-142224000D02*
X144668000Y-142224000D01*
X145908000Y-140224000D02*
X145908000Y-142224000D01*
X144668000Y-140224000D02*
X145908000Y-140224000D01*
X144668000Y-142224000D02*
X144668000Y-140224000D01*
X154544000Y-142224000D02*
X153304000Y-142224000D01*
X154544000Y-140224000D02*
X154544000Y-142224000D01*
X153304000Y-140224000D02*
X154544000Y-140224000D01*
X153304000Y-142224000D02*
X153304000Y-140224000D01*
X165212000Y-142224000D02*
X163972000Y-142224000D01*
X165212000Y-140224000D02*
X165212000Y-142224000D01*
X163972000Y-140224000D02*
X165212000Y-140224000D01*
X163972000Y-142224000D02*
X163972000Y-140224000D01*
X131968000Y-140224000D02*
X133208000Y-140224000D01*
X131968000Y-142224000D02*
X131968000Y-140224000D01*
X133208000Y-142224000D02*
X131968000Y-142224000D01*
X133208000Y-140224000D02*
X133208000Y-142224000D01*
X142636000Y-140224000D02*
X143876000Y-140224000D01*
X142636000Y-142224000D02*
X142636000Y-140224000D01*
X143876000Y-142224000D02*
X142636000Y-142224000D01*
X143876000Y-140224000D02*
X143876000Y-142224000D01*
X155336000Y-140224000D02*
X156576000Y-140224000D01*
X155336000Y-142224000D02*
X155336000Y-140224000D01*
X156576000Y-142224000D02*
X155336000Y-142224000D01*
X156576000Y-140224000D02*
X156576000Y-142224000D01*
X166004000Y-140224000D02*
X167244000Y-140224000D01*
X166004000Y-142224000D02*
X166004000Y-140224000D01*
X167244000Y-142224000D02*
X166004000Y-142224000D01*
X167244000Y-140224000D02*
X167244000Y-142224000D01*
X130032000Y-140604000D02*
X130032000Y-141844000D01*
X128032000Y-140604000D02*
X130032000Y-140604000D01*
X128032000Y-141844000D02*
X128032000Y-140604000D01*
X130032000Y-141844000D02*
X128032000Y-141844000D01*
X140700000Y-140604000D02*
X140700000Y-141844000D01*
X138700000Y-140604000D02*
X140700000Y-140604000D01*
X138700000Y-141844000D02*
X138700000Y-140604000D01*
X140700000Y-141844000D02*
X138700000Y-141844000D01*
X151368000Y-140604000D02*
X151368000Y-141844000D01*
X149368000Y-140604000D02*
X151368000Y-140604000D01*
X149368000Y-141844000D02*
X149368000Y-140604000D01*
X151368000Y-141844000D02*
X149368000Y-141844000D01*
X162036000Y-140604000D02*
X162036000Y-141844000D01*
X160036000Y-140604000D02*
X162036000Y-140604000D01*
X160036000Y-141844000D02*
X160036000Y-140604000D01*
X162036000Y-141844000D02*
X160036000Y-141844000D01*
X160162000Y-115586000D02*
X161402000Y-115586000D01*
X160162000Y-117586000D02*
X160162000Y-115586000D01*
X161402000Y-117586000D02*
X160162000Y-117586000D01*
X161402000Y-115586000D02*
X161402000Y-117586000D01*
X149494000Y-115586000D02*
X150734000Y-115586000D01*
X149494000Y-117586000D02*
X149494000Y-115586000D01*
X150734000Y-117586000D02*
X149494000Y-117586000D01*
X150734000Y-115586000D02*
X150734000Y-117586000D01*
X138826000Y-115586000D02*
X140066000Y-115586000D01*
X138826000Y-117586000D02*
X138826000Y-115586000D01*
X140066000Y-117586000D02*
X138826000Y-117586000D01*
X140066000Y-115586000D02*
X140066000Y-117586000D01*
X128158000Y-115586000D02*
X129398000Y-115586000D01*
X128158000Y-117586000D02*
X128158000Y-115586000D01*
X129398000Y-117586000D02*
X128158000Y-117586000D01*
X129398000Y-115586000D02*
X129398000Y-117586000D01*
X159370000Y-117586000D02*
X158130000Y-117586000D01*
X159370000Y-115586000D02*
X159370000Y-117586000D01*
X158130000Y-115586000D02*
X159370000Y-115586000D01*
X158130000Y-117586000D02*
X158130000Y-115586000D01*
X148702000Y-117586000D02*
X147462000Y-117586000D01*
X148702000Y-115586000D02*
X148702000Y-117586000D01*
X147462000Y-115586000D02*
X148702000Y-115586000D01*
X147462000Y-117586000D02*
X147462000Y-115586000D01*
X138034000Y-117586000D02*
X136794000Y-117586000D01*
X138034000Y-115586000D02*
X138034000Y-117586000D01*
X136794000Y-115586000D02*
X138034000Y-115586000D01*
X136794000Y-117586000D02*
X136794000Y-115586000D01*
X127366000Y-117586000D02*
X126126000Y-117586000D01*
X127366000Y-115586000D02*
X127366000Y-117586000D01*
X126126000Y-115586000D02*
X127366000Y-115586000D01*
X126126000Y-117586000D02*
X126126000Y-115586000D01*
X163338000Y-117206000D02*
X163338000Y-115966000D01*
X165338000Y-117206000D02*
X163338000Y-117206000D01*
X165338000Y-115966000D02*
X165338000Y-117206000D01*
X163338000Y-115966000D02*
X165338000Y-115966000D01*
X152670000Y-117206000D02*
X152670000Y-115966000D01*
X154670000Y-117206000D02*
X152670000Y-117206000D01*
X154670000Y-115966000D02*
X154670000Y-117206000D01*
X152670000Y-115966000D02*
X154670000Y-115966000D01*
X142002000Y-117206000D02*
X142002000Y-115966000D01*
X144002000Y-117206000D02*
X142002000Y-117206000D01*
X144002000Y-115966000D02*
X144002000Y-117206000D01*
X142002000Y-115966000D02*
X144002000Y-115966000D01*
X131334000Y-117206000D02*
X131334000Y-115966000D01*
X133334000Y-117206000D02*
X131334000Y-117206000D01*
X133334000Y-115966000D02*
X133334000Y-117206000D01*
X131334000Y-115966000D02*
X133334000Y-115966000D01*
X126238000Y-137557000D02*
X126238000Y-132207000D01*
X126238000Y-132207000D02*
X131318000Y-132207000D01*
X131318000Y-132207000D02*
X131318000Y-138557000D01*
X131318000Y-138557000D02*
X127238000Y-138557000D01*
X127238000Y-138557000D02*
X126238000Y-137557000D01*
X136906000Y-137557000D02*
X136906000Y-132207000D01*
X136906000Y-132207000D02*
X141986000Y-132207000D01*
X141986000Y-132207000D02*
X141986000Y-138557000D01*
X141986000Y-138557000D02*
X137906000Y-138557000D01*
X137906000Y-138557000D02*
X136906000Y-137557000D01*
X147574000Y-137557000D02*
X147574000Y-132207000D01*
X147574000Y-132207000D02*
X152654000Y-132207000D01*
X152654000Y-132207000D02*
X152654000Y-138557000D01*
X152654000Y-138557000D02*
X148574000Y-138557000D01*
X148574000Y-138557000D02*
X147574000Y-137557000D01*
X158242000Y-137557000D02*
X158242000Y-132207000D01*
X158242000Y-132207000D02*
X163322000Y-132207000D01*
X163322000Y-132207000D02*
X163322000Y-138557000D01*
X163322000Y-138557000D02*
X159242000Y-138557000D01*
X159242000Y-138557000D02*
X158242000Y-137557000D01*
X167132000Y-120253000D02*
X167132000Y-125603000D01*
X167132000Y-125603000D02*
X162052000Y-125603000D01*
X162052000Y-125603000D02*
X162052000Y-119253000D01*
X162052000Y-119253000D02*
X166132000Y-119253000D01*
X166132000Y-119253000D02*
X167132000Y-120253000D01*
X156464000Y-120253000D02*
X156464000Y-125603000D01*
X156464000Y-125603000D02*
X151384000Y-125603000D01*
X151384000Y-125603000D02*
X151384000Y-119253000D01*
X151384000Y-119253000D02*
X155464000Y-119253000D01*
X155464000Y-119253000D02*
X156464000Y-120253000D01*
X145796000Y-120253000D02*
X145796000Y-125603000D01*
X145796000Y-125603000D02*
X140716000Y-125603000D01*
X140716000Y-125603000D02*
X140716000Y-119253000D01*
X140716000Y-119253000D02*
X144796000Y-119253000D01*
X144796000Y-119253000D02*
X145796000Y-120253000D01*
X135128000Y-120253000D02*
X135128000Y-125603000D01*
X135128000Y-125603000D02*
X130048000Y-125603000D01*
X130048000Y-125603000D02*
X130048000Y-119253000D01*
X130048000Y-119253000D02*
X134128000Y-119253000D01*
X134128000Y-119253000D02*
X135128000Y-120253000D01*
D11*
X118118666Y-121559143D02*
X118071047Y-121606762D01*
X117928190Y-121654381D01*
X117832952Y-121654381D01*
X117690094Y-121606762D01*
X117594856Y-121511524D01*
X117547237Y-121416286D01*
X117499618Y-121225810D01*
X117499618Y-121082952D01*
X117547237Y-120892476D01*
X117594856Y-120797238D01*
X117690094Y-120702000D01*
X117832952Y-120654381D01*
X117928190Y-120654381D01*
X118071047Y-120702000D01*
X118118666Y-120749619D01*
X118690094Y-121654381D02*
X118594856Y-121606762D01*
X118547237Y-121559143D01*
X118499618Y-121463905D01*
X118499618Y-121178190D01*
X118547237Y-121082952D01*
X118594856Y-121035333D01*
X118690094Y-120987714D01*
X118832952Y-120987714D01*
X118928190Y-121035333D01*
X118975809Y-121082952D01*
X119023428Y-121178190D01*
X119023428Y-121463905D01*
X118975809Y-121559143D01*
X118928190Y-121606762D01*
X118832952Y-121654381D01*
X118690094Y-121654381D01*
X119451999Y-120987714D02*
X119451999Y-121654381D01*
X119451999Y-121082952D02*
X119499618Y-121035333D01*
X119594856Y-120987714D01*
X119737714Y-120987714D01*
X119832952Y-121035333D01*
X119880571Y-121130571D01*
X119880571Y-121654381D01*
X120356761Y-120987714D02*
X120356761Y-121654381D01*
X120356761Y-121082952D02*
X120404380Y-121035333D01*
X120499618Y-120987714D01*
X120642476Y-120987714D01*
X120737714Y-121035333D01*
X120785333Y-121130571D01*
X120785333Y-121654381D01*
X121023428Y-121749619D02*
X121785333Y-121749619D01*
X122213904Y-120654381D02*
X122309143Y-120654381D01*
X122404381Y-120702000D01*
X122452000Y-120749619D01*
X122499619Y-120844857D01*
X122547238Y-121035333D01*
X122547238Y-121273429D01*
X122499619Y-121463905D01*
X122452000Y-121559143D01*
X122404381Y-121606762D01*
X122309143Y-121654381D01*
X122213904Y-121654381D01*
X122118666Y-121606762D01*
X122071047Y-121559143D01*
X122023428Y-121463905D01*
X121975809Y-121273429D01*
X121975809Y-121035333D01*
X122023428Y-120844857D01*
X122071047Y-120749619D01*
X122118666Y-120702000D01*
X122213904Y-120654381D01*
X123499619Y-121654381D02*
X122928190Y-121654381D01*
X123213904Y-121654381D02*
X123213904Y-120654381D01*
X123118666Y-120797238D01*
X123023428Y-120892476D01*
X122928190Y-120940095D01*
X123832952Y-121654381D02*
X124356762Y-120987714D01*
X123832952Y-120987714D02*
X124356762Y-121654381D01*
X124928190Y-120654381D02*
X125023429Y-120654381D01*
X125118667Y-120702000D01*
X125166286Y-120749619D01*
X125213905Y-120844857D01*
X125261524Y-121035333D01*
X125261524Y-121273429D01*
X125213905Y-121463905D01*
X125166286Y-121559143D01*
X125118667Y-121606762D01*
X125023429Y-121654381D01*
X124928190Y-121654381D01*
X124832952Y-121606762D01*
X124785333Y-121559143D01*
X124737714Y-121463905D01*
X124690095Y-121273429D01*
X124690095Y-121035333D01*
X124737714Y-120844857D01*
X124785333Y-120749619D01*
X124832952Y-120702000D01*
X124928190Y-120654381D01*
X125642476Y-120749619D02*
X125690095Y-120702000D01*
X125785333Y-120654381D01*
X126023429Y-120654381D01*
X126118667Y-120702000D01*
X126166286Y-120749619D01*
X126213905Y-120844857D01*
X126213905Y-120940095D01*
X126166286Y-121082952D01*
X125594857Y-121654381D01*
X126213905Y-121654381D01*
X126404381Y-121749619D02*
X127166286Y-121749619D01*
X127404381Y-121654381D02*
X127404381Y-120654381D01*
X127737715Y-121368667D01*
X128071048Y-120654381D01*
X128071048Y-121654381D01*
X128975810Y-121654381D02*
X128975810Y-121130571D01*
X128928191Y-121035333D01*
X128832953Y-120987714D01*
X128642476Y-120987714D01*
X128547238Y-121035333D01*
X128975810Y-121606762D02*
X128880572Y-121654381D01*
X128642476Y-121654381D01*
X128547238Y-121606762D01*
X128499619Y-121511524D01*
X128499619Y-121416286D01*
X128547238Y-121321048D01*
X128642476Y-121273429D01*
X128880572Y-121273429D01*
X128975810Y-121225810D01*
X129594857Y-121654381D02*
X129499619Y-121606762D01*
X129452000Y-121511524D01*
X129452000Y-120654381D01*
X130356763Y-121606762D02*
X130261525Y-121654381D01*
X130071048Y-121654381D01*
X129975810Y-121606762D01*
X129928191Y-121511524D01*
X129928191Y-121130571D01*
X129975810Y-121035333D01*
X130071048Y-120987714D01*
X130261525Y-120987714D01*
X130356763Y-121035333D01*
X130404382Y-121130571D01*
X130404382Y-121225810D01*
X129928191Y-121321048D01*
X123404381Y-117935333D02*
X124118667Y-117935333D01*
X124261524Y-117982953D01*
X124356762Y-118078191D01*
X124404381Y-118221048D01*
X124404381Y-118316286D01*
X124404381Y-116935333D02*
X124404381Y-117506762D01*
X124404381Y-117221048D02*
X123404381Y-117221048D01*
X123547238Y-117316286D01*
X123642476Y-117411524D01*
X123690095Y-117506762D01*
X118118666Y-121979143D02*
X118071047Y-122026762D01*
X117928190Y-122074381D01*
X117832952Y-122074381D01*
X117690094Y-122026762D01*
X117594856Y-121931524D01*
X117547237Y-121836286D01*
X117499618Y-121645810D01*
X117499618Y-121502952D01*
X117547237Y-121312476D01*
X117594856Y-121217238D01*
X117690094Y-121122000D01*
X117832952Y-121074381D01*
X117928190Y-121074381D01*
X118071047Y-121122000D01*
X118118666Y-121169619D01*
X118690094Y-122074381D02*
X118594856Y-122026762D01*
X118547237Y-121979143D01*
X118499618Y-121883905D01*
X118499618Y-121598190D01*
X118547237Y-121502952D01*
X118594856Y-121455333D01*
X118690094Y-121407714D01*
X118832952Y-121407714D01*
X118928190Y-121455333D01*
X118975809Y-121502952D01*
X119023428Y-121598190D01*
X119023428Y-121883905D01*
X118975809Y-121979143D01*
X118928190Y-122026762D01*
X118832952Y-122074381D01*
X118690094Y-122074381D01*
X119451999Y-121407714D02*
X119451999Y-122074381D01*
X119451999Y-121502952D02*
X119499618Y-121455333D01*
X119594856Y-121407714D01*
X119737714Y-121407714D01*
X119832952Y-121455333D01*
X119880571Y-121550571D01*
X119880571Y-122074381D01*
X120356761Y-121407714D02*
X120356761Y-122074381D01*
X120356761Y-121502952D02*
X120404380Y-121455333D01*
X120499618Y-121407714D01*
X120642476Y-121407714D01*
X120737714Y-121455333D01*
X120785333Y-121550571D01*
X120785333Y-122074381D01*
X121023428Y-122169619D02*
X121785333Y-122169619D01*
X122213904Y-121074381D02*
X122309143Y-121074381D01*
X122404381Y-121122000D01*
X122452000Y-121169619D01*
X122499619Y-121264857D01*
X122547238Y-121455333D01*
X122547238Y-121693429D01*
X122499619Y-121883905D01*
X122452000Y-121979143D01*
X122404381Y-122026762D01*
X122309143Y-122074381D01*
X122213904Y-122074381D01*
X122118666Y-122026762D01*
X122071047Y-121979143D01*
X122023428Y-121883905D01*
X121975809Y-121693429D01*
X121975809Y-121455333D01*
X122023428Y-121264857D01*
X122071047Y-121169619D01*
X122118666Y-121122000D01*
X122213904Y-121074381D01*
X123499619Y-122074381D02*
X122928190Y-122074381D01*
X123213904Y-122074381D02*
X123213904Y-121074381D01*
X123118666Y-121217238D01*
X123023428Y-121312476D01*
X122928190Y-121360095D01*
X123832952Y-122074381D02*
X124356762Y-121407714D01*
X123832952Y-121407714D02*
X124356762Y-122074381D01*
X124928190Y-121074381D02*
X125023429Y-121074381D01*
X125118667Y-121122000D01*
X125166286Y-121169619D01*
X125213905Y-121264857D01*
X125261524Y-121455333D01*
X125261524Y-121693429D01*
X125213905Y-121883905D01*
X125166286Y-121979143D01*
X125118667Y-122026762D01*
X125023429Y-122074381D01*
X124928190Y-122074381D01*
X124832952Y-122026762D01*
X124785333Y-121979143D01*
X124737714Y-121883905D01*
X124690095Y-121693429D01*
X124690095Y-121455333D01*
X124737714Y-121264857D01*
X124785333Y-121169619D01*
X124832952Y-121122000D01*
X124928190Y-121074381D01*
X125832952Y-121502952D02*
X125737714Y-121455333D01*
X125690095Y-121407714D01*
X125642476Y-121312476D01*
X125642476Y-121264857D01*
X125690095Y-121169619D01*
X125737714Y-121122000D01*
X125832952Y-121074381D01*
X126023429Y-121074381D01*
X126118667Y-121122000D01*
X126166286Y-121169619D01*
X126213905Y-121264857D01*
X126213905Y-121312476D01*
X126166286Y-121407714D01*
X126118667Y-121455333D01*
X126023429Y-121502952D01*
X125832952Y-121502952D01*
X125737714Y-121550571D01*
X125690095Y-121598190D01*
X125642476Y-121693429D01*
X125642476Y-121883905D01*
X125690095Y-121979143D01*
X125737714Y-122026762D01*
X125832952Y-122074381D01*
X126023429Y-122074381D01*
X126118667Y-122026762D01*
X126166286Y-121979143D01*
X126213905Y-121883905D01*
X126213905Y-121693429D01*
X126166286Y-121598190D01*
X126118667Y-121550571D01*
X126023429Y-121502952D01*
X126404381Y-122169619D02*
X127166286Y-122169619D01*
X127404381Y-122074381D02*
X127404381Y-121074381D01*
X127737715Y-121788667D01*
X128071048Y-121074381D01*
X128071048Y-122074381D01*
X128975810Y-122074381D02*
X128975810Y-121550571D01*
X128928191Y-121455333D01*
X128832953Y-121407714D01*
X128642476Y-121407714D01*
X128547238Y-121455333D01*
X128975810Y-122026762D02*
X128880572Y-122074381D01*
X128642476Y-122074381D01*
X128547238Y-122026762D01*
X128499619Y-121931524D01*
X128499619Y-121836286D01*
X128547238Y-121741048D01*
X128642476Y-121693429D01*
X128880572Y-121693429D01*
X128975810Y-121645810D01*
X129594857Y-122074381D02*
X129499619Y-122026762D01*
X129452000Y-121931524D01*
X129452000Y-121074381D01*
X130356763Y-122026762D02*
X130261525Y-122074381D01*
X130071048Y-122074381D01*
X129975810Y-122026762D01*
X129928191Y-121931524D01*
X129928191Y-121550571D01*
X129975810Y-121455333D01*
X130071048Y-121407714D01*
X130261525Y-121407714D01*
X130356763Y-121455333D01*
X130404382Y-121550571D01*
X130404382Y-121645810D01*
X129928191Y-121741048D01*
X123404381Y-133175333D02*
X124118667Y-133175333D01*
X124261524Y-133222953D01*
X124356762Y-133318191D01*
X124404381Y-133461048D01*
X124404381Y-133556286D01*
X123499619Y-132746762D02*
X123452000Y-132699143D01*
X123404381Y-132603905D01*
X123404381Y-132365809D01*
X123452000Y-132270571D01*
X123499619Y-132222952D01*
X123594857Y-132175333D01*
X123690095Y-132175333D01*
X123832952Y-132222952D01*
X124404381Y-132794381D01*
X124404381Y-132175333D01*
X127770666Y-128075143D02*
X127723047Y-128122762D01*
X127580190Y-128170381D01*
X127484952Y-128170381D01*
X127342094Y-128122762D01*
X127246856Y-128027524D01*
X127199237Y-127932286D01*
X127151618Y-127741810D01*
X127151618Y-127598952D01*
X127199237Y-127408476D01*
X127246856Y-127313238D01*
X127342094Y-127218000D01*
X127484952Y-127170381D01*
X127580190Y-127170381D01*
X127723047Y-127218000D01*
X127770666Y-127265619D01*
X128342094Y-128170381D02*
X128246856Y-128122762D01*
X128199237Y-128075143D01*
X128151618Y-127979905D01*
X128151618Y-127694190D01*
X128199237Y-127598952D01*
X128246856Y-127551333D01*
X128342094Y-127503714D01*
X128484952Y-127503714D01*
X128580190Y-127551333D01*
X128627809Y-127598952D01*
X128675428Y-127694190D01*
X128675428Y-127979905D01*
X128627809Y-128075143D01*
X128580190Y-128122762D01*
X128484952Y-128170381D01*
X128342094Y-128170381D01*
X129103999Y-127503714D02*
X129103999Y-128170381D01*
X129103999Y-127598952D02*
X129151618Y-127551333D01*
X129246856Y-127503714D01*
X129389714Y-127503714D01*
X129484952Y-127551333D01*
X129532571Y-127646571D01*
X129532571Y-128170381D01*
X130008761Y-127503714D02*
X130008761Y-128170381D01*
X130008761Y-127598952D02*
X130056380Y-127551333D01*
X130151618Y-127503714D01*
X130294476Y-127503714D01*
X130389714Y-127551333D01*
X130437333Y-127646571D01*
X130437333Y-128170381D01*
X130675428Y-128265619D02*
X131437333Y-128265619D01*
X131865904Y-127170381D02*
X131961143Y-127170381D01*
X132056381Y-127218000D01*
X132104000Y-127265619D01*
X132151619Y-127360857D01*
X132199238Y-127551333D01*
X132199238Y-127789429D01*
X132151619Y-127979905D01*
X132104000Y-128075143D01*
X132056381Y-128122762D01*
X131961143Y-128170381D01*
X131865904Y-128170381D01*
X131770666Y-128122762D01*
X131723047Y-128075143D01*
X131675428Y-127979905D01*
X131627809Y-127789429D01*
X131627809Y-127551333D01*
X131675428Y-127360857D01*
X131723047Y-127265619D01*
X131770666Y-127218000D01*
X131865904Y-127170381D01*
X133151619Y-128170381D02*
X132580190Y-128170381D01*
X132865904Y-128170381D02*
X132865904Y-127170381D01*
X132770666Y-127313238D01*
X132675428Y-127408476D01*
X132580190Y-127456095D01*
X133484952Y-128170381D02*
X134008762Y-127503714D01*
X133484952Y-127503714D02*
X134008762Y-128170381D01*
X134580190Y-127170381D02*
X134675429Y-127170381D01*
X134770667Y-127218000D01*
X134818286Y-127265619D01*
X134865905Y-127360857D01*
X134913524Y-127551333D01*
X134913524Y-127789429D01*
X134865905Y-127979905D01*
X134818286Y-128075143D01*
X134770667Y-128122762D01*
X134675429Y-128170381D01*
X134580190Y-128170381D01*
X134484952Y-128122762D01*
X134437333Y-128075143D01*
X134389714Y-127979905D01*
X134342095Y-127789429D01*
X134342095Y-127551333D01*
X134389714Y-127360857D01*
X134437333Y-127265619D01*
X134484952Y-127218000D01*
X134580190Y-127170381D01*
X135294476Y-127265619D02*
X135342095Y-127218000D01*
X135437333Y-127170381D01*
X135675429Y-127170381D01*
X135770667Y-127218000D01*
X135818286Y-127265619D01*
X135865905Y-127360857D01*
X135865905Y-127456095D01*
X135818286Y-127598952D01*
X135246857Y-128170381D01*
X135865905Y-128170381D01*
X136056381Y-128265619D02*
X136818286Y-128265619D01*
X137056381Y-128170381D02*
X137056381Y-127170381D01*
X137389715Y-127884667D01*
X137723048Y-127170381D01*
X137723048Y-128170381D01*
X138627810Y-128170381D02*
X138627810Y-127646571D01*
X138580191Y-127551333D01*
X138484953Y-127503714D01*
X138294476Y-127503714D01*
X138199238Y-127551333D01*
X138627810Y-128122762D02*
X138532572Y-128170381D01*
X138294476Y-128170381D01*
X138199238Y-128122762D01*
X138151619Y-128027524D01*
X138151619Y-127932286D01*
X138199238Y-127837048D01*
X138294476Y-127789429D01*
X138532572Y-127789429D01*
X138627810Y-127741810D01*
X139246857Y-128170381D02*
X139151619Y-128122762D01*
X139104000Y-128027524D01*
X139104000Y-127170381D01*
X140008763Y-128122762D02*
X139913525Y-128170381D01*
X139723048Y-128170381D01*
X139627810Y-128122762D01*
X139580191Y-128027524D01*
X139580191Y-127646571D01*
X139627810Y-127551333D01*
X139723048Y-127503714D01*
X139913525Y-127503714D01*
X140008763Y-127551333D01*
X140056382Y-127646571D01*
X140056382Y-127741810D01*
X139580191Y-127837048D01*
X133056381Y-131651333D02*
X133770667Y-131651333D01*
X133913524Y-131698953D01*
X134008762Y-131794191D01*
X134056381Y-131937048D01*
X134056381Y-132032286D01*
X133056381Y-131270381D02*
X133056381Y-130651333D01*
X133437333Y-130984667D01*
X133437333Y-130841809D01*
X133484952Y-130746571D01*
X133532571Y-130698952D01*
X133627810Y-130651333D01*
X133865905Y-130651333D01*
X133961143Y-130698952D01*
X134008762Y-130746571D01*
X134056381Y-130841809D01*
X134056381Y-131127524D01*
X134008762Y-131222762D01*
X133961143Y-131270381D01*
X138438666Y-128075143D02*
X138391047Y-128122762D01*
X138248190Y-128170381D01*
X138152952Y-128170381D01*
X138010094Y-128122762D01*
X137914856Y-128027524D01*
X137867237Y-127932286D01*
X137819618Y-127741810D01*
X137819618Y-127598952D01*
X137867237Y-127408476D01*
X137914856Y-127313238D01*
X138010094Y-127218000D01*
X138152952Y-127170381D01*
X138248190Y-127170381D01*
X138391047Y-127218000D01*
X138438666Y-127265619D01*
X139010094Y-128170381D02*
X138914856Y-128122762D01*
X138867237Y-128075143D01*
X138819618Y-127979905D01*
X138819618Y-127694190D01*
X138867237Y-127598952D01*
X138914856Y-127551333D01*
X139010094Y-127503714D01*
X139152952Y-127503714D01*
X139248190Y-127551333D01*
X139295809Y-127598952D01*
X139343428Y-127694190D01*
X139343428Y-127979905D01*
X139295809Y-128075143D01*
X139248190Y-128122762D01*
X139152952Y-128170381D01*
X139010094Y-128170381D01*
X139771999Y-127503714D02*
X139771999Y-128170381D01*
X139771999Y-127598952D02*
X139819618Y-127551333D01*
X139914856Y-127503714D01*
X140057714Y-127503714D01*
X140152952Y-127551333D01*
X140200571Y-127646571D01*
X140200571Y-128170381D01*
X140676761Y-127503714D02*
X140676761Y-128170381D01*
X140676761Y-127598952D02*
X140724380Y-127551333D01*
X140819618Y-127503714D01*
X140962476Y-127503714D01*
X141057714Y-127551333D01*
X141105333Y-127646571D01*
X141105333Y-128170381D01*
X141343428Y-128265619D02*
X142105333Y-128265619D01*
X142533904Y-127170381D02*
X142629143Y-127170381D01*
X142724381Y-127218000D01*
X142772000Y-127265619D01*
X142819619Y-127360857D01*
X142867238Y-127551333D01*
X142867238Y-127789429D01*
X142819619Y-127979905D01*
X142772000Y-128075143D01*
X142724381Y-128122762D01*
X142629143Y-128170381D01*
X142533904Y-128170381D01*
X142438666Y-128122762D01*
X142391047Y-128075143D01*
X142343428Y-127979905D01*
X142295809Y-127789429D01*
X142295809Y-127551333D01*
X142343428Y-127360857D01*
X142391047Y-127265619D01*
X142438666Y-127218000D01*
X142533904Y-127170381D01*
X143819619Y-128170381D02*
X143248190Y-128170381D01*
X143533904Y-128170381D02*
X143533904Y-127170381D01*
X143438666Y-127313238D01*
X143343428Y-127408476D01*
X143248190Y-127456095D01*
X144152952Y-128170381D02*
X144676762Y-127503714D01*
X144152952Y-127503714D02*
X144676762Y-128170381D01*
X145248190Y-127170381D02*
X145343429Y-127170381D01*
X145438667Y-127218000D01*
X145486286Y-127265619D01*
X145533905Y-127360857D01*
X145581524Y-127551333D01*
X145581524Y-127789429D01*
X145533905Y-127979905D01*
X145486286Y-128075143D01*
X145438667Y-128122762D01*
X145343429Y-128170381D01*
X145248190Y-128170381D01*
X145152952Y-128122762D01*
X145105333Y-128075143D01*
X145057714Y-127979905D01*
X145010095Y-127789429D01*
X145010095Y-127551333D01*
X145057714Y-127360857D01*
X145105333Y-127265619D01*
X145152952Y-127218000D01*
X145248190Y-127170381D01*
X145962476Y-127265619D02*
X146010095Y-127218000D01*
X146105333Y-127170381D01*
X146343429Y-127170381D01*
X146438667Y-127218000D01*
X146486286Y-127265619D01*
X146533905Y-127360857D01*
X146533905Y-127456095D01*
X146486286Y-127598952D01*
X145914857Y-128170381D01*
X146533905Y-128170381D01*
X146724381Y-128265619D02*
X147486286Y-128265619D01*
X147724381Y-128170381D02*
X147724381Y-127170381D01*
X148057715Y-127884667D01*
X148391048Y-127170381D01*
X148391048Y-128170381D01*
X149295810Y-128170381D02*
X149295810Y-127646571D01*
X149248191Y-127551333D01*
X149152953Y-127503714D01*
X148962476Y-127503714D01*
X148867238Y-127551333D01*
X149295810Y-128122762D02*
X149200572Y-128170381D01*
X148962476Y-128170381D01*
X148867238Y-128122762D01*
X148819619Y-128027524D01*
X148819619Y-127932286D01*
X148867238Y-127837048D01*
X148962476Y-127789429D01*
X149200572Y-127789429D01*
X149295810Y-127741810D01*
X149914857Y-128170381D02*
X149819619Y-128122762D01*
X149772000Y-128027524D01*
X149772000Y-127170381D01*
X150676763Y-128122762D02*
X150581525Y-128170381D01*
X150391048Y-128170381D01*
X150295810Y-128122762D01*
X150248191Y-128027524D01*
X150248191Y-127646571D01*
X150295810Y-127551333D01*
X150391048Y-127503714D01*
X150581525Y-127503714D01*
X150676763Y-127551333D01*
X150724382Y-127646571D01*
X150724382Y-127741810D01*
X150248191Y-127837048D01*
X143724381Y-131651333D02*
X144438667Y-131651333D01*
X144581524Y-131698953D01*
X144676762Y-131794191D01*
X144724381Y-131937048D01*
X144724381Y-132032286D01*
X144057714Y-130746571D02*
X144724381Y-130746571D01*
X143676762Y-130984667D02*
X144391048Y-131222762D01*
X144391048Y-130603714D01*
X149106666Y-128075143D02*
X149059047Y-128122762D01*
X148916190Y-128170381D01*
X148820952Y-128170381D01*
X148678094Y-128122762D01*
X148582856Y-128027524D01*
X148535237Y-127932286D01*
X148487618Y-127741810D01*
X148487618Y-127598952D01*
X148535237Y-127408476D01*
X148582856Y-127313238D01*
X148678094Y-127218000D01*
X148820952Y-127170381D01*
X148916190Y-127170381D01*
X149059047Y-127218000D01*
X149106666Y-127265619D01*
X149678094Y-128170381D02*
X149582856Y-128122762D01*
X149535237Y-128075143D01*
X149487618Y-127979905D01*
X149487618Y-127694190D01*
X149535237Y-127598952D01*
X149582856Y-127551333D01*
X149678094Y-127503714D01*
X149820952Y-127503714D01*
X149916190Y-127551333D01*
X149963809Y-127598952D01*
X150011428Y-127694190D01*
X150011428Y-127979905D01*
X149963809Y-128075143D01*
X149916190Y-128122762D01*
X149820952Y-128170381D01*
X149678094Y-128170381D01*
X150439999Y-127503714D02*
X150439999Y-128170381D01*
X150439999Y-127598952D02*
X150487618Y-127551333D01*
X150582856Y-127503714D01*
X150725714Y-127503714D01*
X150820952Y-127551333D01*
X150868571Y-127646571D01*
X150868571Y-128170381D01*
X151344761Y-127503714D02*
X151344761Y-128170381D01*
X151344761Y-127598952D02*
X151392380Y-127551333D01*
X151487618Y-127503714D01*
X151630476Y-127503714D01*
X151725714Y-127551333D01*
X151773333Y-127646571D01*
X151773333Y-128170381D01*
X152011428Y-128265619D02*
X152773333Y-128265619D01*
X153201904Y-127170381D02*
X153297143Y-127170381D01*
X153392381Y-127218000D01*
X153440000Y-127265619D01*
X153487619Y-127360857D01*
X153535238Y-127551333D01*
X153535238Y-127789429D01*
X153487619Y-127979905D01*
X153440000Y-128075143D01*
X153392381Y-128122762D01*
X153297143Y-128170381D01*
X153201904Y-128170381D01*
X153106666Y-128122762D01*
X153059047Y-128075143D01*
X153011428Y-127979905D01*
X152963809Y-127789429D01*
X152963809Y-127551333D01*
X153011428Y-127360857D01*
X153059047Y-127265619D01*
X153106666Y-127218000D01*
X153201904Y-127170381D01*
X154487619Y-128170381D02*
X153916190Y-128170381D01*
X154201904Y-128170381D02*
X154201904Y-127170381D01*
X154106666Y-127313238D01*
X154011428Y-127408476D01*
X153916190Y-127456095D01*
X154820952Y-128170381D02*
X155344762Y-127503714D01*
X154820952Y-127503714D02*
X155344762Y-128170381D01*
X155916190Y-127170381D02*
X156011429Y-127170381D01*
X156106667Y-127218000D01*
X156154286Y-127265619D01*
X156201905Y-127360857D01*
X156249524Y-127551333D01*
X156249524Y-127789429D01*
X156201905Y-127979905D01*
X156154286Y-128075143D01*
X156106667Y-128122762D01*
X156011429Y-128170381D01*
X155916190Y-128170381D01*
X155820952Y-128122762D01*
X155773333Y-128075143D01*
X155725714Y-127979905D01*
X155678095Y-127789429D01*
X155678095Y-127551333D01*
X155725714Y-127360857D01*
X155773333Y-127265619D01*
X155820952Y-127218000D01*
X155916190Y-127170381D01*
X156630476Y-127265619D02*
X156678095Y-127218000D01*
X156773333Y-127170381D01*
X157011429Y-127170381D01*
X157106667Y-127218000D01*
X157154286Y-127265619D01*
X157201905Y-127360857D01*
X157201905Y-127456095D01*
X157154286Y-127598952D01*
X156582857Y-128170381D01*
X157201905Y-128170381D01*
X157392381Y-128265619D02*
X158154286Y-128265619D01*
X158392381Y-128170381D02*
X158392381Y-127170381D01*
X158725715Y-127884667D01*
X159059048Y-127170381D01*
X159059048Y-128170381D01*
X159963810Y-128170381D02*
X159963810Y-127646571D01*
X159916191Y-127551333D01*
X159820953Y-127503714D01*
X159630476Y-127503714D01*
X159535238Y-127551333D01*
X159963810Y-128122762D02*
X159868572Y-128170381D01*
X159630476Y-128170381D01*
X159535238Y-128122762D01*
X159487619Y-128027524D01*
X159487619Y-127932286D01*
X159535238Y-127837048D01*
X159630476Y-127789429D01*
X159868572Y-127789429D01*
X159963810Y-127741810D01*
X160582857Y-128170381D02*
X160487619Y-128122762D01*
X160440000Y-128027524D01*
X160440000Y-127170381D01*
X161344763Y-128122762D02*
X161249525Y-128170381D01*
X161059048Y-128170381D01*
X160963810Y-128122762D01*
X160916191Y-128027524D01*
X160916191Y-127646571D01*
X160963810Y-127551333D01*
X161059048Y-127503714D01*
X161249525Y-127503714D01*
X161344763Y-127551333D01*
X161392382Y-127646571D01*
X161392382Y-127741810D01*
X160916191Y-127837048D01*
X154392381Y-131651333D02*
X155106667Y-131651333D01*
X155249524Y-131698953D01*
X155344762Y-131794191D01*
X155392381Y-131937048D01*
X155392381Y-132032286D01*
X154392381Y-130698952D02*
X154392381Y-131175143D01*
X154868571Y-131222762D01*
X154820952Y-131175143D01*
X154773333Y-131079905D01*
X154773333Y-130841809D01*
X154820952Y-130746571D01*
X154868571Y-130698952D01*
X154963810Y-130651333D01*
X155201905Y-130651333D01*
X155297143Y-130698952D01*
X155344762Y-130746571D01*
X155392381Y-130841809D01*
X155392381Y-131079905D01*
X155344762Y-131175143D01*
X155297143Y-131222762D01*
X159774666Y-128075143D02*
X159727047Y-128122762D01*
X159584190Y-128170381D01*
X159488952Y-128170381D01*
X159346094Y-128122762D01*
X159250856Y-128027524D01*
X159203237Y-127932286D01*
X159155618Y-127741810D01*
X159155618Y-127598952D01*
X159203237Y-127408476D01*
X159250856Y-127313238D01*
X159346094Y-127218000D01*
X159488952Y-127170381D01*
X159584190Y-127170381D01*
X159727047Y-127218000D01*
X159774666Y-127265619D01*
X160346094Y-128170381D02*
X160250856Y-128122762D01*
X160203237Y-128075143D01*
X160155618Y-127979905D01*
X160155618Y-127694190D01*
X160203237Y-127598952D01*
X160250856Y-127551333D01*
X160346094Y-127503714D01*
X160488952Y-127503714D01*
X160584190Y-127551333D01*
X160631809Y-127598952D01*
X160679428Y-127694190D01*
X160679428Y-127979905D01*
X160631809Y-128075143D01*
X160584190Y-128122762D01*
X160488952Y-128170381D01*
X160346094Y-128170381D01*
X161107999Y-127503714D02*
X161107999Y-128170381D01*
X161107999Y-127598952D02*
X161155618Y-127551333D01*
X161250856Y-127503714D01*
X161393714Y-127503714D01*
X161488952Y-127551333D01*
X161536571Y-127646571D01*
X161536571Y-128170381D01*
X162012761Y-127503714D02*
X162012761Y-128170381D01*
X162012761Y-127598952D02*
X162060380Y-127551333D01*
X162155618Y-127503714D01*
X162298476Y-127503714D01*
X162393714Y-127551333D01*
X162441333Y-127646571D01*
X162441333Y-128170381D01*
X162679428Y-128265619D02*
X163441333Y-128265619D01*
X163869904Y-127170381D02*
X163965143Y-127170381D01*
X164060381Y-127218000D01*
X164108000Y-127265619D01*
X164155619Y-127360857D01*
X164203238Y-127551333D01*
X164203238Y-127789429D01*
X164155619Y-127979905D01*
X164108000Y-128075143D01*
X164060381Y-128122762D01*
X163965143Y-128170381D01*
X163869904Y-128170381D01*
X163774666Y-128122762D01*
X163727047Y-128075143D01*
X163679428Y-127979905D01*
X163631809Y-127789429D01*
X163631809Y-127551333D01*
X163679428Y-127360857D01*
X163727047Y-127265619D01*
X163774666Y-127218000D01*
X163869904Y-127170381D01*
X165155619Y-128170381D02*
X164584190Y-128170381D01*
X164869904Y-128170381D02*
X164869904Y-127170381D01*
X164774666Y-127313238D01*
X164679428Y-127408476D01*
X164584190Y-127456095D01*
X165488952Y-128170381D02*
X166012762Y-127503714D01*
X165488952Y-127503714D02*
X166012762Y-128170381D01*
X166584190Y-127170381D02*
X166679429Y-127170381D01*
X166774667Y-127218000D01*
X166822286Y-127265619D01*
X166869905Y-127360857D01*
X166917524Y-127551333D01*
X166917524Y-127789429D01*
X166869905Y-127979905D01*
X166822286Y-128075143D01*
X166774667Y-128122762D01*
X166679429Y-128170381D01*
X166584190Y-128170381D01*
X166488952Y-128122762D01*
X166441333Y-128075143D01*
X166393714Y-127979905D01*
X166346095Y-127789429D01*
X166346095Y-127551333D01*
X166393714Y-127360857D01*
X166441333Y-127265619D01*
X166488952Y-127218000D01*
X166584190Y-127170381D01*
X167298476Y-127265619D02*
X167346095Y-127218000D01*
X167441333Y-127170381D01*
X167679429Y-127170381D01*
X167774667Y-127218000D01*
X167822286Y-127265619D01*
X167869905Y-127360857D01*
X167869905Y-127456095D01*
X167822286Y-127598952D01*
X167250857Y-128170381D01*
X167869905Y-128170381D01*
X168060381Y-128265619D02*
X168822286Y-128265619D01*
X169060381Y-128170381D02*
X169060381Y-127170381D01*
X169393715Y-127884667D01*
X169727048Y-127170381D01*
X169727048Y-128170381D01*
X170631810Y-128170381D02*
X170631810Y-127646571D01*
X170584191Y-127551333D01*
X170488953Y-127503714D01*
X170298476Y-127503714D01*
X170203238Y-127551333D01*
X170631810Y-128122762D02*
X170536572Y-128170381D01*
X170298476Y-128170381D01*
X170203238Y-128122762D01*
X170155619Y-128027524D01*
X170155619Y-127932286D01*
X170203238Y-127837048D01*
X170298476Y-127789429D01*
X170536572Y-127789429D01*
X170631810Y-127741810D01*
X171250857Y-128170381D02*
X171155619Y-128122762D01*
X171108000Y-128027524D01*
X171108000Y-127170381D01*
X172012763Y-128122762D02*
X171917525Y-128170381D01*
X171727048Y-128170381D01*
X171631810Y-128122762D01*
X171584191Y-128027524D01*
X171584191Y-127646571D01*
X171631810Y-127551333D01*
X171727048Y-127503714D01*
X171917525Y-127503714D01*
X172012763Y-127551333D01*
X172060382Y-127646571D01*
X172060382Y-127741810D01*
X171584191Y-127837048D01*
X165060381Y-131651333D02*
X165774667Y-131651333D01*
X165917524Y-131698953D01*
X166012762Y-131794191D01*
X166060381Y-131937048D01*
X166060381Y-132032286D01*
X165060381Y-130746571D02*
X165060381Y-130937048D01*
X165108000Y-131032286D01*
X165155619Y-131079905D01*
X165298476Y-131175143D01*
X165488952Y-131222762D01*
X165869905Y-131222762D01*
X165965143Y-131175143D01*
X166012762Y-131127524D01*
X166060381Y-131032286D01*
X166060381Y-130841809D01*
X166012762Y-130746571D01*
X165965143Y-130698952D01*
X165869905Y-130651333D01*
X165631810Y-130651333D01*
X165536571Y-130698952D01*
X165488952Y-130746571D01*
X165441333Y-130841809D01*
X165441333Y-131032286D01*
X165488952Y-131127524D01*
X165536571Y-131175143D01*
X165631810Y-131222762D01*
X153932666Y-130449143D02*
X153885047Y-130496762D01*
X153742190Y-130544381D01*
X153646952Y-130544381D01*
X153504094Y-130496762D01*
X153408856Y-130401524D01*
X153361237Y-130306286D01*
X153313618Y-130115810D01*
X153313618Y-129972952D01*
X153361237Y-129782476D01*
X153408856Y-129687238D01*
X153504094Y-129592000D01*
X153646952Y-129544381D01*
X153742190Y-129544381D01*
X153885047Y-129592000D01*
X153932666Y-129639619D01*
X154504094Y-130544381D02*
X154408856Y-130496762D01*
X154361237Y-130449143D01*
X154313618Y-130353905D01*
X154313618Y-130068190D01*
X154361237Y-129972952D01*
X154408856Y-129925333D01*
X154504094Y-129877714D01*
X154646952Y-129877714D01*
X154742190Y-129925333D01*
X154789809Y-129972952D01*
X154837428Y-130068190D01*
X154837428Y-130353905D01*
X154789809Y-130449143D01*
X154742190Y-130496762D01*
X154646952Y-130544381D01*
X154504094Y-130544381D01*
X155265999Y-129877714D02*
X155265999Y-130544381D01*
X155265999Y-129972952D02*
X155313618Y-129925333D01*
X155408856Y-129877714D01*
X155551714Y-129877714D01*
X155646952Y-129925333D01*
X155694571Y-130020571D01*
X155694571Y-130544381D01*
X156170761Y-129877714D02*
X156170761Y-130544381D01*
X156170761Y-129972952D02*
X156218380Y-129925333D01*
X156313618Y-129877714D01*
X156456476Y-129877714D01*
X156551714Y-129925333D01*
X156599333Y-130020571D01*
X156599333Y-130544381D01*
X156837428Y-130639619D02*
X157599333Y-130639619D01*
X158027904Y-129544381D02*
X158123143Y-129544381D01*
X158218381Y-129592000D01*
X158266000Y-129639619D01*
X158313619Y-129734857D01*
X158361238Y-129925333D01*
X158361238Y-130163429D01*
X158313619Y-130353905D01*
X158266000Y-130449143D01*
X158218381Y-130496762D01*
X158123143Y-130544381D01*
X158027904Y-130544381D01*
X157932666Y-130496762D01*
X157885047Y-130449143D01*
X157837428Y-130353905D01*
X157789809Y-130163429D01*
X157789809Y-129925333D01*
X157837428Y-129734857D01*
X157885047Y-129639619D01*
X157932666Y-129592000D01*
X158027904Y-129544381D01*
X159313619Y-130544381D02*
X158742190Y-130544381D01*
X159027904Y-130544381D02*
X159027904Y-129544381D01*
X158932666Y-129687238D01*
X158837428Y-129782476D01*
X158742190Y-129830095D01*
X159646952Y-130544381D02*
X160170762Y-129877714D01*
X159646952Y-129877714D02*
X160170762Y-130544381D01*
X160742190Y-129544381D02*
X160837429Y-129544381D01*
X160932667Y-129592000D01*
X160980286Y-129639619D01*
X161027905Y-129734857D01*
X161075524Y-129925333D01*
X161075524Y-130163429D01*
X161027905Y-130353905D01*
X160980286Y-130449143D01*
X160932667Y-130496762D01*
X160837429Y-130544381D01*
X160742190Y-130544381D01*
X160646952Y-130496762D01*
X160599333Y-130449143D01*
X160551714Y-130353905D01*
X160504095Y-130163429D01*
X160504095Y-129925333D01*
X160551714Y-129734857D01*
X160599333Y-129639619D01*
X160646952Y-129592000D01*
X160742190Y-129544381D01*
X161456476Y-129639619D02*
X161504095Y-129592000D01*
X161599333Y-129544381D01*
X161837429Y-129544381D01*
X161932667Y-129592000D01*
X161980286Y-129639619D01*
X162027905Y-129734857D01*
X162027905Y-129830095D01*
X161980286Y-129972952D01*
X161408857Y-130544381D01*
X162027905Y-130544381D01*
X162218381Y-130639619D02*
X162980286Y-130639619D01*
X163218381Y-130544381D02*
X163218381Y-129544381D01*
X163551715Y-130258667D01*
X163885048Y-129544381D01*
X163885048Y-130544381D01*
X164789810Y-130544381D02*
X164789810Y-130020571D01*
X164742191Y-129925333D01*
X164646953Y-129877714D01*
X164456476Y-129877714D01*
X164361238Y-129925333D01*
X164789810Y-130496762D02*
X164694572Y-130544381D01*
X164456476Y-130544381D01*
X164361238Y-130496762D01*
X164313619Y-130401524D01*
X164313619Y-130306286D01*
X164361238Y-130211048D01*
X164456476Y-130163429D01*
X164694572Y-130163429D01*
X164789810Y-130115810D01*
X165408857Y-130544381D02*
X165313619Y-130496762D01*
X165266000Y-130401524D01*
X165266000Y-129544381D01*
X166170763Y-130496762D02*
X166075525Y-130544381D01*
X165885048Y-130544381D01*
X165789810Y-130496762D01*
X165742191Y-130401524D01*
X165742191Y-130020571D01*
X165789810Y-129925333D01*
X165885048Y-129877714D01*
X166075525Y-129877714D01*
X166170763Y-129925333D01*
X166218382Y-130020571D01*
X166218382Y-130115810D01*
X165742191Y-130211048D01*
X159218381Y-126825333D02*
X159932667Y-126825333D01*
X160075524Y-126872953D01*
X160170762Y-126968191D01*
X160218381Y-127111048D01*
X160218381Y-127206286D01*
X159218381Y-126444381D02*
X159218381Y-125777714D01*
X160218381Y-126206286D01*
X143264666Y-130449143D02*
X143217047Y-130496762D01*
X143074190Y-130544381D01*
X142978952Y-130544381D01*
X142836094Y-130496762D01*
X142740856Y-130401524D01*
X142693237Y-130306286D01*
X142645618Y-130115810D01*
X142645618Y-129972952D01*
X142693237Y-129782476D01*
X142740856Y-129687238D01*
X142836094Y-129592000D01*
X142978952Y-129544381D01*
X143074190Y-129544381D01*
X143217047Y-129592000D01*
X143264666Y-129639619D01*
X143836094Y-130544381D02*
X143740856Y-130496762D01*
X143693237Y-130449143D01*
X143645618Y-130353905D01*
X143645618Y-130068190D01*
X143693237Y-129972952D01*
X143740856Y-129925333D01*
X143836094Y-129877714D01*
X143978952Y-129877714D01*
X144074190Y-129925333D01*
X144121809Y-129972952D01*
X144169428Y-130068190D01*
X144169428Y-130353905D01*
X144121809Y-130449143D01*
X144074190Y-130496762D01*
X143978952Y-130544381D01*
X143836094Y-130544381D01*
X144597999Y-129877714D02*
X144597999Y-130544381D01*
X144597999Y-129972952D02*
X144645618Y-129925333D01*
X144740856Y-129877714D01*
X144883714Y-129877714D01*
X144978952Y-129925333D01*
X145026571Y-130020571D01*
X145026571Y-130544381D01*
X145502761Y-129877714D02*
X145502761Y-130544381D01*
X145502761Y-129972952D02*
X145550380Y-129925333D01*
X145645618Y-129877714D01*
X145788476Y-129877714D01*
X145883714Y-129925333D01*
X145931333Y-130020571D01*
X145931333Y-130544381D01*
X146169428Y-130639619D02*
X146931333Y-130639619D01*
X147359904Y-129544381D02*
X147455143Y-129544381D01*
X147550381Y-129592000D01*
X147598000Y-129639619D01*
X147645619Y-129734857D01*
X147693238Y-129925333D01*
X147693238Y-130163429D01*
X147645619Y-130353905D01*
X147598000Y-130449143D01*
X147550381Y-130496762D01*
X147455143Y-130544381D01*
X147359904Y-130544381D01*
X147264666Y-130496762D01*
X147217047Y-130449143D01*
X147169428Y-130353905D01*
X147121809Y-130163429D01*
X147121809Y-129925333D01*
X147169428Y-129734857D01*
X147217047Y-129639619D01*
X147264666Y-129592000D01*
X147359904Y-129544381D01*
X148645619Y-130544381D02*
X148074190Y-130544381D01*
X148359904Y-130544381D02*
X148359904Y-129544381D01*
X148264666Y-129687238D01*
X148169428Y-129782476D01*
X148074190Y-129830095D01*
X148978952Y-130544381D02*
X149502762Y-129877714D01*
X148978952Y-129877714D02*
X149502762Y-130544381D01*
X150074190Y-129544381D02*
X150169429Y-129544381D01*
X150264667Y-129592000D01*
X150312286Y-129639619D01*
X150359905Y-129734857D01*
X150407524Y-129925333D01*
X150407524Y-130163429D01*
X150359905Y-130353905D01*
X150312286Y-130449143D01*
X150264667Y-130496762D01*
X150169429Y-130544381D01*
X150074190Y-130544381D01*
X149978952Y-130496762D01*
X149931333Y-130449143D01*
X149883714Y-130353905D01*
X149836095Y-130163429D01*
X149836095Y-129925333D01*
X149883714Y-129734857D01*
X149931333Y-129639619D01*
X149978952Y-129592000D01*
X150074190Y-129544381D01*
X150788476Y-129639619D02*
X150836095Y-129592000D01*
X150931333Y-129544381D01*
X151169429Y-129544381D01*
X151264667Y-129592000D01*
X151312286Y-129639619D01*
X151359905Y-129734857D01*
X151359905Y-129830095D01*
X151312286Y-129972952D01*
X150740857Y-130544381D01*
X151359905Y-130544381D01*
X151550381Y-130639619D02*
X152312286Y-130639619D01*
X152550381Y-130544381D02*
X152550381Y-129544381D01*
X152883715Y-130258667D01*
X153217048Y-129544381D01*
X153217048Y-130544381D01*
X154121810Y-130544381D02*
X154121810Y-130020571D01*
X154074191Y-129925333D01*
X153978953Y-129877714D01*
X153788476Y-129877714D01*
X153693238Y-129925333D01*
X154121810Y-130496762D02*
X154026572Y-130544381D01*
X153788476Y-130544381D01*
X153693238Y-130496762D01*
X153645619Y-130401524D01*
X153645619Y-130306286D01*
X153693238Y-130211048D01*
X153788476Y-130163429D01*
X154026572Y-130163429D01*
X154121810Y-130115810D01*
X154740857Y-130544381D02*
X154645619Y-130496762D01*
X154598000Y-130401524D01*
X154598000Y-129544381D01*
X155502763Y-130496762D02*
X155407525Y-130544381D01*
X155217048Y-130544381D01*
X155121810Y-130496762D01*
X155074191Y-130401524D01*
X155074191Y-130020571D01*
X155121810Y-129925333D01*
X155217048Y-129877714D01*
X155407525Y-129877714D01*
X155502763Y-129925333D01*
X155550382Y-130020571D01*
X155550382Y-130115810D01*
X155074191Y-130211048D01*
X148550381Y-126825333D02*
X149264667Y-126825333D01*
X149407524Y-126872953D01*
X149502762Y-126968191D01*
X149550381Y-127111048D01*
X149550381Y-127206286D01*
X148978952Y-126206286D02*
X148931333Y-126301524D01*
X148883714Y-126349143D01*
X148788476Y-126396762D01*
X148740857Y-126396762D01*
X148645619Y-126349143D01*
X148598000Y-126301524D01*
X148550381Y-126206286D01*
X148550381Y-126015809D01*
X148598000Y-125920571D01*
X148645619Y-125872952D01*
X148740857Y-125825333D01*
X148788476Y-125825333D01*
X148883714Y-125872952D01*
X148931333Y-125920571D01*
X148978952Y-126015809D01*
X148978952Y-126206286D01*
X149026571Y-126301524D01*
X149074190Y-126349143D01*
X149169429Y-126396762D01*
X149359905Y-126396762D01*
X149455143Y-126349143D01*
X149502762Y-126301524D01*
X149550381Y-126206286D01*
X149550381Y-126015809D01*
X149502762Y-125920571D01*
X149455143Y-125872952D01*
X149359905Y-125825333D01*
X149169429Y-125825333D01*
X149074190Y-125872952D01*
X149026571Y-125920571D01*
X148978952Y-126015809D01*
X132596666Y-130449143D02*
X132549047Y-130496762D01*
X132406190Y-130544381D01*
X132310952Y-130544381D01*
X132168094Y-130496762D01*
X132072856Y-130401524D01*
X132025237Y-130306286D01*
X131977618Y-130115810D01*
X131977618Y-129972952D01*
X132025237Y-129782476D01*
X132072856Y-129687238D01*
X132168094Y-129592000D01*
X132310952Y-129544381D01*
X132406190Y-129544381D01*
X132549047Y-129592000D01*
X132596666Y-129639619D01*
X133168094Y-130544381D02*
X133072856Y-130496762D01*
X133025237Y-130449143D01*
X132977618Y-130353905D01*
X132977618Y-130068190D01*
X133025237Y-129972952D01*
X133072856Y-129925333D01*
X133168094Y-129877714D01*
X133310952Y-129877714D01*
X133406190Y-129925333D01*
X133453809Y-129972952D01*
X133501428Y-130068190D01*
X133501428Y-130353905D01*
X133453809Y-130449143D01*
X133406190Y-130496762D01*
X133310952Y-130544381D01*
X133168094Y-130544381D01*
X133929999Y-129877714D02*
X133929999Y-130544381D01*
X133929999Y-129972952D02*
X133977618Y-129925333D01*
X134072856Y-129877714D01*
X134215714Y-129877714D01*
X134310952Y-129925333D01*
X134358571Y-130020571D01*
X134358571Y-130544381D01*
X134834761Y-129877714D02*
X134834761Y-130544381D01*
X134834761Y-129972952D02*
X134882380Y-129925333D01*
X134977618Y-129877714D01*
X135120476Y-129877714D01*
X135215714Y-129925333D01*
X135263333Y-130020571D01*
X135263333Y-130544381D01*
X135501428Y-130639619D02*
X136263333Y-130639619D01*
X136691904Y-129544381D02*
X136787143Y-129544381D01*
X136882381Y-129592000D01*
X136930000Y-129639619D01*
X136977619Y-129734857D01*
X137025238Y-129925333D01*
X137025238Y-130163429D01*
X136977619Y-130353905D01*
X136930000Y-130449143D01*
X136882381Y-130496762D01*
X136787143Y-130544381D01*
X136691904Y-130544381D01*
X136596666Y-130496762D01*
X136549047Y-130449143D01*
X136501428Y-130353905D01*
X136453809Y-130163429D01*
X136453809Y-129925333D01*
X136501428Y-129734857D01*
X136549047Y-129639619D01*
X136596666Y-129592000D01*
X136691904Y-129544381D01*
X137977619Y-130544381D02*
X137406190Y-130544381D01*
X137691904Y-130544381D02*
X137691904Y-129544381D01*
X137596666Y-129687238D01*
X137501428Y-129782476D01*
X137406190Y-129830095D01*
X138310952Y-130544381D02*
X138834762Y-129877714D01*
X138310952Y-129877714D02*
X138834762Y-130544381D01*
X139406190Y-129544381D02*
X139501429Y-129544381D01*
X139596667Y-129592000D01*
X139644286Y-129639619D01*
X139691905Y-129734857D01*
X139739524Y-129925333D01*
X139739524Y-130163429D01*
X139691905Y-130353905D01*
X139644286Y-130449143D01*
X139596667Y-130496762D01*
X139501429Y-130544381D01*
X139406190Y-130544381D01*
X139310952Y-130496762D01*
X139263333Y-130449143D01*
X139215714Y-130353905D01*
X139168095Y-130163429D01*
X139168095Y-129925333D01*
X139215714Y-129734857D01*
X139263333Y-129639619D01*
X139310952Y-129592000D01*
X139406190Y-129544381D01*
X140120476Y-129639619D02*
X140168095Y-129592000D01*
X140263333Y-129544381D01*
X140501429Y-129544381D01*
X140596667Y-129592000D01*
X140644286Y-129639619D01*
X140691905Y-129734857D01*
X140691905Y-129830095D01*
X140644286Y-129972952D01*
X140072857Y-130544381D01*
X140691905Y-130544381D01*
X140882381Y-130639619D02*
X141644286Y-130639619D01*
X141882381Y-130544381D02*
X141882381Y-129544381D01*
X142215715Y-130258667D01*
X142549048Y-129544381D01*
X142549048Y-130544381D01*
X143453810Y-130544381D02*
X143453810Y-130020571D01*
X143406191Y-129925333D01*
X143310953Y-129877714D01*
X143120476Y-129877714D01*
X143025238Y-129925333D01*
X143453810Y-130496762D02*
X143358572Y-130544381D01*
X143120476Y-130544381D01*
X143025238Y-130496762D01*
X142977619Y-130401524D01*
X142977619Y-130306286D01*
X143025238Y-130211048D01*
X143120476Y-130163429D01*
X143358572Y-130163429D01*
X143453810Y-130115810D01*
X144072857Y-130544381D02*
X143977619Y-130496762D01*
X143930000Y-130401524D01*
X143930000Y-129544381D01*
X144834763Y-130496762D02*
X144739525Y-130544381D01*
X144549048Y-130544381D01*
X144453810Y-130496762D01*
X144406191Y-130401524D01*
X144406191Y-130020571D01*
X144453810Y-129925333D01*
X144549048Y-129877714D01*
X144739525Y-129877714D01*
X144834763Y-129925333D01*
X144882382Y-130020571D01*
X144882382Y-130115810D01*
X144406191Y-130211048D01*
X137882381Y-126825333D02*
X138596667Y-126825333D01*
X138739524Y-126872953D01*
X138834762Y-126968191D01*
X138882381Y-127111048D01*
X138882381Y-127206286D01*
X138882381Y-126301524D02*
X138882381Y-126111048D01*
X138834762Y-126015809D01*
X138787143Y-125968190D01*
X138644286Y-125872952D01*
X138453810Y-125825333D01*
X138072857Y-125825333D01*
X137977619Y-125872952D01*
X137930000Y-125920571D01*
X137882381Y-126015809D01*
X137882381Y-126206286D01*
X137930000Y-126301524D01*
X137977619Y-126349143D01*
X138072857Y-126396762D01*
X138310952Y-126396762D01*
X138406190Y-126349143D01*
X138453810Y-126301524D01*
X138501429Y-126206286D01*
X138501429Y-126015809D01*
X138453810Y-125920571D01*
X138406190Y-125872952D01*
X138310952Y-125825333D01*
X121928666Y-130449143D02*
X121881047Y-130496762D01*
X121738190Y-130544381D01*
X121642952Y-130544381D01*
X121500094Y-130496762D01*
X121404856Y-130401524D01*
X121357237Y-130306286D01*
X121309618Y-130115810D01*
X121309618Y-129972952D01*
X121357237Y-129782476D01*
X121404856Y-129687238D01*
X121500094Y-129592000D01*
X121642952Y-129544381D01*
X121738190Y-129544381D01*
X121881047Y-129592000D01*
X121928666Y-129639619D01*
X122500094Y-130544381D02*
X122404856Y-130496762D01*
X122357237Y-130449143D01*
X122309618Y-130353905D01*
X122309618Y-130068190D01*
X122357237Y-129972952D01*
X122404856Y-129925333D01*
X122500094Y-129877714D01*
X122642952Y-129877714D01*
X122738190Y-129925333D01*
X122785809Y-129972952D01*
X122833428Y-130068190D01*
X122833428Y-130353905D01*
X122785809Y-130449143D01*
X122738190Y-130496762D01*
X122642952Y-130544381D01*
X122500094Y-130544381D01*
X123261999Y-129877714D02*
X123261999Y-130544381D01*
X123261999Y-129972952D02*
X123309618Y-129925333D01*
X123404856Y-129877714D01*
X123547714Y-129877714D01*
X123642952Y-129925333D01*
X123690571Y-130020571D01*
X123690571Y-130544381D01*
X124166761Y-129877714D02*
X124166761Y-130544381D01*
X124166761Y-129972952D02*
X124214380Y-129925333D01*
X124309618Y-129877714D01*
X124452476Y-129877714D01*
X124547714Y-129925333D01*
X124595333Y-130020571D01*
X124595333Y-130544381D01*
X124833428Y-130639619D02*
X125595333Y-130639619D01*
X126023904Y-129544381D02*
X126119143Y-129544381D01*
X126214381Y-129592000D01*
X126262000Y-129639619D01*
X126309619Y-129734857D01*
X126357238Y-129925333D01*
X126357238Y-130163429D01*
X126309619Y-130353905D01*
X126262000Y-130449143D01*
X126214381Y-130496762D01*
X126119143Y-130544381D01*
X126023904Y-130544381D01*
X125928666Y-130496762D01*
X125881047Y-130449143D01*
X125833428Y-130353905D01*
X125785809Y-130163429D01*
X125785809Y-129925333D01*
X125833428Y-129734857D01*
X125881047Y-129639619D01*
X125928666Y-129592000D01*
X126023904Y-129544381D01*
X127309619Y-130544381D02*
X126738190Y-130544381D01*
X127023904Y-130544381D02*
X127023904Y-129544381D01*
X126928666Y-129687238D01*
X126833428Y-129782476D01*
X126738190Y-129830095D01*
X127642952Y-130544381D02*
X128166762Y-129877714D01*
X127642952Y-129877714D02*
X128166762Y-130544381D01*
X128738190Y-129544381D02*
X128833429Y-129544381D01*
X128928667Y-129592000D01*
X128976286Y-129639619D01*
X129023905Y-129734857D01*
X129071524Y-129925333D01*
X129071524Y-130163429D01*
X129023905Y-130353905D01*
X128976286Y-130449143D01*
X128928667Y-130496762D01*
X128833429Y-130544381D01*
X128738190Y-130544381D01*
X128642952Y-130496762D01*
X128595333Y-130449143D01*
X128547714Y-130353905D01*
X128500095Y-130163429D01*
X128500095Y-129925333D01*
X128547714Y-129734857D01*
X128595333Y-129639619D01*
X128642952Y-129592000D01*
X128738190Y-129544381D01*
X129452476Y-129639619D02*
X129500095Y-129592000D01*
X129595333Y-129544381D01*
X129833429Y-129544381D01*
X129928667Y-129592000D01*
X129976286Y-129639619D01*
X130023905Y-129734857D01*
X130023905Y-129830095D01*
X129976286Y-129972952D01*
X129404857Y-130544381D01*
X130023905Y-130544381D01*
X130214381Y-130639619D02*
X130976286Y-130639619D01*
X131214381Y-130544381D02*
X131214381Y-129544381D01*
X131547715Y-130258667D01*
X131881048Y-129544381D01*
X131881048Y-130544381D01*
X132785810Y-130544381D02*
X132785810Y-130020571D01*
X132738191Y-129925333D01*
X132642953Y-129877714D01*
X132452476Y-129877714D01*
X132357238Y-129925333D01*
X132785810Y-130496762D02*
X132690572Y-130544381D01*
X132452476Y-130544381D01*
X132357238Y-130496762D01*
X132309619Y-130401524D01*
X132309619Y-130306286D01*
X132357238Y-130211048D01*
X132452476Y-130163429D01*
X132690572Y-130163429D01*
X132785810Y-130115810D01*
X133404857Y-130544381D02*
X133309619Y-130496762D01*
X133262000Y-130401524D01*
X133262000Y-129544381D01*
X134166763Y-130496762D02*
X134071525Y-130544381D01*
X133881048Y-130544381D01*
X133785810Y-130496762D01*
X133738191Y-130401524D01*
X133738191Y-130020571D01*
X133785810Y-129925333D01*
X133881048Y-129877714D01*
X134071525Y-129877714D01*
X134166763Y-129925333D01*
X134214382Y-130020571D01*
X134214382Y-130115810D01*
X133738191Y-130211048D01*
X127214381Y-127301523D02*
X127928667Y-127301523D01*
X128071524Y-127349143D01*
X128166762Y-127444381D01*
X128214381Y-127587238D01*
X128214381Y-127682476D01*
X128214381Y-126301523D02*
X128214381Y-126872952D01*
X128214381Y-126587238D02*
X127214381Y-126587238D01*
X127357238Y-126682476D01*
X127452476Y-126777714D01*
X127500095Y-126872952D01*
X127214381Y-125682476D02*
X127214381Y-125587237D01*
X127262000Y-125491999D01*
X127309619Y-125444380D01*
X127404857Y-125396761D01*
X127595333Y-125349142D01*
X127833429Y-125349142D01*
X128023905Y-125396761D01*
X128119143Y-125444380D01*
X128166762Y-125491999D01*
X128214381Y-125587237D01*
X128214381Y-125682476D01*
X128166762Y-125777714D01*
X128119143Y-125825333D01*
X128023905Y-125872952D01*
X127833429Y-125920571D01*
X127595333Y-125920571D01*
X127404857Y-125872952D01*
X127309619Y-125825333D01*
X127262000Y-125777714D01*
X127214381Y-125682476D01*
X131746858Y-134080571D02*
X131889715Y-134128190D01*
X131937334Y-134175810D01*
X131984953Y-134271048D01*
X131984953Y-134413905D01*
X131937334Y-134509143D01*
X131889715Y-134556762D01*
X131794477Y-134604381D01*
X131413524Y-134604381D01*
X131413524Y-133604381D01*
X131746858Y-133604381D01*
X131842096Y-133652000D01*
X131889715Y-133699619D01*
X131937334Y-133794857D01*
X131937334Y-133890095D01*
X131889715Y-133985333D01*
X131842096Y-134032952D01*
X131746858Y-134080571D01*
X131413524Y-134080571D01*
X132984953Y-134509143D02*
X132937334Y-134556762D01*
X132794477Y-134604381D01*
X132699239Y-134604381D01*
X132556381Y-134556762D01*
X132461143Y-134461524D01*
X132413524Y-134366286D01*
X132365905Y-134175810D01*
X132365905Y-134032952D01*
X132413524Y-133842476D01*
X132461143Y-133747238D01*
X132556381Y-133652000D01*
X132699239Y-133604381D01*
X132794477Y-133604381D01*
X132937334Y-133652000D01*
X132984953Y-133699619D01*
X133556381Y-134032952D02*
X133461143Y-133985333D01*
X133413524Y-133937714D01*
X133365905Y-133842476D01*
X133365905Y-133794857D01*
X133413524Y-133699619D01*
X133461143Y-133652000D01*
X133556381Y-133604381D01*
X133746858Y-133604381D01*
X133842096Y-133652000D01*
X133889715Y-133699619D01*
X133937334Y-133794857D01*
X133937334Y-133842476D01*
X133889715Y-133937714D01*
X133842096Y-133985333D01*
X133746858Y-134032952D01*
X133556381Y-134032952D01*
X133461143Y-134080571D01*
X133413524Y-134128190D01*
X133365905Y-134223429D01*
X133365905Y-134413905D01*
X133413524Y-134509143D01*
X133461143Y-134556762D01*
X133556381Y-134604381D01*
X133746858Y-134604381D01*
X133842096Y-134556762D01*
X133889715Y-134509143D01*
X133937334Y-134413905D01*
X133937334Y-134223429D01*
X133889715Y-134128190D01*
X133842096Y-134080571D01*
X133746858Y-134032952D01*
X134794477Y-133937714D02*
X134794477Y-134604381D01*
X134556381Y-133556762D02*
X134318286Y-134271048D01*
X134937334Y-134271048D01*
X135223048Y-133604381D02*
X135889715Y-133604381D01*
X135461143Y-134604381D01*
D12*
X133877810Y-136699619D02*
X133854000Y-136747238D01*
X133806381Y-136794857D01*
X133734952Y-136866286D01*
X133711143Y-136913905D01*
X133711143Y-136961524D01*
X133830190Y-136937714D02*
X133806381Y-136985333D01*
X133758762Y-137032952D01*
X133663524Y-137056762D01*
X133496857Y-137056762D01*
X133401619Y-137032952D01*
X133354000Y-136985333D01*
X133330190Y-136937714D01*
X133330190Y-136842476D01*
X133354000Y-136794857D01*
X133401619Y-136747238D01*
X133496857Y-136723429D01*
X133663524Y-136723429D01*
X133758762Y-136747238D01*
X133806381Y-136794857D01*
X133830190Y-136842476D01*
X133830190Y-136937714D01*
X133830190Y-136247238D02*
X133830190Y-136532952D01*
X133830190Y-136390095D02*
X133330190Y-136390095D01*
X133401619Y-136437714D01*
X133449238Y-136485333D01*
X133473048Y-136532952D01*
D11*
X142414858Y-134080571D02*
X142557715Y-134128190D01*
X142605334Y-134175810D01*
X142652953Y-134271048D01*
X142652953Y-134413905D01*
X142605334Y-134509143D01*
X142557715Y-134556762D01*
X142462477Y-134604381D01*
X142081524Y-134604381D01*
X142081524Y-133604381D01*
X142414858Y-133604381D01*
X142510096Y-133652000D01*
X142557715Y-133699619D01*
X142605334Y-133794857D01*
X142605334Y-133890095D01*
X142557715Y-133985333D01*
X142510096Y-134032952D01*
X142414858Y-134080571D01*
X142081524Y-134080571D01*
X143652953Y-134509143D02*
X143605334Y-134556762D01*
X143462477Y-134604381D01*
X143367239Y-134604381D01*
X143224381Y-134556762D01*
X143129143Y-134461524D01*
X143081524Y-134366286D01*
X143033905Y-134175810D01*
X143033905Y-134032952D01*
X143081524Y-133842476D01*
X143129143Y-133747238D01*
X143224381Y-133652000D01*
X143367239Y-133604381D01*
X143462477Y-133604381D01*
X143605334Y-133652000D01*
X143652953Y-133699619D01*
X144224381Y-134032952D02*
X144129143Y-133985333D01*
X144081524Y-133937714D01*
X144033905Y-133842476D01*
X144033905Y-133794857D01*
X144081524Y-133699619D01*
X144129143Y-133652000D01*
X144224381Y-133604381D01*
X144414858Y-133604381D01*
X144510096Y-133652000D01*
X144557715Y-133699619D01*
X144605334Y-133794857D01*
X144605334Y-133842476D01*
X144557715Y-133937714D01*
X144510096Y-133985333D01*
X144414858Y-134032952D01*
X144224381Y-134032952D01*
X144129143Y-134080571D01*
X144081524Y-134128190D01*
X144033905Y-134223429D01*
X144033905Y-134413905D01*
X144081524Y-134509143D01*
X144129143Y-134556762D01*
X144224381Y-134604381D01*
X144414858Y-134604381D01*
X144510096Y-134556762D01*
X144557715Y-134509143D01*
X144605334Y-134413905D01*
X144605334Y-134223429D01*
X144557715Y-134128190D01*
X144510096Y-134080571D01*
X144414858Y-134032952D01*
X145462477Y-133937714D02*
X145462477Y-134604381D01*
X145224381Y-133556762D02*
X144986286Y-134271048D01*
X145605334Y-134271048D01*
X145891048Y-133604381D02*
X146557715Y-133604381D01*
X146129143Y-134604381D01*
D12*
X144545810Y-136699619D02*
X144522000Y-136747238D01*
X144474381Y-136794857D01*
X144402952Y-136866286D01*
X144379143Y-136913905D01*
X144379143Y-136961524D01*
X144498190Y-136937714D02*
X144474381Y-136985333D01*
X144426762Y-137032952D01*
X144331524Y-137056762D01*
X144164857Y-137056762D01*
X144069619Y-137032952D01*
X144022000Y-136985333D01*
X143998190Y-136937714D01*
X143998190Y-136842476D01*
X144022000Y-136794857D01*
X144069619Y-136747238D01*
X144164857Y-136723429D01*
X144331524Y-136723429D01*
X144426762Y-136747238D01*
X144474381Y-136794857D01*
X144498190Y-136842476D01*
X144498190Y-136937714D01*
X144045810Y-136532952D02*
X144022000Y-136509142D01*
X143998190Y-136461523D01*
X143998190Y-136342476D01*
X144022000Y-136294857D01*
X144045810Y-136271047D01*
X144093429Y-136247238D01*
X144141048Y-136247238D01*
X144212476Y-136271047D01*
X144498190Y-136556761D01*
X144498190Y-136247238D01*
D11*
X153082858Y-134080571D02*
X153225715Y-134128190D01*
X153273334Y-134175810D01*
X153320953Y-134271048D01*
X153320953Y-134413905D01*
X153273334Y-134509143D01*
X153225715Y-134556762D01*
X153130477Y-134604381D01*
X152749524Y-134604381D01*
X152749524Y-133604381D01*
X153082858Y-133604381D01*
X153178096Y-133652000D01*
X153225715Y-133699619D01*
X153273334Y-133794857D01*
X153273334Y-133890095D01*
X153225715Y-133985333D01*
X153178096Y-134032952D01*
X153082858Y-134080571D01*
X152749524Y-134080571D01*
X154320953Y-134509143D02*
X154273334Y-134556762D01*
X154130477Y-134604381D01*
X154035239Y-134604381D01*
X153892381Y-134556762D01*
X153797143Y-134461524D01*
X153749524Y-134366286D01*
X153701905Y-134175810D01*
X153701905Y-134032952D01*
X153749524Y-133842476D01*
X153797143Y-133747238D01*
X153892381Y-133652000D01*
X154035239Y-133604381D01*
X154130477Y-133604381D01*
X154273334Y-133652000D01*
X154320953Y-133699619D01*
X154892381Y-134032952D02*
X154797143Y-133985333D01*
X154749524Y-133937714D01*
X154701905Y-133842476D01*
X154701905Y-133794857D01*
X154749524Y-133699619D01*
X154797143Y-133652000D01*
X154892381Y-133604381D01*
X155082858Y-133604381D01*
X155178096Y-133652000D01*
X155225715Y-133699619D01*
X155273334Y-133794857D01*
X155273334Y-133842476D01*
X155225715Y-133937714D01*
X155178096Y-133985333D01*
X155082858Y-134032952D01*
X154892381Y-134032952D01*
X154797143Y-134080571D01*
X154749524Y-134128190D01*
X154701905Y-134223429D01*
X154701905Y-134413905D01*
X154749524Y-134509143D01*
X154797143Y-134556762D01*
X154892381Y-134604381D01*
X155082858Y-134604381D01*
X155178096Y-134556762D01*
X155225715Y-134509143D01*
X155273334Y-134413905D01*
X155273334Y-134223429D01*
X155225715Y-134128190D01*
X155178096Y-134080571D01*
X155082858Y-134032952D01*
X156130477Y-133937714D02*
X156130477Y-134604381D01*
X155892381Y-133556762D02*
X155654286Y-134271048D01*
X156273334Y-134271048D01*
X156559048Y-133604381D02*
X157225715Y-133604381D01*
X156797143Y-134604381D01*
D12*
X155213810Y-136699619D02*
X155190000Y-136747238D01*
X155142381Y-136794857D01*
X155070952Y-136866286D01*
X155047143Y-136913905D01*
X155047143Y-136961524D01*
X155166190Y-136937714D02*
X155142381Y-136985333D01*
X155094762Y-137032952D01*
X154999524Y-137056762D01*
X154832857Y-137056762D01*
X154737619Y-137032952D01*
X154690000Y-136985333D01*
X154666190Y-136937714D01*
X154666190Y-136842476D01*
X154690000Y-136794857D01*
X154737619Y-136747238D01*
X154832857Y-136723429D01*
X154999524Y-136723429D01*
X155094762Y-136747238D01*
X155142381Y-136794857D01*
X155166190Y-136842476D01*
X155166190Y-136937714D01*
X154666190Y-136556761D02*
X154666190Y-136247238D01*
X154856667Y-136413904D01*
X154856667Y-136342476D01*
X154880476Y-136294857D01*
X154904286Y-136271047D01*
X154951905Y-136247238D01*
X155070952Y-136247238D01*
X155118571Y-136271047D01*
X155142381Y-136294857D01*
X155166190Y-136342476D01*
X155166190Y-136485333D01*
X155142381Y-136532952D01*
X155118571Y-136556761D01*
D11*
X163750858Y-134080571D02*
X163893715Y-134128190D01*
X163941334Y-134175810D01*
X163988953Y-134271048D01*
X163988953Y-134413905D01*
X163941334Y-134509143D01*
X163893715Y-134556762D01*
X163798477Y-134604381D01*
X163417524Y-134604381D01*
X163417524Y-133604381D01*
X163750858Y-133604381D01*
X163846096Y-133652000D01*
X163893715Y-133699619D01*
X163941334Y-133794857D01*
X163941334Y-133890095D01*
X163893715Y-133985333D01*
X163846096Y-134032952D01*
X163750858Y-134080571D01*
X163417524Y-134080571D01*
X164988953Y-134509143D02*
X164941334Y-134556762D01*
X164798477Y-134604381D01*
X164703239Y-134604381D01*
X164560381Y-134556762D01*
X164465143Y-134461524D01*
X164417524Y-134366286D01*
X164369905Y-134175810D01*
X164369905Y-134032952D01*
X164417524Y-133842476D01*
X164465143Y-133747238D01*
X164560381Y-133652000D01*
X164703239Y-133604381D01*
X164798477Y-133604381D01*
X164941334Y-133652000D01*
X164988953Y-133699619D01*
X165560381Y-134032952D02*
X165465143Y-133985333D01*
X165417524Y-133937714D01*
X165369905Y-133842476D01*
X165369905Y-133794857D01*
X165417524Y-133699619D01*
X165465143Y-133652000D01*
X165560381Y-133604381D01*
X165750858Y-133604381D01*
X165846096Y-133652000D01*
X165893715Y-133699619D01*
X165941334Y-133794857D01*
X165941334Y-133842476D01*
X165893715Y-133937714D01*
X165846096Y-133985333D01*
X165750858Y-134032952D01*
X165560381Y-134032952D01*
X165465143Y-134080571D01*
X165417524Y-134128190D01*
X165369905Y-134223429D01*
X165369905Y-134413905D01*
X165417524Y-134509143D01*
X165465143Y-134556762D01*
X165560381Y-134604381D01*
X165750858Y-134604381D01*
X165846096Y-134556762D01*
X165893715Y-134509143D01*
X165941334Y-134413905D01*
X165941334Y-134223429D01*
X165893715Y-134128190D01*
X165846096Y-134080571D01*
X165750858Y-134032952D01*
X166798477Y-133937714D02*
X166798477Y-134604381D01*
X166560381Y-133556762D02*
X166322286Y-134271048D01*
X166941334Y-134271048D01*
X167227048Y-133604381D02*
X167893715Y-133604381D01*
X167465143Y-134604381D01*
D12*
X165881810Y-136699619D02*
X165858000Y-136747238D01*
X165810381Y-136794857D01*
X165738952Y-136866286D01*
X165715143Y-136913905D01*
X165715143Y-136961524D01*
X165834190Y-136937714D02*
X165810381Y-136985333D01*
X165762762Y-137032952D01*
X165667524Y-137056762D01*
X165500857Y-137056762D01*
X165405619Y-137032952D01*
X165358000Y-136985333D01*
X165334190Y-136937714D01*
X165334190Y-136842476D01*
X165358000Y-136794857D01*
X165405619Y-136747238D01*
X165500857Y-136723429D01*
X165667524Y-136723429D01*
X165762762Y-136747238D01*
X165810381Y-136794857D01*
X165834190Y-136842476D01*
X165834190Y-136937714D01*
X165500857Y-136294857D02*
X165834190Y-136294857D01*
X165310381Y-136413904D02*
X165667524Y-136532952D01*
X165667524Y-136223428D01*
D11*
X157908858Y-123586571D02*
X158051715Y-123634190D01*
X158099334Y-123681810D01*
X158146953Y-123777048D01*
X158146953Y-123919905D01*
X158099334Y-124015143D01*
X158051715Y-124062762D01*
X157956477Y-124110381D01*
X157575524Y-124110381D01*
X157575524Y-123110381D01*
X157908858Y-123110381D01*
X158004096Y-123158000D01*
X158051715Y-123205619D01*
X158099334Y-123300857D01*
X158099334Y-123396095D01*
X158051715Y-123491333D01*
X158004096Y-123538952D01*
X157908858Y-123586571D01*
X157575524Y-123586571D01*
X159146953Y-124015143D02*
X159099334Y-124062762D01*
X158956477Y-124110381D01*
X158861239Y-124110381D01*
X158718381Y-124062762D01*
X158623143Y-123967524D01*
X158575524Y-123872286D01*
X158527905Y-123681810D01*
X158527905Y-123538952D01*
X158575524Y-123348476D01*
X158623143Y-123253238D01*
X158718381Y-123158000D01*
X158861239Y-123110381D01*
X158956477Y-123110381D01*
X159099334Y-123158000D01*
X159146953Y-123205619D01*
X159718381Y-123538952D02*
X159623143Y-123491333D01*
X159575524Y-123443714D01*
X159527905Y-123348476D01*
X159527905Y-123300857D01*
X159575524Y-123205619D01*
X159623143Y-123158000D01*
X159718381Y-123110381D01*
X159908858Y-123110381D01*
X160004096Y-123158000D01*
X160051715Y-123205619D01*
X160099334Y-123300857D01*
X160099334Y-123348476D01*
X160051715Y-123443714D01*
X160004096Y-123491333D01*
X159908858Y-123538952D01*
X159718381Y-123538952D01*
X159623143Y-123586571D01*
X159575524Y-123634190D01*
X159527905Y-123729429D01*
X159527905Y-123919905D01*
X159575524Y-124015143D01*
X159623143Y-124062762D01*
X159718381Y-124110381D01*
X159908858Y-124110381D01*
X160004096Y-124062762D01*
X160051715Y-124015143D01*
X160099334Y-123919905D01*
X160099334Y-123729429D01*
X160051715Y-123634190D01*
X160004096Y-123586571D01*
X159908858Y-123538952D01*
X160956477Y-123443714D02*
X160956477Y-124110381D01*
X160718381Y-123062762D02*
X160480286Y-123777048D01*
X161099334Y-123777048D01*
X161385048Y-123110381D02*
X162051715Y-123110381D01*
X161623143Y-124110381D01*
D12*
X160039810Y-121205619D02*
X160016000Y-121253238D01*
X159968381Y-121300857D01*
X159896952Y-121372286D01*
X159873143Y-121419905D01*
X159873143Y-121467524D01*
X159992190Y-121443714D02*
X159968381Y-121491333D01*
X159920762Y-121538952D01*
X159825524Y-121562762D01*
X159658857Y-121562762D01*
X159563619Y-121538952D01*
X159516000Y-121491333D01*
X159492190Y-121443714D01*
X159492190Y-121348476D01*
X159516000Y-121300857D01*
X159563619Y-121253238D01*
X159658857Y-121229429D01*
X159825524Y-121229429D01*
X159920762Y-121253238D01*
X159968381Y-121300857D01*
X159992190Y-121348476D01*
X159992190Y-121443714D01*
X159492190Y-120777047D02*
X159492190Y-121015142D01*
X159730286Y-121038952D01*
X159706476Y-121015142D01*
X159682667Y-120967523D01*
X159682667Y-120848476D01*
X159706476Y-120800857D01*
X159730286Y-120777047D01*
X159777905Y-120753238D01*
X159896952Y-120753238D01*
X159944571Y-120777047D01*
X159968381Y-120800857D01*
X159992190Y-120848476D01*
X159992190Y-120967523D01*
X159968381Y-121015142D01*
X159944571Y-121038952D01*
D11*
X147240858Y-123586571D02*
X147383715Y-123634190D01*
X147431334Y-123681810D01*
X147478953Y-123777048D01*
X147478953Y-123919905D01*
X147431334Y-124015143D01*
X147383715Y-124062762D01*
X147288477Y-124110381D01*
X146907524Y-124110381D01*
X146907524Y-123110381D01*
X147240858Y-123110381D01*
X147336096Y-123158000D01*
X147383715Y-123205619D01*
X147431334Y-123300857D01*
X147431334Y-123396095D01*
X147383715Y-123491333D01*
X147336096Y-123538952D01*
X147240858Y-123586571D01*
X146907524Y-123586571D01*
X148478953Y-124015143D02*
X148431334Y-124062762D01*
X148288477Y-124110381D01*
X148193239Y-124110381D01*
X148050381Y-124062762D01*
X147955143Y-123967524D01*
X147907524Y-123872286D01*
X147859905Y-123681810D01*
X147859905Y-123538952D01*
X147907524Y-123348476D01*
X147955143Y-123253238D01*
X148050381Y-123158000D01*
X148193239Y-123110381D01*
X148288477Y-123110381D01*
X148431334Y-123158000D01*
X148478953Y-123205619D01*
X149050381Y-123538952D02*
X148955143Y-123491333D01*
X148907524Y-123443714D01*
X148859905Y-123348476D01*
X148859905Y-123300857D01*
X148907524Y-123205619D01*
X148955143Y-123158000D01*
X149050381Y-123110381D01*
X149240858Y-123110381D01*
X149336096Y-123158000D01*
X149383715Y-123205619D01*
X149431334Y-123300857D01*
X149431334Y-123348476D01*
X149383715Y-123443714D01*
X149336096Y-123491333D01*
X149240858Y-123538952D01*
X149050381Y-123538952D01*
X148955143Y-123586571D01*
X148907524Y-123634190D01*
X148859905Y-123729429D01*
X148859905Y-123919905D01*
X148907524Y-124015143D01*
X148955143Y-124062762D01*
X149050381Y-124110381D01*
X149240858Y-124110381D01*
X149336096Y-124062762D01*
X149383715Y-124015143D01*
X149431334Y-123919905D01*
X149431334Y-123729429D01*
X149383715Y-123634190D01*
X149336096Y-123586571D01*
X149240858Y-123538952D01*
X150288477Y-123443714D02*
X150288477Y-124110381D01*
X150050381Y-123062762D02*
X149812286Y-123777048D01*
X150431334Y-123777048D01*
X150717048Y-123110381D02*
X151383715Y-123110381D01*
X150955143Y-124110381D01*
D12*
X149371810Y-121205619D02*
X149348000Y-121253238D01*
X149300381Y-121300857D01*
X149228952Y-121372286D01*
X149205143Y-121419905D01*
X149205143Y-121467524D01*
X149324190Y-121443714D02*
X149300381Y-121491333D01*
X149252762Y-121538952D01*
X149157524Y-121562762D01*
X148990857Y-121562762D01*
X148895619Y-121538952D01*
X148848000Y-121491333D01*
X148824190Y-121443714D01*
X148824190Y-121348476D01*
X148848000Y-121300857D01*
X148895619Y-121253238D01*
X148990857Y-121229429D01*
X149157524Y-121229429D01*
X149252762Y-121253238D01*
X149300381Y-121300857D01*
X149324190Y-121348476D01*
X149324190Y-121443714D01*
X148824190Y-120800857D02*
X148824190Y-120896095D01*
X148848000Y-120943714D01*
X148871810Y-120967523D01*
X148943238Y-121015142D01*
X149038476Y-121038952D01*
X149228952Y-121038952D01*
X149276571Y-121015142D01*
X149300381Y-120991333D01*
X149324190Y-120943714D01*
X149324190Y-120848476D01*
X149300381Y-120800857D01*
X149276571Y-120777047D01*
X149228952Y-120753238D01*
X149109905Y-120753238D01*
X149062286Y-120777047D01*
X149038476Y-120800857D01*
X149014667Y-120848476D01*
X149014667Y-120943714D01*
X149038476Y-120991333D01*
X149062286Y-121015142D01*
X149109905Y-121038952D01*
D11*
X136572858Y-123586571D02*
X136715715Y-123634190D01*
X136763334Y-123681810D01*
X136810953Y-123777048D01*
X136810953Y-123919905D01*
X136763334Y-124015143D01*
X136715715Y-124062762D01*
X136620477Y-124110381D01*
X136239524Y-124110381D01*
X136239524Y-123110381D01*
X136572858Y-123110381D01*
X136668096Y-123158000D01*
X136715715Y-123205619D01*
X136763334Y-123300857D01*
X136763334Y-123396095D01*
X136715715Y-123491333D01*
X136668096Y-123538952D01*
X136572858Y-123586571D01*
X136239524Y-123586571D01*
X137810953Y-124015143D02*
X137763334Y-124062762D01*
X137620477Y-124110381D01*
X137525239Y-124110381D01*
X137382381Y-124062762D01*
X137287143Y-123967524D01*
X137239524Y-123872286D01*
X137191905Y-123681810D01*
X137191905Y-123538952D01*
X137239524Y-123348476D01*
X137287143Y-123253238D01*
X137382381Y-123158000D01*
X137525239Y-123110381D01*
X137620477Y-123110381D01*
X137763334Y-123158000D01*
X137810953Y-123205619D01*
X138382381Y-123538952D02*
X138287143Y-123491333D01*
X138239524Y-123443714D01*
X138191905Y-123348476D01*
X138191905Y-123300857D01*
X138239524Y-123205619D01*
X138287143Y-123158000D01*
X138382381Y-123110381D01*
X138572858Y-123110381D01*
X138668096Y-123158000D01*
X138715715Y-123205619D01*
X138763334Y-123300857D01*
X138763334Y-123348476D01*
X138715715Y-123443714D01*
X138668096Y-123491333D01*
X138572858Y-123538952D01*
X138382381Y-123538952D01*
X138287143Y-123586571D01*
X138239524Y-123634190D01*
X138191905Y-123729429D01*
X138191905Y-123919905D01*
X138239524Y-124015143D01*
X138287143Y-124062762D01*
X138382381Y-124110381D01*
X138572858Y-124110381D01*
X138668096Y-124062762D01*
X138715715Y-124015143D01*
X138763334Y-123919905D01*
X138763334Y-123729429D01*
X138715715Y-123634190D01*
X138668096Y-123586571D01*
X138572858Y-123538952D01*
X139620477Y-123443714D02*
X139620477Y-124110381D01*
X139382381Y-123062762D02*
X139144286Y-123777048D01*
X139763334Y-123777048D01*
X140049048Y-123110381D02*
X140715715Y-123110381D01*
X140287143Y-124110381D01*
D12*
X138703810Y-121205619D02*
X138680000Y-121253238D01*
X138632381Y-121300857D01*
X138560952Y-121372286D01*
X138537143Y-121419905D01*
X138537143Y-121467524D01*
X138656190Y-121443714D02*
X138632381Y-121491333D01*
X138584762Y-121538952D01*
X138489524Y-121562762D01*
X138322857Y-121562762D01*
X138227619Y-121538952D01*
X138180000Y-121491333D01*
X138156190Y-121443714D01*
X138156190Y-121348476D01*
X138180000Y-121300857D01*
X138227619Y-121253238D01*
X138322857Y-121229429D01*
X138489524Y-121229429D01*
X138584762Y-121253238D01*
X138632381Y-121300857D01*
X138656190Y-121348476D01*
X138656190Y-121443714D01*
X138156190Y-121062761D02*
X138156190Y-120729428D01*
X138656190Y-120943714D01*
D11*
X125904858Y-123586571D02*
X126047715Y-123634190D01*
X126095334Y-123681810D01*
X126142953Y-123777048D01*
X126142953Y-123919905D01*
X126095334Y-124015143D01*
X126047715Y-124062762D01*
X125952477Y-124110381D01*
X125571524Y-124110381D01*
X125571524Y-123110381D01*
X125904858Y-123110381D01*
X126000096Y-123158000D01*
X126047715Y-123205619D01*
X126095334Y-123300857D01*
X126095334Y-123396095D01*
X126047715Y-123491333D01*
X126000096Y-123538952D01*
X125904858Y-123586571D01*
X125571524Y-123586571D01*
X127142953Y-124015143D02*
X127095334Y-124062762D01*
X126952477Y-124110381D01*
X126857239Y-124110381D01*
X126714381Y-124062762D01*
X126619143Y-123967524D01*
X126571524Y-123872286D01*
X126523905Y-123681810D01*
X126523905Y-123538952D01*
X126571524Y-123348476D01*
X126619143Y-123253238D01*
X126714381Y-123158000D01*
X126857239Y-123110381D01*
X126952477Y-123110381D01*
X127095334Y-123158000D01*
X127142953Y-123205619D01*
X127714381Y-123538952D02*
X127619143Y-123491333D01*
X127571524Y-123443714D01*
X127523905Y-123348476D01*
X127523905Y-123300857D01*
X127571524Y-123205619D01*
X127619143Y-123158000D01*
X127714381Y-123110381D01*
X127904858Y-123110381D01*
X128000096Y-123158000D01*
X128047715Y-123205619D01*
X128095334Y-123300857D01*
X128095334Y-123348476D01*
X128047715Y-123443714D01*
X128000096Y-123491333D01*
X127904858Y-123538952D01*
X127714381Y-123538952D01*
X127619143Y-123586571D01*
X127571524Y-123634190D01*
X127523905Y-123729429D01*
X127523905Y-123919905D01*
X127571524Y-124015143D01*
X127619143Y-124062762D01*
X127714381Y-124110381D01*
X127904858Y-124110381D01*
X128000096Y-124062762D01*
X128047715Y-124015143D01*
X128095334Y-123919905D01*
X128095334Y-123729429D01*
X128047715Y-123634190D01*
X128000096Y-123586571D01*
X127904858Y-123538952D01*
X128952477Y-123443714D02*
X128952477Y-124110381D01*
X128714381Y-123062762D02*
X128476286Y-123777048D01*
X129095334Y-123777048D01*
X129381048Y-123110381D02*
X130047715Y-123110381D01*
X129619143Y-124110381D01*
D12*
X128035810Y-121205619D02*
X128012000Y-121253238D01*
X127964381Y-121300857D01*
X127892952Y-121372286D01*
X127869143Y-121419905D01*
X127869143Y-121467524D01*
X127988190Y-121443714D02*
X127964381Y-121491333D01*
X127916762Y-121538952D01*
X127821524Y-121562762D01*
X127654857Y-121562762D01*
X127559619Y-121538952D01*
X127512000Y-121491333D01*
X127488190Y-121443714D01*
X127488190Y-121348476D01*
X127512000Y-121300857D01*
X127559619Y-121253238D01*
X127654857Y-121229429D01*
X127821524Y-121229429D01*
X127916762Y-121253238D01*
X127964381Y-121300857D01*
X127988190Y-121348476D01*
X127988190Y-121443714D01*
X127702476Y-120943714D02*
X127678667Y-120991333D01*
X127654857Y-121015142D01*
X127607238Y-121038952D01*
X127583429Y-121038952D01*
X127535810Y-121015142D01*
X127512000Y-120991333D01*
X127488190Y-120943714D01*
X127488190Y-120848476D01*
X127512000Y-120800857D01*
X127535810Y-120777047D01*
X127583429Y-120753238D01*
X127607238Y-120753238D01*
X127654857Y-120777047D01*
X127678667Y-120800857D01*
X127702476Y-120848476D01*
X127702476Y-120943714D01*
X127726286Y-120991333D01*
X127750095Y-121015142D01*
X127797714Y-121038952D01*
X127892952Y-121038952D01*
X127940571Y-121015142D01*
X127964381Y-120991333D01*
X127988190Y-120943714D01*
X127988190Y-120848476D01*
X127964381Y-120800857D01*
X127940571Y-120777047D01*
X127892952Y-120753238D01*
X127797714Y-120753238D01*
X127750095Y-120777047D01*
X127726286Y-120800857D01*
X127702476Y-120848476D01*
D11*
X136822381Y-141819238D02*
X136822381Y-142390667D01*
X136822381Y-142104953D02*
X135822381Y-142104953D01*
X135965238Y-142200191D01*
X136060476Y-142295429D01*
X136108095Y-142390667D01*
X135822381Y-141200191D02*
X135822381Y-141104952D01*
X135870000Y-141009714D01*
X135917619Y-140962095D01*
X136012857Y-140914476D01*
X136203333Y-140866857D01*
X136441429Y-140866857D01*
X136631905Y-140914476D01*
X136727143Y-140962095D01*
X136774762Y-141009714D01*
X136822381Y-141104952D01*
X136822381Y-141200191D01*
X136774762Y-141295429D01*
X136727143Y-141343048D01*
X136631905Y-141390667D01*
X136441429Y-141438286D01*
X136203333Y-141438286D01*
X136012857Y-141390667D01*
X135917619Y-141343048D01*
X135870000Y-141295429D01*
X135822381Y-141200191D01*
X136822381Y-140438286D02*
X135822381Y-140438286D01*
X136441429Y-140343048D02*
X136822381Y-140057333D01*
X136155714Y-140057333D02*
X136536667Y-140438286D01*
D12*
X134846190Y-141307333D02*
X134608095Y-141474000D01*
X134846190Y-141593047D02*
X134346190Y-141593047D01*
X134346190Y-141402571D01*
X134370000Y-141354952D01*
X134393810Y-141331143D01*
X134441429Y-141307333D01*
X134512857Y-141307333D01*
X134560476Y-141331143D01*
X134584286Y-141354952D01*
X134608095Y-141402571D01*
X134608095Y-141593047D01*
X134846190Y-140831143D02*
X134846190Y-141116857D01*
X134846190Y-140974000D02*
X134346190Y-140974000D01*
X134417619Y-141021619D01*
X134465238Y-141069238D01*
X134489048Y-141116857D01*
D11*
X147490381Y-141819238D02*
X147490381Y-142390667D01*
X147490381Y-142104953D02*
X146490381Y-142104953D01*
X146633238Y-142200191D01*
X146728476Y-142295429D01*
X146776095Y-142390667D01*
X146490381Y-141200191D02*
X146490381Y-141104952D01*
X146538000Y-141009714D01*
X146585619Y-140962095D01*
X146680857Y-140914476D01*
X146871333Y-140866857D01*
X147109429Y-140866857D01*
X147299905Y-140914476D01*
X147395143Y-140962095D01*
X147442762Y-141009714D01*
X147490381Y-141104952D01*
X147490381Y-141200191D01*
X147442762Y-141295429D01*
X147395143Y-141343048D01*
X147299905Y-141390667D01*
X147109429Y-141438286D01*
X146871333Y-141438286D01*
X146680857Y-141390667D01*
X146585619Y-141343048D01*
X146538000Y-141295429D01*
X146490381Y-141200191D01*
X147490381Y-140438286D02*
X146490381Y-140438286D01*
X147109429Y-140343048D02*
X147490381Y-140057333D01*
X146823714Y-140057333D02*
X147204667Y-140438286D01*
D12*
X145514190Y-141307333D02*
X145276095Y-141474000D01*
X145514190Y-141593047D02*
X145014190Y-141593047D01*
X145014190Y-141402571D01*
X145038000Y-141354952D01*
X145061810Y-141331143D01*
X145109429Y-141307333D01*
X145180857Y-141307333D01*
X145228476Y-141331143D01*
X145252286Y-141354952D01*
X145276095Y-141402571D01*
X145276095Y-141593047D01*
X145061810Y-141116857D02*
X145038000Y-141093047D01*
X145014190Y-141045428D01*
X145014190Y-140926381D01*
X145038000Y-140878762D01*
X145061810Y-140854952D01*
X145109429Y-140831143D01*
X145157048Y-140831143D01*
X145228476Y-140854952D01*
X145514190Y-141140666D01*
X145514190Y-140831143D01*
D11*
X156126381Y-141819238D02*
X156126381Y-142390667D01*
X156126381Y-142104953D02*
X155126381Y-142104953D01*
X155269238Y-142200191D01*
X155364476Y-142295429D01*
X155412095Y-142390667D01*
X155126381Y-141200191D02*
X155126381Y-141104952D01*
X155174000Y-141009714D01*
X155221619Y-140962095D01*
X155316857Y-140914476D01*
X155507333Y-140866857D01*
X155745429Y-140866857D01*
X155935905Y-140914476D01*
X156031143Y-140962095D01*
X156078762Y-141009714D01*
X156126381Y-141104952D01*
X156126381Y-141200191D01*
X156078762Y-141295429D01*
X156031143Y-141343048D01*
X155935905Y-141390667D01*
X155745429Y-141438286D01*
X155507333Y-141438286D01*
X155316857Y-141390667D01*
X155221619Y-141343048D01*
X155174000Y-141295429D01*
X155126381Y-141200191D01*
X156126381Y-140438286D02*
X155126381Y-140438286D01*
X155745429Y-140343048D02*
X156126381Y-140057333D01*
X155459714Y-140057333D02*
X155840667Y-140438286D01*
D12*
X154150190Y-141307333D02*
X153912095Y-141474000D01*
X154150190Y-141593047D02*
X153650190Y-141593047D01*
X153650190Y-141402571D01*
X153674000Y-141354952D01*
X153697810Y-141331143D01*
X153745429Y-141307333D01*
X153816857Y-141307333D01*
X153864476Y-141331143D01*
X153888286Y-141354952D01*
X153912095Y-141402571D01*
X153912095Y-141593047D01*
X153650190Y-141140666D02*
X153650190Y-140831143D01*
X153840667Y-140997809D01*
X153840667Y-140926381D01*
X153864476Y-140878762D01*
X153888286Y-140854952D01*
X153935905Y-140831143D01*
X154054952Y-140831143D01*
X154102571Y-140854952D01*
X154126381Y-140878762D01*
X154150190Y-140926381D01*
X154150190Y-141069238D01*
X154126381Y-141116857D01*
X154102571Y-141140666D01*
D11*
X166794381Y-141819238D02*
X166794381Y-142390667D01*
X166794381Y-142104953D02*
X165794381Y-142104953D01*
X165937238Y-142200191D01*
X166032476Y-142295429D01*
X166080095Y-142390667D01*
X165794381Y-141200191D02*
X165794381Y-141104952D01*
X165842000Y-141009714D01*
X165889619Y-140962095D01*
X165984857Y-140914476D01*
X166175333Y-140866857D01*
X166413429Y-140866857D01*
X166603905Y-140914476D01*
X166699143Y-140962095D01*
X166746762Y-141009714D01*
X166794381Y-141104952D01*
X166794381Y-141200191D01*
X166746762Y-141295429D01*
X166699143Y-141343048D01*
X166603905Y-141390667D01*
X166413429Y-141438286D01*
X166175333Y-141438286D01*
X165984857Y-141390667D01*
X165889619Y-141343048D01*
X165842000Y-141295429D01*
X165794381Y-141200191D01*
X166794381Y-140438286D02*
X165794381Y-140438286D01*
X166413429Y-140343048D02*
X166794381Y-140057333D01*
X166127714Y-140057333D02*
X166508667Y-140438286D01*
D12*
X164818190Y-141307333D02*
X164580095Y-141474000D01*
X164818190Y-141593047D02*
X164318190Y-141593047D01*
X164318190Y-141402571D01*
X164342000Y-141354952D01*
X164365810Y-141331143D01*
X164413429Y-141307333D01*
X164484857Y-141307333D01*
X164532476Y-141331143D01*
X164556286Y-141354952D01*
X164580095Y-141402571D01*
X164580095Y-141593047D01*
X164484857Y-140878762D02*
X164818190Y-140878762D01*
X164294381Y-140997809D02*
X164651524Y-141116857D01*
X164651524Y-140807333D01*
D11*
X130290381Y-142104952D02*
X130290381Y-142581143D01*
X130766571Y-142628762D01*
X130718952Y-142581143D01*
X130671333Y-142485905D01*
X130671333Y-142247809D01*
X130718952Y-142152571D01*
X130766571Y-142104952D01*
X130861810Y-142057333D01*
X131099905Y-142057333D01*
X131195143Y-142104952D01*
X131242762Y-142152571D01*
X131290381Y-142247809D01*
X131290381Y-142485905D01*
X131242762Y-142581143D01*
X131195143Y-142628762D01*
X131242762Y-141581143D02*
X131290381Y-141581143D01*
X131385619Y-141628762D01*
X131433238Y-141676381D01*
X130290381Y-140724000D02*
X130290381Y-140914477D01*
X130338000Y-141009715D01*
X130385619Y-141057334D01*
X130528476Y-141152572D01*
X130718952Y-141200191D01*
X131099905Y-141200191D01*
X131195143Y-141152572D01*
X131242762Y-141104953D01*
X131290381Y-141009715D01*
X131290381Y-140819238D01*
X131242762Y-140724000D01*
X131195143Y-140676381D01*
X131099905Y-140628762D01*
X130861810Y-140628762D01*
X130766571Y-140676381D01*
X130718952Y-140724000D01*
X130671333Y-140819238D01*
X130671333Y-141009715D01*
X130718952Y-141104953D01*
X130766571Y-141152572D01*
X130861810Y-141200191D01*
X131290381Y-140200191D02*
X130290381Y-140200191D01*
X130909429Y-140104953D02*
X131290381Y-139819238D01*
X130623714Y-139819238D02*
X131004667Y-140200191D01*
D12*
X132814190Y-141307333D02*
X132576095Y-141474000D01*
X132814190Y-141593047D02*
X132314190Y-141593047D01*
X132314190Y-141402571D01*
X132338000Y-141354952D01*
X132361810Y-141331143D01*
X132409429Y-141307333D01*
X132480857Y-141307333D01*
X132528476Y-141331143D01*
X132552286Y-141354952D01*
X132576095Y-141402571D01*
X132576095Y-141593047D01*
X132314190Y-140854952D02*
X132314190Y-141093047D01*
X132552286Y-141116857D01*
X132528476Y-141093047D01*
X132504667Y-141045428D01*
X132504667Y-140926381D01*
X132528476Y-140878762D01*
X132552286Y-140854952D01*
X132599905Y-140831143D01*
X132718952Y-140831143D01*
X132766571Y-140854952D01*
X132790381Y-140878762D01*
X132814190Y-140926381D01*
X132814190Y-141045428D01*
X132790381Y-141093047D01*
X132766571Y-141116857D01*
D11*
X140958381Y-142104952D02*
X140958381Y-142581143D01*
X141434571Y-142628762D01*
X141386952Y-142581143D01*
X141339333Y-142485905D01*
X141339333Y-142247809D01*
X141386952Y-142152571D01*
X141434571Y-142104952D01*
X141529810Y-142057333D01*
X141767905Y-142057333D01*
X141863143Y-142104952D01*
X141910762Y-142152571D01*
X141958381Y-142247809D01*
X141958381Y-142485905D01*
X141910762Y-142581143D01*
X141863143Y-142628762D01*
X141910762Y-141581143D02*
X141958381Y-141581143D01*
X142053619Y-141628762D01*
X142101238Y-141676381D01*
X140958381Y-140724000D02*
X140958381Y-140914477D01*
X141006000Y-141009715D01*
X141053619Y-141057334D01*
X141196476Y-141152572D01*
X141386952Y-141200191D01*
X141767905Y-141200191D01*
X141863143Y-141152572D01*
X141910762Y-141104953D01*
X141958381Y-141009715D01*
X141958381Y-140819238D01*
X141910762Y-140724000D01*
X141863143Y-140676381D01*
X141767905Y-140628762D01*
X141529810Y-140628762D01*
X141434571Y-140676381D01*
X141386952Y-140724000D01*
X141339333Y-140819238D01*
X141339333Y-141009715D01*
X141386952Y-141104953D01*
X141434571Y-141152572D01*
X141529810Y-141200191D01*
X141958381Y-140200191D02*
X140958381Y-140200191D01*
X141577429Y-140104953D02*
X141958381Y-139819238D01*
X141291714Y-139819238D02*
X141672667Y-140200191D01*
D12*
X143482190Y-141307333D02*
X143244095Y-141474000D01*
X143482190Y-141593047D02*
X142982190Y-141593047D01*
X142982190Y-141402571D01*
X143006000Y-141354952D01*
X143029810Y-141331143D01*
X143077429Y-141307333D01*
X143148857Y-141307333D01*
X143196476Y-141331143D01*
X143220286Y-141354952D01*
X143244095Y-141402571D01*
X143244095Y-141593047D01*
X142982190Y-140878762D02*
X142982190Y-140974000D01*
X143006000Y-141021619D01*
X143029810Y-141045428D01*
X143101238Y-141093047D01*
X143196476Y-141116857D01*
X143386952Y-141116857D01*
X143434571Y-141093047D01*
X143458381Y-141069238D01*
X143482190Y-141021619D01*
X143482190Y-140926381D01*
X143458381Y-140878762D01*
X143434571Y-140854952D01*
X143386952Y-140831143D01*
X143267905Y-140831143D01*
X143220286Y-140854952D01*
X143196476Y-140878762D01*
X143172667Y-140926381D01*
X143172667Y-141021619D01*
X143196476Y-141069238D01*
X143220286Y-141093047D01*
X143267905Y-141116857D01*
D11*
X153658381Y-142104952D02*
X153658381Y-142581143D01*
X154134571Y-142628762D01*
X154086952Y-142581143D01*
X154039333Y-142485905D01*
X154039333Y-142247809D01*
X154086952Y-142152571D01*
X154134571Y-142104952D01*
X154229810Y-142057333D01*
X154467905Y-142057333D01*
X154563143Y-142104952D01*
X154610762Y-142152571D01*
X154658381Y-142247809D01*
X154658381Y-142485905D01*
X154610762Y-142581143D01*
X154563143Y-142628762D01*
X154610762Y-141581143D02*
X154658381Y-141581143D01*
X154753619Y-141628762D01*
X154801238Y-141676381D01*
X153658381Y-140724000D02*
X153658381Y-140914477D01*
X153706000Y-141009715D01*
X153753619Y-141057334D01*
X153896476Y-141152572D01*
X154086952Y-141200191D01*
X154467905Y-141200191D01*
X154563143Y-141152572D01*
X154610762Y-141104953D01*
X154658381Y-141009715D01*
X154658381Y-140819238D01*
X154610762Y-140724000D01*
X154563143Y-140676381D01*
X154467905Y-140628762D01*
X154229810Y-140628762D01*
X154134571Y-140676381D01*
X154086952Y-140724000D01*
X154039333Y-140819238D01*
X154039333Y-141009715D01*
X154086952Y-141104953D01*
X154134571Y-141152572D01*
X154229810Y-141200191D01*
X154658381Y-140200191D02*
X153658381Y-140200191D01*
X154277429Y-140104953D02*
X154658381Y-139819238D01*
X153991714Y-139819238D02*
X154372667Y-140200191D01*
D12*
X156182190Y-141307333D02*
X155944095Y-141474000D01*
X156182190Y-141593047D02*
X155682190Y-141593047D01*
X155682190Y-141402571D01*
X155706000Y-141354952D01*
X155729810Y-141331143D01*
X155777429Y-141307333D01*
X155848857Y-141307333D01*
X155896476Y-141331143D01*
X155920286Y-141354952D01*
X155944095Y-141402571D01*
X155944095Y-141593047D01*
X155682190Y-141140666D02*
X155682190Y-140807333D01*
X156182190Y-141021619D01*
D11*
X164326381Y-142104952D02*
X164326381Y-142581143D01*
X164802571Y-142628762D01*
X164754952Y-142581143D01*
X164707333Y-142485905D01*
X164707333Y-142247809D01*
X164754952Y-142152571D01*
X164802571Y-142104952D01*
X164897810Y-142057333D01*
X165135905Y-142057333D01*
X165231143Y-142104952D01*
X165278762Y-142152571D01*
X165326381Y-142247809D01*
X165326381Y-142485905D01*
X165278762Y-142581143D01*
X165231143Y-142628762D01*
X165278762Y-141581143D02*
X165326381Y-141581143D01*
X165421619Y-141628762D01*
X165469238Y-141676381D01*
X164326381Y-140724000D02*
X164326381Y-140914477D01*
X164374000Y-141009715D01*
X164421619Y-141057334D01*
X164564476Y-141152572D01*
X164754952Y-141200191D01*
X165135905Y-141200191D01*
X165231143Y-141152572D01*
X165278762Y-141104953D01*
X165326381Y-141009715D01*
X165326381Y-140819238D01*
X165278762Y-140724000D01*
X165231143Y-140676381D01*
X165135905Y-140628762D01*
X164897810Y-140628762D01*
X164802571Y-140676381D01*
X164754952Y-140724000D01*
X164707333Y-140819238D01*
X164707333Y-141009715D01*
X164754952Y-141104953D01*
X164802571Y-141152572D01*
X164897810Y-141200191D01*
X165326381Y-140200191D02*
X164326381Y-140200191D01*
X164945429Y-140104953D02*
X165326381Y-139819238D01*
X164659714Y-139819238D02*
X165040667Y-140200191D01*
D12*
X166850190Y-141307333D02*
X166612095Y-141474000D01*
X166850190Y-141593047D02*
X166350190Y-141593047D01*
X166350190Y-141402571D01*
X166374000Y-141354952D01*
X166397810Y-141331143D01*
X166445429Y-141307333D01*
X166516857Y-141307333D01*
X166564476Y-141331143D01*
X166588286Y-141354952D01*
X166612095Y-141402571D01*
X166612095Y-141593047D01*
X166564476Y-141021619D02*
X166540667Y-141069238D01*
X166516857Y-141093047D01*
X166469238Y-141116857D01*
X166445429Y-141116857D01*
X166397810Y-141093047D01*
X166374000Y-141069238D01*
X166350190Y-141021619D01*
X166350190Y-140926381D01*
X166374000Y-140878762D01*
X166397810Y-140854952D01*
X166445429Y-140831143D01*
X166469238Y-140831143D01*
X166516857Y-140854952D01*
X166540667Y-140878762D01*
X166564476Y-140926381D01*
X166564476Y-141021619D01*
X166588286Y-141069238D01*
X166612095Y-141093047D01*
X166659714Y-141116857D01*
X166754952Y-141116857D01*
X166802571Y-141093047D01*
X166826381Y-141069238D01*
X166850190Y-141021619D01*
X166850190Y-140926381D01*
X166826381Y-140878762D01*
X166802571Y-140854952D01*
X166754952Y-140831143D01*
X166659714Y-140831143D01*
X166612095Y-140854952D01*
X166588286Y-140878762D01*
X166564476Y-140926381D01*
D11*
X127793905Y-139021619D02*
X127841524Y-138974000D01*
X127936762Y-138926381D01*
X128174858Y-138926381D01*
X128270096Y-138974000D01*
X128317715Y-139021619D01*
X128365334Y-139116857D01*
X128365334Y-139212095D01*
X128317715Y-139354952D01*
X127746286Y-139926381D01*
X128365334Y-139926381D01*
X128984381Y-138926381D02*
X129079620Y-138926381D01*
X129174858Y-138974000D01*
X129222477Y-139021619D01*
X129270096Y-139116857D01*
X129317715Y-139307333D01*
X129317715Y-139545429D01*
X129270096Y-139735905D01*
X129222477Y-139831143D01*
X129174858Y-139878762D01*
X129079620Y-139926381D01*
X128984381Y-139926381D01*
X128889143Y-139878762D01*
X128841524Y-139831143D01*
X128793905Y-139735905D01*
X128746286Y-139545429D01*
X128746286Y-139307333D01*
X128793905Y-139116857D01*
X128841524Y-139021619D01*
X128889143Y-138974000D01*
X128984381Y-138926381D01*
X129936762Y-138926381D02*
X130032001Y-138926381D01*
X130127239Y-138974000D01*
X130174858Y-139021619D01*
X130222477Y-139116857D01*
X130270096Y-139307333D01*
X130270096Y-139545429D01*
X130222477Y-139735905D01*
X130174858Y-139831143D01*
X130127239Y-139878762D01*
X130032001Y-139926381D01*
X129936762Y-139926381D01*
X129841524Y-139878762D01*
X129793905Y-139831143D01*
X129746286Y-139735905D01*
X129698667Y-139545429D01*
X129698667Y-139307333D01*
X129746286Y-139116857D01*
X129793905Y-139021619D01*
X129841524Y-138974000D01*
X129936762Y-138926381D01*
D12*
X128948667Y-141450190D02*
X128782000Y-141212095D01*
X128662953Y-141450190D02*
X128662953Y-140950190D01*
X128853429Y-140950190D01*
X128901048Y-140974000D01*
X128924857Y-140997810D01*
X128948667Y-141045429D01*
X128948667Y-141116857D01*
X128924857Y-141164476D01*
X128901048Y-141188286D01*
X128853429Y-141212095D01*
X128662953Y-141212095D01*
X129186762Y-141450190D02*
X129282000Y-141450190D01*
X129329619Y-141426381D01*
X129353429Y-141402571D01*
X129401048Y-141331143D01*
X129424857Y-141235905D01*
X129424857Y-141045429D01*
X129401048Y-140997810D01*
X129377238Y-140974000D01*
X129329619Y-140950190D01*
X129234381Y-140950190D01*
X129186762Y-140974000D01*
X129162953Y-140997810D01*
X129139143Y-141045429D01*
X129139143Y-141164476D01*
X129162953Y-141212095D01*
X129186762Y-141235905D01*
X129234381Y-141259714D01*
X129329619Y-141259714D01*
X129377238Y-141235905D01*
X129401048Y-141212095D01*
X129424857Y-141164476D01*
D11*
X138461905Y-139021619D02*
X138509524Y-138974000D01*
X138604762Y-138926381D01*
X138842858Y-138926381D01*
X138938096Y-138974000D01*
X138985715Y-139021619D01*
X139033334Y-139116857D01*
X139033334Y-139212095D01*
X138985715Y-139354952D01*
X138414286Y-139926381D01*
X139033334Y-139926381D01*
X139652381Y-138926381D02*
X139747620Y-138926381D01*
X139842858Y-138974000D01*
X139890477Y-139021619D01*
X139938096Y-139116857D01*
X139985715Y-139307333D01*
X139985715Y-139545429D01*
X139938096Y-139735905D01*
X139890477Y-139831143D01*
X139842858Y-139878762D01*
X139747620Y-139926381D01*
X139652381Y-139926381D01*
X139557143Y-139878762D01*
X139509524Y-139831143D01*
X139461905Y-139735905D01*
X139414286Y-139545429D01*
X139414286Y-139307333D01*
X139461905Y-139116857D01*
X139509524Y-139021619D01*
X139557143Y-138974000D01*
X139652381Y-138926381D01*
X140604762Y-138926381D02*
X140700001Y-138926381D01*
X140795239Y-138974000D01*
X140842858Y-139021619D01*
X140890477Y-139116857D01*
X140938096Y-139307333D01*
X140938096Y-139545429D01*
X140890477Y-139735905D01*
X140842858Y-139831143D01*
X140795239Y-139878762D01*
X140700001Y-139926381D01*
X140604762Y-139926381D01*
X140509524Y-139878762D01*
X140461905Y-139831143D01*
X140414286Y-139735905D01*
X140366667Y-139545429D01*
X140366667Y-139307333D01*
X140414286Y-139116857D01*
X140461905Y-139021619D01*
X140509524Y-138974000D01*
X140604762Y-138926381D01*
D12*
X139378572Y-141450190D02*
X139211905Y-141212095D01*
X139092858Y-141450190D02*
X139092858Y-140950190D01*
X139283334Y-140950190D01*
X139330953Y-140974000D01*
X139354762Y-140997810D01*
X139378572Y-141045429D01*
X139378572Y-141116857D01*
X139354762Y-141164476D01*
X139330953Y-141188286D01*
X139283334Y-141212095D01*
X139092858Y-141212095D01*
X139854762Y-141450190D02*
X139569048Y-141450190D01*
X139711905Y-141450190D02*
X139711905Y-140950190D01*
X139664286Y-141021619D01*
X139616667Y-141069238D01*
X139569048Y-141093048D01*
X140164286Y-140950190D02*
X140211905Y-140950190D01*
X140259524Y-140974000D01*
X140283333Y-140997810D01*
X140307143Y-141045429D01*
X140330952Y-141140667D01*
X140330952Y-141259714D01*
X140307143Y-141354952D01*
X140283333Y-141402571D01*
X140259524Y-141426381D01*
X140211905Y-141450190D01*
X140164286Y-141450190D01*
X140116667Y-141426381D01*
X140092857Y-141402571D01*
X140069048Y-141354952D01*
X140045238Y-141259714D01*
X140045238Y-141140667D01*
X140069048Y-141045429D01*
X140092857Y-140997810D01*
X140116667Y-140974000D01*
X140164286Y-140950190D01*
D11*
X149129905Y-139021619D02*
X149177524Y-138974000D01*
X149272762Y-138926381D01*
X149510858Y-138926381D01*
X149606096Y-138974000D01*
X149653715Y-139021619D01*
X149701334Y-139116857D01*
X149701334Y-139212095D01*
X149653715Y-139354952D01*
X149082286Y-139926381D01*
X149701334Y-139926381D01*
X150320381Y-138926381D02*
X150415620Y-138926381D01*
X150510858Y-138974000D01*
X150558477Y-139021619D01*
X150606096Y-139116857D01*
X150653715Y-139307333D01*
X150653715Y-139545429D01*
X150606096Y-139735905D01*
X150558477Y-139831143D01*
X150510858Y-139878762D01*
X150415620Y-139926381D01*
X150320381Y-139926381D01*
X150225143Y-139878762D01*
X150177524Y-139831143D01*
X150129905Y-139735905D01*
X150082286Y-139545429D01*
X150082286Y-139307333D01*
X150129905Y-139116857D01*
X150177524Y-139021619D01*
X150225143Y-138974000D01*
X150320381Y-138926381D01*
X151272762Y-138926381D02*
X151368001Y-138926381D01*
X151463239Y-138974000D01*
X151510858Y-139021619D01*
X151558477Y-139116857D01*
X151606096Y-139307333D01*
X151606096Y-139545429D01*
X151558477Y-139735905D01*
X151510858Y-139831143D01*
X151463239Y-139878762D01*
X151368001Y-139926381D01*
X151272762Y-139926381D01*
X151177524Y-139878762D01*
X151129905Y-139831143D01*
X151082286Y-139735905D01*
X151034667Y-139545429D01*
X151034667Y-139307333D01*
X151082286Y-139116857D01*
X151129905Y-139021619D01*
X151177524Y-138974000D01*
X151272762Y-138926381D01*
D12*
X150046572Y-141450190D02*
X149879905Y-141212095D01*
X149760858Y-141450190D02*
X149760858Y-140950190D01*
X149951334Y-140950190D01*
X149998953Y-140974000D01*
X150022762Y-140997810D01*
X150046572Y-141045429D01*
X150046572Y-141116857D01*
X150022762Y-141164476D01*
X149998953Y-141188286D01*
X149951334Y-141212095D01*
X149760858Y-141212095D01*
X150522762Y-141450190D02*
X150237048Y-141450190D01*
X150379905Y-141450190D02*
X150379905Y-140950190D01*
X150332286Y-141021619D01*
X150284667Y-141069238D01*
X150237048Y-141093048D01*
X150998952Y-141450190D02*
X150713238Y-141450190D01*
X150856095Y-141450190D02*
X150856095Y-140950190D01*
X150808476Y-141021619D01*
X150760857Y-141069238D01*
X150713238Y-141093048D01*
D11*
X159797905Y-139021619D02*
X159845524Y-138974000D01*
X159940762Y-138926381D01*
X160178858Y-138926381D01*
X160274096Y-138974000D01*
X160321715Y-139021619D01*
X160369334Y-139116857D01*
X160369334Y-139212095D01*
X160321715Y-139354952D01*
X159750286Y-139926381D01*
X160369334Y-139926381D01*
X160988381Y-138926381D02*
X161083620Y-138926381D01*
X161178858Y-138974000D01*
X161226477Y-139021619D01*
X161274096Y-139116857D01*
X161321715Y-139307333D01*
X161321715Y-139545429D01*
X161274096Y-139735905D01*
X161226477Y-139831143D01*
X161178858Y-139878762D01*
X161083620Y-139926381D01*
X160988381Y-139926381D01*
X160893143Y-139878762D01*
X160845524Y-139831143D01*
X160797905Y-139735905D01*
X160750286Y-139545429D01*
X160750286Y-139307333D01*
X160797905Y-139116857D01*
X160845524Y-139021619D01*
X160893143Y-138974000D01*
X160988381Y-138926381D01*
X161940762Y-138926381D02*
X162036001Y-138926381D01*
X162131239Y-138974000D01*
X162178858Y-139021619D01*
X162226477Y-139116857D01*
X162274096Y-139307333D01*
X162274096Y-139545429D01*
X162226477Y-139735905D01*
X162178858Y-139831143D01*
X162131239Y-139878762D01*
X162036001Y-139926381D01*
X161940762Y-139926381D01*
X161845524Y-139878762D01*
X161797905Y-139831143D01*
X161750286Y-139735905D01*
X161702667Y-139545429D01*
X161702667Y-139307333D01*
X161750286Y-139116857D01*
X161797905Y-139021619D01*
X161845524Y-138974000D01*
X161940762Y-138926381D01*
D12*
X160714572Y-141450190D02*
X160547905Y-141212095D01*
X160428858Y-141450190D02*
X160428858Y-140950190D01*
X160619334Y-140950190D01*
X160666953Y-140974000D01*
X160690762Y-140997810D01*
X160714572Y-141045429D01*
X160714572Y-141116857D01*
X160690762Y-141164476D01*
X160666953Y-141188286D01*
X160619334Y-141212095D01*
X160428858Y-141212095D01*
X161190762Y-141450190D02*
X160905048Y-141450190D01*
X161047905Y-141450190D02*
X161047905Y-140950190D01*
X161000286Y-141021619D01*
X160952667Y-141069238D01*
X160905048Y-141093048D01*
X161381238Y-140997810D02*
X161405048Y-140974000D01*
X161452667Y-140950190D01*
X161571714Y-140950190D01*
X161619333Y-140974000D01*
X161643143Y-140997810D01*
X161666952Y-141045429D01*
X161666952Y-141093048D01*
X161643143Y-141164476D01*
X161357429Y-141450190D01*
X161666952Y-141450190D01*
D11*
X159484381Y-117181238D02*
X159484381Y-117752667D01*
X159484381Y-117466953D02*
X158484381Y-117466953D01*
X158627238Y-117562191D01*
X158722476Y-117657429D01*
X158770095Y-117752667D01*
X158484381Y-116562191D02*
X158484381Y-116466952D01*
X158532000Y-116371714D01*
X158579619Y-116324095D01*
X158674857Y-116276476D01*
X158865333Y-116228857D01*
X159103429Y-116228857D01*
X159293905Y-116276476D01*
X159389143Y-116324095D01*
X159436762Y-116371714D01*
X159484381Y-116466952D01*
X159484381Y-116562191D01*
X159436762Y-116657429D01*
X159389143Y-116705048D01*
X159293905Y-116752667D01*
X159103429Y-116800286D01*
X158865333Y-116800286D01*
X158674857Y-116752667D01*
X158579619Y-116705048D01*
X158532000Y-116657429D01*
X158484381Y-116562191D01*
X159484381Y-115800286D02*
X158484381Y-115800286D01*
X159103429Y-115705048D02*
X159484381Y-115419333D01*
X158817714Y-115419333D02*
X159198667Y-115800286D01*
D12*
X161008190Y-116907428D02*
X160770095Y-117074095D01*
X161008190Y-117193142D02*
X160508190Y-117193142D01*
X160508190Y-117002666D01*
X160532000Y-116955047D01*
X160555810Y-116931238D01*
X160603429Y-116907428D01*
X160674857Y-116907428D01*
X160722476Y-116931238D01*
X160746286Y-116955047D01*
X160770095Y-117002666D01*
X160770095Y-117193142D01*
X161008190Y-116431238D02*
X161008190Y-116716952D01*
X161008190Y-116574095D02*
X160508190Y-116574095D01*
X160579619Y-116621714D01*
X160627238Y-116669333D01*
X160651048Y-116716952D01*
X160508190Y-116264571D02*
X160508190Y-115955048D01*
X160698667Y-116121714D01*
X160698667Y-116050286D01*
X160722476Y-116002667D01*
X160746286Y-115978857D01*
X160793905Y-115955048D01*
X160912952Y-115955048D01*
X160960571Y-115978857D01*
X160984381Y-116002667D01*
X161008190Y-116050286D01*
X161008190Y-116193143D01*
X160984381Y-116240762D01*
X160960571Y-116264571D01*
D11*
X148816381Y-117181238D02*
X148816381Y-117752667D01*
X148816381Y-117466953D02*
X147816381Y-117466953D01*
X147959238Y-117562191D01*
X148054476Y-117657429D01*
X148102095Y-117752667D01*
X147816381Y-116562191D02*
X147816381Y-116466952D01*
X147864000Y-116371714D01*
X147911619Y-116324095D01*
X148006857Y-116276476D01*
X148197333Y-116228857D01*
X148435429Y-116228857D01*
X148625905Y-116276476D01*
X148721143Y-116324095D01*
X148768762Y-116371714D01*
X148816381Y-116466952D01*
X148816381Y-116562191D01*
X148768762Y-116657429D01*
X148721143Y-116705048D01*
X148625905Y-116752667D01*
X148435429Y-116800286D01*
X148197333Y-116800286D01*
X148006857Y-116752667D01*
X147911619Y-116705048D01*
X147864000Y-116657429D01*
X147816381Y-116562191D01*
X148816381Y-115800286D02*
X147816381Y-115800286D01*
X148435429Y-115705048D02*
X148816381Y-115419333D01*
X148149714Y-115419333D02*
X148530667Y-115800286D01*
D12*
X150340190Y-116907428D02*
X150102095Y-117074095D01*
X150340190Y-117193142D02*
X149840190Y-117193142D01*
X149840190Y-117002666D01*
X149864000Y-116955047D01*
X149887810Y-116931238D01*
X149935429Y-116907428D01*
X150006857Y-116907428D01*
X150054476Y-116931238D01*
X150078286Y-116955047D01*
X150102095Y-117002666D01*
X150102095Y-117193142D01*
X150340190Y-116431238D02*
X150340190Y-116716952D01*
X150340190Y-116574095D02*
X149840190Y-116574095D01*
X149911619Y-116621714D01*
X149959238Y-116669333D01*
X149983048Y-116716952D01*
X150006857Y-116002667D02*
X150340190Y-116002667D01*
X149816381Y-116121714D02*
X150173524Y-116240762D01*
X150173524Y-115931238D01*
D11*
X138148381Y-117181238D02*
X138148381Y-117752667D01*
X138148381Y-117466953D02*
X137148381Y-117466953D01*
X137291238Y-117562191D01*
X137386476Y-117657429D01*
X137434095Y-117752667D01*
X137148381Y-116562191D02*
X137148381Y-116466952D01*
X137196000Y-116371714D01*
X137243619Y-116324095D01*
X137338857Y-116276476D01*
X137529333Y-116228857D01*
X137767429Y-116228857D01*
X137957905Y-116276476D01*
X138053143Y-116324095D01*
X138100762Y-116371714D01*
X138148381Y-116466952D01*
X138148381Y-116562191D01*
X138100762Y-116657429D01*
X138053143Y-116705048D01*
X137957905Y-116752667D01*
X137767429Y-116800286D01*
X137529333Y-116800286D01*
X137338857Y-116752667D01*
X137243619Y-116705048D01*
X137196000Y-116657429D01*
X137148381Y-116562191D01*
X138148381Y-115800286D02*
X137148381Y-115800286D01*
X137767429Y-115705048D02*
X138148381Y-115419333D01*
X137481714Y-115419333D02*
X137862667Y-115800286D01*
D12*
X139672190Y-116907428D02*
X139434095Y-117074095D01*
X139672190Y-117193142D02*
X139172190Y-117193142D01*
X139172190Y-117002666D01*
X139196000Y-116955047D01*
X139219810Y-116931238D01*
X139267429Y-116907428D01*
X139338857Y-116907428D01*
X139386476Y-116931238D01*
X139410286Y-116955047D01*
X139434095Y-117002666D01*
X139434095Y-117193142D01*
X139672190Y-116431238D02*
X139672190Y-116716952D01*
X139672190Y-116574095D02*
X139172190Y-116574095D01*
X139243619Y-116621714D01*
X139291238Y-116669333D01*
X139315048Y-116716952D01*
X139172190Y-115978857D02*
X139172190Y-116216952D01*
X139410286Y-116240762D01*
X139386476Y-116216952D01*
X139362667Y-116169333D01*
X139362667Y-116050286D01*
X139386476Y-116002667D01*
X139410286Y-115978857D01*
X139457905Y-115955048D01*
X139576952Y-115955048D01*
X139624571Y-115978857D01*
X139648381Y-116002667D01*
X139672190Y-116050286D01*
X139672190Y-116169333D01*
X139648381Y-116216952D01*
X139624571Y-116240762D01*
D11*
X127480381Y-117181238D02*
X127480381Y-117752667D01*
X127480381Y-117466953D02*
X126480381Y-117466953D01*
X126623238Y-117562191D01*
X126718476Y-117657429D01*
X126766095Y-117752667D01*
X126480381Y-116562191D02*
X126480381Y-116466952D01*
X126528000Y-116371714D01*
X126575619Y-116324095D01*
X126670857Y-116276476D01*
X126861333Y-116228857D01*
X127099429Y-116228857D01*
X127289905Y-116276476D01*
X127385143Y-116324095D01*
X127432762Y-116371714D01*
X127480381Y-116466952D01*
X127480381Y-116562191D01*
X127432762Y-116657429D01*
X127385143Y-116705048D01*
X127289905Y-116752667D01*
X127099429Y-116800286D01*
X126861333Y-116800286D01*
X126670857Y-116752667D01*
X126575619Y-116705048D01*
X126528000Y-116657429D01*
X126480381Y-116562191D01*
X127480381Y-115800286D02*
X126480381Y-115800286D01*
X127099429Y-115705048D02*
X127480381Y-115419333D01*
X126813714Y-115419333D02*
X127194667Y-115800286D01*
D12*
X129004190Y-116907428D02*
X128766095Y-117074095D01*
X129004190Y-117193142D02*
X128504190Y-117193142D01*
X128504190Y-117002666D01*
X128528000Y-116955047D01*
X128551810Y-116931238D01*
X128599429Y-116907428D01*
X128670857Y-116907428D01*
X128718476Y-116931238D01*
X128742286Y-116955047D01*
X128766095Y-117002666D01*
X128766095Y-117193142D01*
X129004190Y-116431238D02*
X129004190Y-116716952D01*
X129004190Y-116574095D02*
X128504190Y-116574095D01*
X128575619Y-116621714D01*
X128623238Y-116669333D01*
X128647048Y-116716952D01*
X128504190Y-116002667D02*
X128504190Y-116097905D01*
X128528000Y-116145524D01*
X128551810Y-116169333D01*
X128623238Y-116216952D01*
X128718476Y-116240762D01*
X128908952Y-116240762D01*
X128956571Y-116216952D01*
X128980381Y-116193143D01*
X129004190Y-116145524D01*
X129004190Y-116050286D01*
X128980381Y-116002667D01*
X128956571Y-115978857D01*
X128908952Y-115955048D01*
X128789905Y-115955048D01*
X128742286Y-115978857D01*
X128718476Y-116002667D01*
X128694667Y-116050286D01*
X128694667Y-116145524D01*
X128718476Y-116193143D01*
X128742286Y-116216952D01*
X128789905Y-116240762D01*
D11*
X159952381Y-117466952D02*
X159952381Y-117943143D01*
X160428571Y-117990762D01*
X160380952Y-117943143D01*
X160333333Y-117847905D01*
X160333333Y-117609809D01*
X160380952Y-117514571D01*
X160428571Y-117466952D01*
X160523810Y-117419333D01*
X160761905Y-117419333D01*
X160857143Y-117466952D01*
X160904762Y-117514571D01*
X160952381Y-117609809D01*
X160952381Y-117847905D01*
X160904762Y-117943143D01*
X160857143Y-117990762D01*
X160904762Y-116943143D02*
X160952381Y-116943143D01*
X161047619Y-116990762D01*
X161095238Y-117038381D01*
X159952381Y-116086000D02*
X159952381Y-116276477D01*
X160000000Y-116371715D01*
X160047619Y-116419334D01*
X160190476Y-116514572D01*
X160380952Y-116562191D01*
X160761905Y-116562191D01*
X160857143Y-116514572D01*
X160904762Y-116466953D01*
X160952381Y-116371715D01*
X160952381Y-116181238D01*
X160904762Y-116086000D01*
X160857143Y-116038381D01*
X160761905Y-115990762D01*
X160523810Y-115990762D01*
X160428571Y-116038381D01*
X160380952Y-116086000D01*
X160333333Y-116181238D01*
X160333333Y-116371715D01*
X160380952Y-116466953D01*
X160428571Y-116514572D01*
X160523810Y-116562191D01*
X160952381Y-115562191D02*
X159952381Y-115562191D01*
X160571429Y-115466953D02*
X160952381Y-115181238D01*
X160285714Y-115181238D02*
X160666667Y-115562191D01*
D12*
X158976190Y-116907428D02*
X158738095Y-117074095D01*
X158976190Y-117193142D02*
X158476190Y-117193142D01*
X158476190Y-117002666D01*
X158500000Y-116955047D01*
X158523810Y-116931238D01*
X158571429Y-116907428D01*
X158642857Y-116907428D01*
X158690476Y-116931238D01*
X158714286Y-116955047D01*
X158738095Y-117002666D01*
X158738095Y-117193142D01*
X158976190Y-116431238D02*
X158976190Y-116716952D01*
X158976190Y-116574095D02*
X158476190Y-116574095D01*
X158547619Y-116621714D01*
X158595238Y-116669333D01*
X158619048Y-116716952D01*
X158476190Y-116264571D02*
X158476190Y-115931238D01*
X158976190Y-116145524D01*
D11*
X149284381Y-117466952D02*
X149284381Y-117943143D01*
X149760571Y-117990762D01*
X149712952Y-117943143D01*
X149665333Y-117847905D01*
X149665333Y-117609809D01*
X149712952Y-117514571D01*
X149760571Y-117466952D01*
X149855810Y-117419333D01*
X150093905Y-117419333D01*
X150189143Y-117466952D01*
X150236762Y-117514571D01*
X150284381Y-117609809D01*
X150284381Y-117847905D01*
X150236762Y-117943143D01*
X150189143Y-117990762D01*
X150236762Y-116943143D02*
X150284381Y-116943143D01*
X150379619Y-116990762D01*
X150427238Y-117038381D01*
X149284381Y-116086000D02*
X149284381Y-116276477D01*
X149332000Y-116371715D01*
X149379619Y-116419334D01*
X149522476Y-116514572D01*
X149712952Y-116562191D01*
X150093905Y-116562191D01*
X150189143Y-116514572D01*
X150236762Y-116466953D01*
X150284381Y-116371715D01*
X150284381Y-116181238D01*
X150236762Y-116086000D01*
X150189143Y-116038381D01*
X150093905Y-115990762D01*
X149855810Y-115990762D01*
X149760571Y-116038381D01*
X149712952Y-116086000D01*
X149665333Y-116181238D01*
X149665333Y-116371715D01*
X149712952Y-116466953D01*
X149760571Y-116514572D01*
X149855810Y-116562191D01*
X150284381Y-115562191D02*
X149284381Y-115562191D01*
X149903429Y-115466953D02*
X150284381Y-115181238D01*
X149617714Y-115181238D02*
X149998667Y-115562191D01*
D12*
X148308190Y-116907428D02*
X148070095Y-117074095D01*
X148308190Y-117193142D02*
X147808190Y-117193142D01*
X147808190Y-117002666D01*
X147832000Y-116955047D01*
X147855810Y-116931238D01*
X147903429Y-116907428D01*
X147974857Y-116907428D01*
X148022476Y-116931238D01*
X148046286Y-116955047D01*
X148070095Y-117002666D01*
X148070095Y-117193142D01*
X148308190Y-116431238D02*
X148308190Y-116716952D01*
X148308190Y-116574095D02*
X147808190Y-116574095D01*
X147879619Y-116621714D01*
X147927238Y-116669333D01*
X147951048Y-116716952D01*
X148022476Y-116145524D02*
X147998667Y-116193143D01*
X147974857Y-116216952D01*
X147927238Y-116240762D01*
X147903429Y-116240762D01*
X147855810Y-116216952D01*
X147832000Y-116193143D01*
X147808190Y-116145524D01*
X147808190Y-116050286D01*
X147832000Y-116002667D01*
X147855810Y-115978857D01*
X147903429Y-115955048D01*
X147927238Y-115955048D01*
X147974857Y-115978857D01*
X147998667Y-116002667D01*
X148022476Y-116050286D01*
X148022476Y-116145524D01*
X148046286Y-116193143D01*
X148070095Y-116216952D01*
X148117714Y-116240762D01*
X148212952Y-116240762D01*
X148260571Y-116216952D01*
X148284381Y-116193143D01*
X148308190Y-116145524D01*
X148308190Y-116050286D01*
X148284381Y-116002667D01*
X148260571Y-115978857D01*
X148212952Y-115955048D01*
X148117714Y-115955048D01*
X148070095Y-115978857D01*
X148046286Y-116002667D01*
X148022476Y-116050286D01*
D11*
X138616381Y-117466952D02*
X138616381Y-117943143D01*
X139092571Y-117990762D01*
X139044952Y-117943143D01*
X138997333Y-117847905D01*
X138997333Y-117609809D01*
X139044952Y-117514571D01*
X139092571Y-117466952D01*
X139187810Y-117419333D01*
X139425905Y-117419333D01*
X139521143Y-117466952D01*
X139568762Y-117514571D01*
X139616381Y-117609809D01*
X139616381Y-117847905D01*
X139568762Y-117943143D01*
X139521143Y-117990762D01*
X139568762Y-116943143D02*
X139616381Y-116943143D01*
X139711619Y-116990762D01*
X139759238Y-117038381D01*
X138616381Y-116086000D02*
X138616381Y-116276477D01*
X138664000Y-116371715D01*
X138711619Y-116419334D01*
X138854476Y-116514572D01*
X139044952Y-116562191D01*
X139425905Y-116562191D01*
X139521143Y-116514572D01*
X139568762Y-116466953D01*
X139616381Y-116371715D01*
X139616381Y-116181238D01*
X139568762Y-116086000D01*
X139521143Y-116038381D01*
X139425905Y-115990762D01*
X139187810Y-115990762D01*
X139092571Y-116038381D01*
X139044952Y-116086000D01*
X138997333Y-116181238D01*
X138997333Y-116371715D01*
X139044952Y-116466953D01*
X139092571Y-116514572D01*
X139187810Y-116562191D01*
X139616381Y-115562191D02*
X138616381Y-115562191D01*
X139235429Y-115466953D02*
X139616381Y-115181238D01*
X138949714Y-115181238D02*
X139330667Y-115562191D01*
D12*
X137640190Y-116907428D02*
X137402095Y-117074095D01*
X137640190Y-117193142D02*
X137140190Y-117193142D01*
X137140190Y-117002666D01*
X137164000Y-116955047D01*
X137187810Y-116931238D01*
X137235429Y-116907428D01*
X137306857Y-116907428D01*
X137354476Y-116931238D01*
X137378286Y-116955047D01*
X137402095Y-117002666D01*
X137402095Y-117193142D01*
X137640190Y-116431238D02*
X137640190Y-116716952D01*
X137640190Y-116574095D02*
X137140190Y-116574095D01*
X137211619Y-116621714D01*
X137259238Y-116669333D01*
X137283048Y-116716952D01*
X137640190Y-116193143D02*
X137640190Y-116097905D01*
X137616381Y-116050286D01*
X137592571Y-116026476D01*
X137521143Y-115978857D01*
X137425905Y-115955048D01*
X137235429Y-115955048D01*
X137187810Y-115978857D01*
X137164000Y-116002667D01*
X137140190Y-116050286D01*
X137140190Y-116145524D01*
X137164000Y-116193143D01*
X137187810Y-116216952D01*
X137235429Y-116240762D01*
X137354476Y-116240762D01*
X137402095Y-116216952D01*
X137425905Y-116193143D01*
X137449714Y-116145524D01*
X137449714Y-116050286D01*
X137425905Y-116002667D01*
X137402095Y-115978857D01*
X137354476Y-115955048D01*
D11*
X127948381Y-117466952D02*
X127948381Y-117943143D01*
X128424571Y-117990762D01*
X128376952Y-117943143D01*
X128329333Y-117847905D01*
X128329333Y-117609809D01*
X128376952Y-117514571D01*
X128424571Y-117466952D01*
X128519810Y-117419333D01*
X128757905Y-117419333D01*
X128853143Y-117466952D01*
X128900762Y-117514571D01*
X128948381Y-117609809D01*
X128948381Y-117847905D01*
X128900762Y-117943143D01*
X128853143Y-117990762D01*
X128900762Y-116943143D02*
X128948381Y-116943143D01*
X129043619Y-116990762D01*
X129091238Y-117038381D01*
X127948381Y-116086000D02*
X127948381Y-116276477D01*
X127996000Y-116371715D01*
X128043619Y-116419334D01*
X128186476Y-116514572D01*
X128376952Y-116562191D01*
X128757905Y-116562191D01*
X128853143Y-116514572D01*
X128900762Y-116466953D01*
X128948381Y-116371715D01*
X128948381Y-116181238D01*
X128900762Y-116086000D01*
X128853143Y-116038381D01*
X128757905Y-115990762D01*
X128519810Y-115990762D01*
X128424571Y-116038381D01*
X128376952Y-116086000D01*
X128329333Y-116181238D01*
X128329333Y-116371715D01*
X128376952Y-116466953D01*
X128424571Y-116514572D01*
X128519810Y-116562191D01*
X128948381Y-115562191D02*
X127948381Y-115562191D01*
X128567429Y-115466953D02*
X128948381Y-115181238D01*
X128281714Y-115181238D02*
X128662667Y-115562191D01*
D12*
X126972190Y-116907428D02*
X126734095Y-117074095D01*
X126972190Y-117193142D02*
X126472190Y-117193142D01*
X126472190Y-117002666D01*
X126496000Y-116955047D01*
X126519810Y-116931238D01*
X126567429Y-116907428D01*
X126638857Y-116907428D01*
X126686476Y-116931238D01*
X126710286Y-116955047D01*
X126734095Y-117002666D01*
X126734095Y-117193142D01*
X126519810Y-116716952D02*
X126496000Y-116693142D01*
X126472190Y-116645523D01*
X126472190Y-116526476D01*
X126496000Y-116478857D01*
X126519810Y-116455047D01*
X126567429Y-116431238D01*
X126615048Y-116431238D01*
X126686476Y-116455047D01*
X126972190Y-116740761D01*
X126972190Y-116431238D01*
X126472190Y-116121714D02*
X126472190Y-116074095D01*
X126496000Y-116026476D01*
X126519810Y-116002667D01*
X126567429Y-115978857D01*
X126662667Y-115955048D01*
X126781714Y-115955048D01*
X126876952Y-115978857D01*
X126924571Y-116002667D01*
X126948381Y-116026476D01*
X126972190Y-116074095D01*
X126972190Y-116121714D01*
X126948381Y-116169333D01*
X126924571Y-116193143D01*
X126876952Y-116216952D01*
X126781714Y-116240762D01*
X126662667Y-116240762D01*
X126567429Y-116216952D01*
X126519810Y-116193143D01*
X126496000Y-116169333D01*
X126472190Y-116121714D01*
D11*
X163099905Y-117883619D02*
X163147524Y-117836000D01*
X163242762Y-117788381D01*
X163480858Y-117788381D01*
X163576096Y-117836000D01*
X163623715Y-117883619D01*
X163671334Y-117978857D01*
X163671334Y-118074095D01*
X163623715Y-118216952D01*
X163052286Y-118788381D01*
X163671334Y-118788381D01*
X164290381Y-117788381D02*
X164385620Y-117788381D01*
X164480858Y-117836000D01*
X164528477Y-117883619D01*
X164576096Y-117978857D01*
X164623715Y-118169333D01*
X164623715Y-118407429D01*
X164576096Y-118597905D01*
X164528477Y-118693143D01*
X164480858Y-118740762D01*
X164385620Y-118788381D01*
X164290381Y-118788381D01*
X164195143Y-118740762D01*
X164147524Y-118693143D01*
X164099905Y-118597905D01*
X164052286Y-118407429D01*
X164052286Y-118169333D01*
X164099905Y-117978857D01*
X164147524Y-117883619D01*
X164195143Y-117836000D01*
X164290381Y-117788381D01*
X165242762Y-117788381D02*
X165338001Y-117788381D01*
X165433239Y-117836000D01*
X165480858Y-117883619D01*
X165528477Y-117978857D01*
X165576096Y-118169333D01*
X165576096Y-118407429D01*
X165528477Y-118597905D01*
X165480858Y-118693143D01*
X165433239Y-118740762D01*
X165338001Y-118788381D01*
X165242762Y-118788381D01*
X165147524Y-118740762D01*
X165099905Y-118693143D01*
X165052286Y-118597905D01*
X165004667Y-118407429D01*
X165004667Y-118169333D01*
X165052286Y-117978857D01*
X165099905Y-117883619D01*
X165147524Y-117836000D01*
X165242762Y-117788381D01*
D12*
X164016572Y-116812190D02*
X163849905Y-116574095D01*
X163730858Y-116812190D02*
X163730858Y-116312190D01*
X163921334Y-116312190D01*
X163968953Y-116336000D01*
X163992762Y-116359810D01*
X164016572Y-116407429D01*
X164016572Y-116478857D01*
X163992762Y-116526476D01*
X163968953Y-116550286D01*
X163921334Y-116574095D01*
X163730858Y-116574095D01*
X164207048Y-116359810D02*
X164230858Y-116336000D01*
X164278477Y-116312190D01*
X164397524Y-116312190D01*
X164445143Y-116336000D01*
X164468953Y-116359810D01*
X164492762Y-116407429D01*
X164492762Y-116455048D01*
X164468953Y-116526476D01*
X164183239Y-116812190D01*
X164492762Y-116812190D01*
X164968952Y-116812190D02*
X164683238Y-116812190D01*
X164826095Y-116812190D02*
X164826095Y-116312190D01*
X164778476Y-116383619D01*
X164730857Y-116431238D01*
X164683238Y-116455048D01*
D11*
X152431905Y-117883619D02*
X152479524Y-117836000D01*
X152574762Y-117788381D01*
X152812858Y-117788381D01*
X152908096Y-117836000D01*
X152955715Y-117883619D01*
X153003334Y-117978857D01*
X153003334Y-118074095D01*
X152955715Y-118216952D01*
X152384286Y-118788381D01*
X153003334Y-118788381D01*
X153622381Y-117788381D02*
X153717620Y-117788381D01*
X153812858Y-117836000D01*
X153860477Y-117883619D01*
X153908096Y-117978857D01*
X153955715Y-118169333D01*
X153955715Y-118407429D01*
X153908096Y-118597905D01*
X153860477Y-118693143D01*
X153812858Y-118740762D01*
X153717620Y-118788381D01*
X153622381Y-118788381D01*
X153527143Y-118740762D01*
X153479524Y-118693143D01*
X153431905Y-118597905D01*
X153384286Y-118407429D01*
X153384286Y-118169333D01*
X153431905Y-117978857D01*
X153479524Y-117883619D01*
X153527143Y-117836000D01*
X153622381Y-117788381D01*
X154574762Y-117788381D02*
X154670001Y-117788381D01*
X154765239Y-117836000D01*
X154812858Y-117883619D01*
X154860477Y-117978857D01*
X154908096Y-118169333D01*
X154908096Y-118407429D01*
X154860477Y-118597905D01*
X154812858Y-118693143D01*
X154765239Y-118740762D01*
X154670001Y-118788381D01*
X154574762Y-118788381D01*
X154479524Y-118740762D01*
X154431905Y-118693143D01*
X154384286Y-118597905D01*
X154336667Y-118407429D01*
X154336667Y-118169333D01*
X154384286Y-117978857D01*
X154431905Y-117883619D01*
X154479524Y-117836000D01*
X154574762Y-117788381D01*
D12*
X153348572Y-116812190D02*
X153181905Y-116574095D01*
X153062858Y-116812190D02*
X153062858Y-116312190D01*
X153253334Y-116312190D01*
X153300953Y-116336000D01*
X153324762Y-116359810D01*
X153348572Y-116407429D01*
X153348572Y-116478857D01*
X153324762Y-116526476D01*
X153300953Y-116550286D01*
X153253334Y-116574095D01*
X153062858Y-116574095D01*
X153539048Y-116359810D02*
X153562858Y-116336000D01*
X153610477Y-116312190D01*
X153729524Y-116312190D01*
X153777143Y-116336000D01*
X153800953Y-116359810D01*
X153824762Y-116407429D01*
X153824762Y-116455048D01*
X153800953Y-116526476D01*
X153515239Y-116812190D01*
X153824762Y-116812190D01*
X154015238Y-116359810D02*
X154039048Y-116336000D01*
X154086667Y-116312190D01*
X154205714Y-116312190D01*
X154253333Y-116336000D01*
X154277143Y-116359810D01*
X154300952Y-116407429D01*
X154300952Y-116455048D01*
X154277143Y-116526476D01*
X153991429Y-116812190D01*
X154300952Y-116812190D01*
D11*
X141763905Y-117883619D02*
X141811524Y-117836000D01*
X141906762Y-117788381D01*
X142144858Y-117788381D01*
X142240096Y-117836000D01*
X142287715Y-117883619D01*
X142335334Y-117978857D01*
X142335334Y-118074095D01*
X142287715Y-118216952D01*
X141716286Y-118788381D01*
X142335334Y-118788381D01*
X142954381Y-117788381D02*
X143049620Y-117788381D01*
X143144858Y-117836000D01*
X143192477Y-117883619D01*
X143240096Y-117978857D01*
X143287715Y-118169333D01*
X143287715Y-118407429D01*
X143240096Y-118597905D01*
X143192477Y-118693143D01*
X143144858Y-118740762D01*
X143049620Y-118788381D01*
X142954381Y-118788381D01*
X142859143Y-118740762D01*
X142811524Y-118693143D01*
X142763905Y-118597905D01*
X142716286Y-118407429D01*
X142716286Y-118169333D01*
X142763905Y-117978857D01*
X142811524Y-117883619D01*
X142859143Y-117836000D01*
X142954381Y-117788381D01*
X143906762Y-117788381D02*
X144002001Y-117788381D01*
X144097239Y-117836000D01*
X144144858Y-117883619D01*
X144192477Y-117978857D01*
X144240096Y-118169333D01*
X144240096Y-118407429D01*
X144192477Y-118597905D01*
X144144858Y-118693143D01*
X144097239Y-118740762D01*
X144002001Y-118788381D01*
X143906762Y-118788381D01*
X143811524Y-118740762D01*
X143763905Y-118693143D01*
X143716286Y-118597905D01*
X143668667Y-118407429D01*
X143668667Y-118169333D01*
X143716286Y-117978857D01*
X143763905Y-117883619D01*
X143811524Y-117836000D01*
X143906762Y-117788381D01*
D12*
X142680572Y-116812190D02*
X142513905Y-116574095D01*
X142394858Y-116812190D02*
X142394858Y-116312190D01*
X142585334Y-116312190D01*
X142632953Y-116336000D01*
X142656762Y-116359810D01*
X142680572Y-116407429D01*
X142680572Y-116478857D01*
X142656762Y-116526476D01*
X142632953Y-116550286D01*
X142585334Y-116574095D01*
X142394858Y-116574095D01*
X142871048Y-116359810D02*
X142894858Y-116336000D01*
X142942477Y-116312190D01*
X143061524Y-116312190D01*
X143109143Y-116336000D01*
X143132953Y-116359810D01*
X143156762Y-116407429D01*
X143156762Y-116455048D01*
X143132953Y-116526476D01*
X142847239Y-116812190D01*
X143156762Y-116812190D01*
X143323429Y-116312190D02*
X143632952Y-116312190D01*
X143466286Y-116502667D01*
X143537714Y-116502667D01*
X143585333Y-116526476D01*
X143609143Y-116550286D01*
X143632952Y-116597905D01*
X143632952Y-116716952D01*
X143609143Y-116764571D01*
X143585333Y-116788381D01*
X143537714Y-116812190D01*
X143394857Y-116812190D01*
X143347238Y-116788381D01*
X143323429Y-116764571D01*
D11*
X131095905Y-117883619D02*
X131143524Y-117836000D01*
X131238762Y-117788381D01*
X131476858Y-117788381D01*
X131572096Y-117836000D01*
X131619715Y-117883619D01*
X131667334Y-117978857D01*
X131667334Y-118074095D01*
X131619715Y-118216952D01*
X131048286Y-118788381D01*
X131667334Y-118788381D01*
X132286381Y-117788381D02*
X132381620Y-117788381D01*
X132476858Y-117836000D01*
X132524477Y-117883619D01*
X132572096Y-117978857D01*
X132619715Y-118169333D01*
X132619715Y-118407429D01*
X132572096Y-118597905D01*
X132524477Y-118693143D01*
X132476858Y-118740762D01*
X132381620Y-118788381D01*
X132286381Y-118788381D01*
X132191143Y-118740762D01*
X132143524Y-118693143D01*
X132095905Y-118597905D01*
X132048286Y-118407429D01*
X132048286Y-118169333D01*
X132095905Y-117978857D01*
X132143524Y-117883619D01*
X132191143Y-117836000D01*
X132286381Y-117788381D01*
X133238762Y-117788381D02*
X133334001Y-117788381D01*
X133429239Y-117836000D01*
X133476858Y-117883619D01*
X133524477Y-117978857D01*
X133572096Y-118169333D01*
X133572096Y-118407429D01*
X133524477Y-118597905D01*
X133476858Y-118693143D01*
X133429239Y-118740762D01*
X133334001Y-118788381D01*
X133238762Y-118788381D01*
X133143524Y-118740762D01*
X133095905Y-118693143D01*
X133048286Y-118597905D01*
X133000667Y-118407429D01*
X133000667Y-118169333D01*
X133048286Y-117978857D01*
X133095905Y-117883619D01*
X133143524Y-117836000D01*
X133238762Y-117788381D01*
D12*
X132012572Y-116812190D02*
X131845905Y-116574095D01*
X131726858Y-116812190D02*
X131726858Y-116312190D01*
X131917334Y-116312190D01*
X131964953Y-116336000D01*
X131988762Y-116359810D01*
X132012572Y-116407429D01*
X132012572Y-116478857D01*
X131988762Y-116526476D01*
X131964953Y-116550286D01*
X131917334Y-116574095D01*
X131726858Y-116574095D01*
X132203048Y-116359810D02*
X132226858Y-116336000D01*
X132274477Y-116312190D01*
X132393524Y-116312190D01*
X132441143Y-116336000D01*
X132464953Y-116359810D01*
X132488762Y-116407429D01*
X132488762Y-116455048D01*
X132464953Y-116526476D01*
X132179239Y-116812190D01*
X132488762Y-116812190D01*
X132917333Y-116478857D02*
X132917333Y-116812190D01*
X132798286Y-116288381D02*
X132679238Y-116645524D01*
X132988762Y-116645524D01*
D11*
X132830381Y-137929619D02*
X132830381Y-138405810D01*
X131830381Y-138405810D01*
X131830381Y-137739143D02*
X131830381Y-137167714D01*
X132830381Y-137453429D02*
X131830381Y-137453429D01*
X131830381Y-136977238D02*
X132830381Y-136643905D01*
X131830381Y-136310571D01*
X132449429Y-135977238D02*
X132449429Y-135215333D01*
X132258952Y-134596286D02*
X132211333Y-134691524D01*
X132163714Y-134739143D01*
X132068476Y-134786762D01*
X132020857Y-134786762D01*
X131925619Y-134739143D01*
X131878000Y-134691524D01*
X131830381Y-134596286D01*
X131830381Y-134405809D01*
X131878000Y-134310571D01*
X131925619Y-134262952D01*
X132020857Y-134215333D01*
X132068476Y-134215333D01*
X132163714Y-134262952D01*
X132211333Y-134310571D01*
X132258952Y-134405809D01*
X132258952Y-134596286D01*
X132306571Y-134691524D01*
X132354190Y-134739143D01*
X132449429Y-134786762D01*
X132639905Y-134786762D01*
X132735143Y-134739143D01*
X132782762Y-134691524D01*
X132830381Y-134596286D01*
X132830381Y-134405809D01*
X132782762Y-134310571D01*
X132735143Y-134262952D01*
X132639905Y-134215333D01*
X132449429Y-134215333D01*
X132354190Y-134262952D01*
X132306571Y-134310571D01*
X132258952Y-134405809D01*
X132830381Y-133262952D02*
X132830381Y-133834381D01*
X132830381Y-133548667D02*
X131830381Y-133548667D01*
X131973238Y-133643905D01*
X132068476Y-133739143D01*
X132116095Y-133834381D01*
X131830381Y-132929619D02*
X131830381Y-132262952D01*
X132830381Y-132691524D01*
X128230381Y-136143905D02*
X129039905Y-136143905D01*
X129135143Y-136096286D01*
X129182762Y-136048667D01*
X129230381Y-135953429D01*
X129230381Y-135762952D01*
X129182762Y-135667714D01*
X129135143Y-135620095D01*
X129039905Y-135572476D01*
X128230381Y-135572476D01*
X129230381Y-134572476D02*
X129230381Y-135143905D01*
X129230381Y-134858191D02*
X128230381Y-134858191D01*
X128373238Y-134953429D01*
X128468476Y-135048667D01*
X128516095Y-135143905D01*
X143498381Y-137929619D02*
X143498381Y-138405810D01*
X142498381Y-138405810D01*
X142498381Y-137739143D02*
X142498381Y-137167714D01*
X143498381Y-137453429D02*
X142498381Y-137453429D01*
X142498381Y-136977238D02*
X143498381Y-136643905D01*
X142498381Y-136310571D01*
X143117429Y-135977238D02*
X143117429Y-135215333D01*
X142926952Y-134596286D02*
X142879333Y-134691524D01*
X142831714Y-134739143D01*
X142736476Y-134786762D01*
X142688857Y-134786762D01*
X142593619Y-134739143D01*
X142546000Y-134691524D01*
X142498381Y-134596286D01*
X142498381Y-134405809D01*
X142546000Y-134310571D01*
X142593619Y-134262952D01*
X142688857Y-134215333D01*
X142736476Y-134215333D01*
X142831714Y-134262952D01*
X142879333Y-134310571D01*
X142926952Y-134405809D01*
X142926952Y-134596286D01*
X142974571Y-134691524D01*
X143022190Y-134739143D01*
X143117429Y-134786762D01*
X143307905Y-134786762D01*
X143403143Y-134739143D01*
X143450762Y-134691524D01*
X143498381Y-134596286D01*
X143498381Y-134405809D01*
X143450762Y-134310571D01*
X143403143Y-134262952D01*
X143307905Y-134215333D01*
X143117429Y-134215333D01*
X143022190Y-134262952D01*
X142974571Y-134310571D01*
X142926952Y-134405809D01*
X143498381Y-133262952D02*
X143498381Y-133834381D01*
X143498381Y-133548667D02*
X142498381Y-133548667D01*
X142641238Y-133643905D01*
X142736476Y-133739143D01*
X142784095Y-133834381D01*
X142498381Y-132929619D02*
X142498381Y-132262952D01*
X143498381Y-132691524D01*
X138898381Y-136143905D02*
X139707905Y-136143905D01*
X139803143Y-136096286D01*
X139850762Y-136048667D01*
X139898381Y-135953429D01*
X139898381Y-135762952D01*
X139850762Y-135667714D01*
X139803143Y-135620095D01*
X139707905Y-135572476D01*
X138898381Y-135572476D01*
X138993619Y-135143905D02*
X138946000Y-135096286D01*
X138898381Y-135001048D01*
X138898381Y-134762952D01*
X138946000Y-134667714D01*
X138993619Y-134620095D01*
X139088857Y-134572476D01*
X139184095Y-134572476D01*
X139326952Y-134620095D01*
X139898381Y-135191524D01*
X139898381Y-134572476D01*
X154166381Y-137929619D02*
X154166381Y-138405810D01*
X153166381Y-138405810D01*
X153166381Y-137739143D02*
X153166381Y-137167714D01*
X154166381Y-137453429D02*
X153166381Y-137453429D01*
X153166381Y-136977238D02*
X154166381Y-136643905D01*
X153166381Y-136310571D01*
X153785429Y-135977238D02*
X153785429Y-135215333D01*
X153594952Y-134596286D02*
X153547333Y-134691524D01*
X153499714Y-134739143D01*
X153404476Y-134786762D01*
X153356857Y-134786762D01*
X153261619Y-134739143D01*
X153214000Y-134691524D01*
X153166381Y-134596286D01*
X153166381Y-134405809D01*
X153214000Y-134310571D01*
X153261619Y-134262952D01*
X153356857Y-134215333D01*
X153404476Y-134215333D01*
X153499714Y-134262952D01*
X153547333Y-134310571D01*
X153594952Y-134405809D01*
X153594952Y-134596286D01*
X153642571Y-134691524D01*
X153690190Y-134739143D01*
X153785429Y-134786762D01*
X153975905Y-134786762D01*
X154071143Y-134739143D01*
X154118762Y-134691524D01*
X154166381Y-134596286D01*
X154166381Y-134405809D01*
X154118762Y-134310571D01*
X154071143Y-134262952D01*
X153975905Y-134215333D01*
X153785429Y-134215333D01*
X153690190Y-134262952D01*
X153642571Y-134310571D01*
X153594952Y-134405809D01*
X154166381Y-133262952D02*
X154166381Y-133834381D01*
X154166381Y-133548667D02*
X153166381Y-133548667D01*
X153309238Y-133643905D01*
X153404476Y-133739143D01*
X153452095Y-133834381D01*
X153166381Y-132929619D02*
X153166381Y-132262952D01*
X154166381Y-132691524D01*
X149566381Y-136143905D02*
X150375905Y-136143905D01*
X150471143Y-136096286D01*
X150518762Y-136048667D01*
X150566381Y-135953429D01*
X150566381Y-135762952D01*
X150518762Y-135667714D01*
X150471143Y-135620095D01*
X150375905Y-135572476D01*
X149566381Y-135572476D01*
X149566381Y-135191524D02*
X149566381Y-134572476D01*
X149947333Y-134905810D01*
X149947333Y-134762952D01*
X149994952Y-134667714D01*
X150042571Y-134620095D01*
X150137810Y-134572476D01*
X150375905Y-134572476D01*
X150471143Y-134620095D01*
X150518762Y-134667714D01*
X150566381Y-134762952D01*
X150566381Y-135048667D01*
X150518762Y-135143905D01*
X150471143Y-135191524D01*
X164834381Y-137929619D02*
X164834381Y-138405810D01*
X163834381Y-138405810D01*
X163834381Y-137739143D02*
X163834381Y-137167714D01*
X164834381Y-137453429D02*
X163834381Y-137453429D01*
X163834381Y-136977238D02*
X164834381Y-136643905D01*
X163834381Y-136310571D01*
X164453429Y-135977238D02*
X164453429Y-135215333D01*
X164262952Y-134596286D02*
X164215333Y-134691524D01*
X164167714Y-134739143D01*
X164072476Y-134786762D01*
X164024857Y-134786762D01*
X163929619Y-134739143D01*
X163882000Y-134691524D01*
X163834381Y-134596286D01*
X163834381Y-134405809D01*
X163882000Y-134310571D01*
X163929619Y-134262952D01*
X164024857Y-134215333D01*
X164072476Y-134215333D01*
X164167714Y-134262952D01*
X164215333Y-134310571D01*
X164262952Y-134405809D01*
X164262952Y-134596286D01*
X164310571Y-134691524D01*
X164358190Y-134739143D01*
X164453429Y-134786762D01*
X164643905Y-134786762D01*
X164739143Y-134739143D01*
X164786762Y-134691524D01*
X164834381Y-134596286D01*
X164834381Y-134405809D01*
X164786762Y-134310571D01*
X164739143Y-134262952D01*
X164643905Y-134215333D01*
X164453429Y-134215333D01*
X164358190Y-134262952D01*
X164310571Y-134310571D01*
X164262952Y-134405809D01*
X164834381Y-133262952D02*
X164834381Y-133834381D01*
X164834381Y-133548667D02*
X163834381Y-133548667D01*
X163977238Y-133643905D01*
X164072476Y-133739143D01*
X164120095Y-133834381D01*
X163834381Y-132929619D02*
X163834381Y-132262952D01*
X164834381Y-132691524D01*
X160234381Y-136143905D02*
X161043905Y-136143905D01*
X161139143Y-136096286D01*
X161186762Y-136048667D01*
X161234381Y-135953429D01*
X161234381Y-135762952D01*
X161186762Y-135667714D01*
X161139143Y-135620095D01*
X161043905Y-135572476D01*
X160234381Y-135572476D01*
X160567714Y-134667714D02*
X161234381Y-134667714D01*
X160186762Y-134905810D02*
X160901048Y-135143905D01*
X160901048Y-134524857D01*
X161444381Y-124975619D02*
X161444381Y-125451810D01*
X160444381Y-125451810D01*
X160444381Y-124785143D02*
X160444381Y-124213714D01*
X161444381Y-124499429D02*
X160444381Y-124499429D01*
X160444381Y-124023238D02*
X161444381Y-123689905D01*
X160444381Y-123356571D01*
X161063429Y-123023238D02*
X161063429Y-122261333D01*
X160872952Y-121642286D02*
X160825333Y-121737524D01*
X160777714Y-121785143D01*
X160682476Y-121832762D01*
X160634857Y-121832762D01*
X160539619Y-121785143D01*
X160492000Y-121737524D01*
X160444381Y-121642286D01*
X160444381Y-121451809D01*
X160492000Y-121356571D01*
X160539619Y-121308952D01*
X160634857Y-121261333D01*
X160682476Y-121261333D01*
X160777714Y-121308952D01*
X160825333Y-121356571D01*
X160872952Y-121451809D01*
X160872952Y-121642286D01*
X160920571Y-121737524D01*
X160968190Y-121785143D01*
X161063429Y-121832762D01*
X161253905Y-121832762D01*
X161349143Y-121785143D01*
X161396762Y-121737524D01*
X161444381Y-121642286D01*
X161444381Y-121451809D01*
X161396762Y-121356571D01*
X161349143Y-121308952D01*
X161253905Y-121261333D01*
X161063429Y-121261333D01*
X160968190Y-121308952D01*
X160920571Y-121356571D01*
X160872952Y-121451809D01*
X161444381Y-120308952D02*
X161444381Y-120880381D01*
X161444381Y-120594667D02*
X160444381Y-120594667D01*
X160587238Y-120689905D01*
X160682476Y-120785143D01*
X160730095Y-120880381D01*
X160444381Y-119975619D02*
X160444381Y-119308952D01*
X161444381Y-119737524D01*
X164044381Y-123189905D02*
X164853905Y-123189905D01*
X164949143Y-123142286D01*
X164996762Y-123094667D01*
X165044381Y-122999429D01*
X165044381Y-122808952D01*
X164996762Y-122713714D01*
X164949143Y-122666095D01*
X164853905Y-122618476D01*
X164044381Y-122618476D01*
X164044381Y-121666095D02*
X164044381Y-122142286D01*
X164520571Y-122189905D01*
X164472952Y-122142286D01*
X164425333Y-122047048D01*
X164425333Y-121808952D01*
X164472952Y-121713714D01*
X164520571Y-121666095D01*
X164615810Y-121618476D01*
X164853905Y-121618476D01*
X164949143Y-121666095D01*
X164996762Y-121713714D01*
X165044381Y-121808952D01*
X165044381Y-122047048D01*
X164996762Y-122142286D01*
X164949143Y-122189905D01*
X150776381Y-124975619D02*
X150776381Y-125451810D01*
X149776381Y-125451810D01*
X149776381Y-124785143D02*
X149776381Y-124213714D01*
X150776381Y-124499429D02*
X149776381Y-124499429D01*
X149776381Y-124023238D02*
X150776381Y-123689905D01*
X149776381Y-123356571D01*
X150395429Y-123023238D02*
X150395429Y-122261333D01*
X150204952Y-121642286D02*
X150157333Y-121737524D01*
X150109714Y-121785143D01*
X150014476Y-121832762D01*
X149966857Y-121832762D01*
X149871619Y-121785143D01*
X149824000Y-121737524D01*
X149776381Y-121642286D01*
X149776381Y-121451809D01*
X149824000Y-121356571D01*
X149871619Y-121308952D01*
X149966857Y-121261333D01*
X150014476Y-121261333D01*
X150109714Y-121308952D01*
X150157333Y-121356571D01*
X150204952Y-121451809D01*
X150204952Y-121642286D01*
X150252571Y-121737524D01*
X150300190Y-121785143D01*
X150395429Y-121832762D01*
X150585905Y-121832762D01*
X150681143Y-121785143D01*
X150728762Y-121737524D01*
X150776381Y-121642286D01*
X150776381Y-121451809D01*
X150728762Y-121356571D01*
X150681143Y-121308952D01*
X150585905Y-121261333D01*
X150395429Y-121261333D01*
X150300190Y-121308952D01*
X150252571Y-121356571D01*
X150204952Y-121451809D01*
X150776381Y-120308952D02*
X150776381Y-120880381D01*
X150776381Y-120594667D02*
X149776381Y-120594667D01*
X149919238Y-120689905D01*
X150014476Y-120785143D01*
X150062095Y-120880381D01*
X149776381Y-119975619D02*
X149776381Y-119308952D01*
X150776381Y-119737524D01*
X153376381Y-123189905D02*
X154185905Y-123189905D01*
X154281143Y-123142286D01*
X154328762Y-123094667D01*
X154376381Y-122999429D01*
X154376381Y-122808952D01*
X154328762Y-122713714D01*
X154281143Y-122666095D01*
X154185905Y-122618476D01*
X153376381Y-122618476D01*
X153376381Y-121713714D02*
X153376381Y-121904191D01*
X153424000Y-121999429D01*
X153471619Y-122047048D01*
X153614476Y-122142286D01*
X153804952Y-122189905D01*
X154185905Y-122189905D01*
X154281143Y-122142286D01*
X154328762Y-122094667D01*
X154376381Y-121999429D01*
X154376381Y-121808952D01*
X154328762Y-121713714D01*
X154281143Y-121666095D01*
X154185905Y-121618476D01*
X153947810Y-121618476D01*
X153852571Y-121666095D01*
X153804952Y-121713714D01*
X153757333Y-121808952D01*
X153757333Y-121999429D01*
X153804952Y-122094667D01*
X153852571Y-122142286D01*
X153947810Y-122189905D01*
X140108381Y-124975619D02*
X140108381Y-125451810D01*
X139108381Y-125451810D01*
X139108381Y-124785143D02*
X139108381Y-124213714D01*
X140108381Y-124499429D02*
X139108381Y-124499429D01*
X139108381Y-124023238D02*
X140108381Y-123689905D01*
X139108381Y-123356571D01*
X139727429Y-123023238D02*
X139727429Y-122261333D01*
X139536952Y-121642286D02*
X139489333Y-121737524D01*
X139441714Y-121785143D01*
X139346476Y-121832762D01*
X139298857Y-121832762D01*
X139203619Y-121785143D01*
X139156000Y-121737524D01*
X139108381Y-121642286D01*
X139108381Y-121451809D01*
X139156000Y-121356571D01*
X139203619Y-121308952D01*
X139298857Y-121261333D01*
X139346476Y-121261333D01*
X139441714Y-121308952D01*
X139489333Y-121356571D01*
X139536952Y-121451809D01*
X139536952Y-121642286D01*
X139584571Y-121737524D01*
X139632190Y-121785143D01*
X139727429Y-121832762D01*
X139917905Y-121832762D01*
X140013143Y-121785143D01*
X140060762Y-121737524D01*
X140108381Y-121642286D01*
X140108381Y-121451809D01*
X140060762Y-121356571D01*
X140013143Y-121308952D01*
X139917905Y-121261333D01*
X139727429Y-121261333D01*
X139632190Y-121308952D01*
X139584571Y-121356571D01*
X139536952Y-121451809D01*
X140108381Y-120308952D02*
X140108381Y-120880381D01*
X140108381Y-120594667D02*
X139108381Y-120594667D01*
X139251238Y-120689905D01*
X139346476Y-120785143D01*
X139394095Y-120880381D01*
X139108381Y-119975619D02*
X139108381Y-119308952D01*
X140108381Y-119737524D01*
X142708381Y-123189905D02*
X143517905Y-123189905D01*
X143613143Y-123142286D01*
X143660762Y-123094667D01*
X143708381Y-122999429D01*
X143708381Y-122808952D01*
X143660762Y-122713714D01*
X143613143Y-122666095D01*
X143517905Y-122618476D01*
X142708381Y-122618476D01*
X142708381Y-122237524D02*
X142708381Y-121570857D01*
X143708381Y-121999429D01*
X129440381Y-124975619D02*
X129440381Y-125451810D01*
X128440381Y-125451810D01*
X128440381Y-124785143D02*
X128440381Y-124213714D01*
X129440381Y-124499429D02*
X128440381Y-124499429D01*
X128440381Y-124023238D02*
X129440381Y-123689905D01*
X128440381Y-123356571D01*
X129059429Y-123023238D02*
X129059429Y-122261333D01*
X128868952Y-121642286D02*
X128821333Y-121737524D01*
X128773714Y-121785143D01*
X128678476Y-121832762D01*
X128630857Y-121832762D01*
X128535619Y-121785143D01*
X128488000Y-121737524D01*
X128440381Y-121642286D01*
X128440381Y-121451809D01*
X128488000Y-121356571D01*
X128535619Y-121308952D01*
X128630857Y-121261333D01*
X128678476Y-121261333D01*
X128773714Y-121308952D01*
X128821333Y-121356571D01*
X128868952Y-121451809D01*
X128868952Y-121642286D01*
X128916571Y-121737524D01*
X128964190Y-121785143D01*
X129059429Y-121832762D01*
X129249905Y-121832762D01*
X129345143Y-121785143D01*
X129392762Y-121737524D01*
X129440381Y-121642286D01*
X129440381Y-121451809D01*
X129392762Y-121356571D01*
X129345143Y-121308952D01*
X129249905Y-121261333D01*
X129059429Y-121261333D01*
X128964190Y-121308952D01*
X128916571Y-121356571D01*
X128868952Y-121451809D01*
X129440381Y-120308952D02*
X129440381Y-120880381D01*
X129440381Y-120594667D02*
X128440381Y-120594667D01*
X128583238Y-120689905D01*
X128678476Y-120785143D01*
X128726095Y-120880381D01*
X128440381Y-119975619D02*
X128440381Y-119308952D01*
X129440381Y-119737524D01*
X132040381Y-123189905D02*
X132849905Y-123189905D01*
X132945143Y-123142286D01*
X132992762Y-123094667D01*
X133040381Y-122999429D01*
X133040381Y-122808952D01*
X132992762Y-122713714D01*
X132945143Y-122666095D01*
X132849905Y-122618476D01*
X132040381Y-122618476D01*
X132468952Y-121999429D02*
X132421333Y-122094667D01*
X132373714Y-122142286D01*
X132278476Y-122189905D01*
X132230857Y-122189905D01*
X132135619Y-122142286D01*
X132088000Y-122094667D01*
X132040381Y-121999429D01*
X132040381Y-121808952D01*
X132088000Y-121713714D01*
X132135619Y-121666095D01*
X132230857Y-121618476D01*
X132278476Y-121618476D01*
X132373714Y-121666095D01*
X132421333Y-121713714D01*
X132468952Y-121808952D01*
X132468952Y-121999429D01*
X132516571Y-122094667D01*
X132564190Y-122142286D01*
X132659429Y-122189905D01*
X132849905Y-122189905D01*
X132945143Y-122142286D01*
X132992762Y-122094667D01*
X133040381Y-121999429D01*
X133040381Y-121808952D01*
X132992762Y-121713714D01*
X132945143Y-121666095D01*
X132849905Y-121618476D01*
X132659429Y-121618476D01*
X132564190Y-121666095D01*
X132516571Y-121713714D01*
X132468952Y-121808952D01*
M02*
