<?xml version="1.0" encoding="UTF-8"?>
<svg width="24px" height="27px" viewBox="0 0 24 27" version="1.1" xmlns="http://www.w3.org/2000/svg" xmlns:xlink="http://www.w3.org/1999/xlink">
    <!-- Generator: Sketch 48.2 (47327) - http://www.bohemiancoding.com/sketch -->
    <title>icons/coffee/1x1</title>
    <desc>Created with Sketch.</desc>
    <defs></defs>
    <g id="Symbols" stroke="none" stroke-width="1" fill="none" fill-rule="evenodd">
        <g id="icons/coffee/1x1" fill="#D7BE82">
            <g id="coffee1x1">
                <path d="M0,0 L24,0 L21.312,24.6634615 C21.2053328,25.334138 20.9120024,25.8912237 20.432,26.3347356 C19.9519976,26.7782474 19.3706701,27 18.688,27 L5.312,27 C4.62932992,27 4.0480024,26.7782474 3.568,26.3347356 C3.0879976,25.8912237 2.7946672,25.334138 2.688,24.6634615 L0,0 Z M20.455516,8 L21,3 L3,3 L3.54448399,8 L20.455516,8 Z M12,23 C12.7040035,23 13.3653302,22.8219065 13.984,22.4657143 C14.6026698,22.109522 15.0933315,21.6276221 15.456,21.02 C15.8186685,20.4123779 16,19.7628606 16,19.0714286 C16,18.4638065 15.7866688,17.7200044 15.36,16.84 C15.0399984,16.148568 14.5920029,15.3838137 14.016,14.5457143 C13.5893312,13.9380922 13.1306691,13.3304792 12.64,12.7228571 L12,12 L11.36,12.7228571 C10.8693309,13.3304792 10.4213354,13.9380922 10.016,14.5457143 C9.41866368,15.3838137 8.9600016,16.148568 8.64,16.84 C8.2133312,17.7200044 8,18.4638065 8,19.0714286 C8,19.7628606 8.18133152,20.4123779 8.544,21.02 C8.90666848,21.6276221 9.39733024,22.109522 10.016,22.4657143 C10.6346698,22.8219065 11.2959965,23 12,23 Z" id="Combined-Shape"></path>
            </g>
        </g>
    </g>
</svg>