<?xml version="1.0" encoding="UTF-8"?>
<svg width="62px" height="72px" viewBox="0 0 62 72" version="1.1" xmlns="http://www.w3.org/2000/svg" xmlns:xlink="http://www.w3.org/1999/xlink">
    <!-- Generator: Sketch 48.2 (47327) - http://www.bohemiancoding.com/sketch -->
    <title>icons/coffee/2x2</title>
    <desc>Created with Sketch.</desc>
    <defs></defs>
    <g id="Symbols" stroke="none" stroke-width="1" fill="none" fill-rule="evenodd">
        <g id="icons/coffee/2x2" fill="#D7BE82">
            <g id="coffee2x2">
                <path d="M39.448,8.488 L39.992,3.112 L22.008,3.112 L22.552,8.488 L39.448,8.488 Z M31,23.112 C31.7040035,23.112 32.3653302,22.9306685 32.984,22.568 C33.6026698,22.2053315 34.0933315,21.7146698 34.456,21.096 C34.8186685,20.4773302 35,19.8160035 35,19.112 C35,18.4933302 34.7866688,17.7360045 34.36,16.84 C34.0399984,16.1359965 33.5920029,15.3573376 33.016,14.504 C32.5893312,13.8853302 32.1306691,13.2666698 31.64,12.648 L31,11.912 L30.36,12.648 C29.8693309,13.2666698 29.4213354,13.8853302 29.016,14.504 C28.4186637,15.3573376 27.9600016,16.1359965 27.64,16.84 C27.2133312,17.7360045 27,18.4933302 27,19.112 C27,19.8160035 27.1813315,20.4773302 27.544,21.096 C27.9066685,21.7146698 28.3973302,22.2053315 29.016,22.568 C29.6346698,22.9306685 30.2959965,23.112 31,23.112 Z M19,0.488 L43,0.488 L40.312,24.808 C40.2053328,25.4693366 39.9120024,26.0186645 39.432,26.456 C38.9519976,26.8933355 38.3706701,27.112 37.688,27.112 L24.312,27.112 C23.6293299,27.112 23.0480024,26.8933355 22.568,26.456 C22.0879976,26.0186645 21.7946672,25.4693366 21.688,24.808 L19,0.488 Z" id="local_drink---material-copy-2"></path>
                <text id="kaffee" font-family="Lato-Thin, Lato" font-size="24" font-style="condensed" font-weight="300">
                    <tspan x="0" y="67">kaffee</tspan>
                </text>
            </g>
        </g>
    </g>
</svg>