<?xml version="1.0" encoding="UTF-8"?>
<svg width="67px" height="46px" viewBox="0 0 67 46" version="1.1" xmlns="http://www.w3.org/2000/svg" xmlns:xlink="http://www.w3.org/1999/xlink">
    <!-- Generator: Sketch 48.2 (47327) - http://www.bohemiancoding.com/sketch -->
    <title>icons/espresso/4x1</title>
    <desc>Created with Sketch.</desc>
    <defs></defs>
    <g id="Symbols" stroke="none" stroke-width="1" fill="none" fill-rule="evenodd">
        <g id="icons/espresso/4x1" fill="#D7BE82">
            <g id="espresso4x1" transform="translate(0.000000, 2.000000)">
                <path d="M40.336,6.00961538 L40.744,1.97115385 L27.256,1.97115385 L27.664,6.00961538 L40.336,6.00961538 Z M34,16.9951923 C34.5280026,16.9951923 35.0239977,16.8589757 35.488,16.5865385 C35.9520023,16.3141012 36.3199986,15.9455151 36.592,15.4807692 C36.8640014,15.0160233 37,14.5192334 37,13.9903846 C37,13.5256387 36.8400016,12.9567341 36.52,12.2836538 C36.2799988,11.754805 35.9440022,11.169875 35.512,10.5288462 C35.1919984,10.0641002 34.8480018,9.5993613 34.48,9.13461538 L34,8.58173077 L33.52,9.13461538 C33.1519982,9.5993613 32.8160015,10.0641002 32.512,10.5288462 C32.0639978,11.169875 31.7200012,11.754805 31.48,12.2836538 C31.1599984,12.9567341 31,13.5256387 31,13.9903846 C31,14.5192334 31.1359986,15.0160233 31.408,15.4807692 C31.6800014,15.9455151 32.0479977,16.3141012 32.512,16.5865385 C32.9760023,16.8589757 33.4719974,16.9951923 34,16.9951923 Z M25,0 L43,0 L40.984,18.2692308 C40.9039996,18.7660281 40.6840018,19.1786843 40.324,19.5072115 C39.9639982,19.8357388 39.5280026,20 39.016,20 L28.984,20 C28.4719974,20 28.0360018,19.8357388 27.676,19.5072115 C27.3159982,19.1786843 27.0960004,18.7660281 27.016,18.2692308 L25,0 Z" id=""></path>
                <text id="espresso" font-family="Lato-Thin, Lato" font-size="18" font-style="condensed" font-weight="300">
                    <tspan x="0" y="38">espresso</tspan>
                </text>
            </g>
        </g>
    </g>
</svg>