<?xml version="1.0" encoding="UTF-8"?>
<svg width="67px" height="45px" viewBox="0 0 67 45" version="1.1" xmlns="http://www.w3.org/2000/svg" xmlns:xlink="http://www.w3.org/1999/xlink">
    <!-- Generator: Sketch 48.2 (47327) - http://www.bohemiancoding.com/sketch -->
    <title>icons/doubleEspresso/2x1</title>
    <desc>Created with Sketch.</desc>
    <defs></defs>
    <g id="Symbols" stroke="none" stroke-width="1" fill="none" fill-rule="evenodd">
        <g id="icons/doubleEspresso/2x1" fill="#D7BE82">
            <g id="doubleEspresso2x1" transform="translate(0.000000, 2.000000)">
                <g id="icons" transform="translate(12.000000, 0.000000)">
                    <path d="M15.336,6.00961538 L15.744,1.97115385 L2.256,1.97115385 L2.664,6.00961538 L15.336,6.00961538 Z M9,16.9951923 C9.52800264,16.9951923 10.0239977,16.8589757 10.488,16.5865385 C10.9520023,16.3141012 11.3199986,15.9455151 11.592,15.4807692 C11.8640014,15.0160233 12,14.5192334 12,13.9903846 C12,13.5256387 11.8400016,12.9567341 11.52,12.2836538 C11.2799988,11.754805 10.9440022,11.169875 10.512,10.5288462 C10.1919984,10.0641002 9.84800184,9.5993613 9.48,9.13461538 L9,8.58173077 L8.52,9.13461538 C8.15199816,9.5993613 7.81600152,10.0641002 7.512,10.5288462 C7.06399776,11.169875 6.7200012,11.754805 6.48,12.2836538 C6.1599984,12.9567341 6,13.5256387 6,13.9903846 C6,14.5192334 6.13599864,15.0160233 6.408,15.4807692 C6.68000136,15.9455151 7.04799768,16.3141012 7.512,16.5865385 C7.97600232,16.8589757 8.47199736,16.9951923 9,16.9951923 Z M0,0 L18,0 L15.984,18.2692308 C15.9039996,18.7660281 15.6840018,19.1786843 15.324,19.5072115 C14.9639982,19.8357388 14.5280026,20 14.016,20 L3.984,20 C3.47199744,20 3.0360018,19.8357388 2.676,19.5072115 C2.3159982,19.1786843 2.0960004,18.7660281 2.016,18.2692308 L0,0 Z" id="local_drink---material-copy-3"></path>
                    <path d="M40.336,6 L40.744,1.968 L27.256,1.968 L27.664,6 L40.336,6 Z M34,16.968 C34.5280026,16.968 35.0239977,16.8320014 35.488,16.56 C35.9520023,16.2879986 36.3199986,15.9200023 36.592,15.456 C36.8640014,14.9919977 37,14.4960026 37,13.968 C37,13.5039977 36.8400016,12.9360034 36.52,12.264 C36.2799988,11.7359974 35.9440022,11.1520032 35.512,10.512 C35.1919984,10.0479977 34.8480018,9.58400232 34.48,9.12 L34,8.568 L33.52,9.12 C33.1519982,9.58400232 32.8160015,10.0479977 32.512,10.512 C32.0639978,11.1520032 31.7200012,11.7359974 31.48,12.264 C31.1599984,12.9360034 31,13.5039977 31,13.968 C31,14.4960026 31.1359986,14.9919977 31.408,15.456 C31.6800014,15.9200023 32.0479977,16.2879986 32.512,16.56 C32.9760023,16.8320014 33.4719974,16.968 34,16.968 Z M25,0 L43,0 L40.984,18.24 C40.9039996,18.7360025 40.6840018,19.1479984 40.324,19.476 C39.9639982,19.8040016 39.5280026,19.968 39.016,19.968 L28.984,19.968 C28.4719974,19.968 28.0360018,19.8040016 27.676,19.476 C27.3159982,19.1479984 27.0960004,18.7360025 27.016,18.24 L25,0 Z" id="local_drink---material-copy-5"></path>
                </g>
                
            </g>
        </g>
    </g>
</svg>