<?xml version="1.0" encoding="UTF-8"?>
<svg width="23px" height="32px" viewBox="0 0 23 32" version="1.1" xmlns="http://www.w3.org/2000/svg" xmlns:xlink="http://www.w3.org/1999/xlink">
    <!-- Generator: Sketch 48.2 (47327) - http://www.bohemiancoding.com/sketch -->
    <title>icons/clean/1x1</title>
    <desc>Created with Sketch.</desc>
    <defs></defs>
    <g id="Symbols" stroke="none" stroke-width="1" fill="none" fill-rule="evenodd">
        <g id="icons/clean/1x1" fill="#D7BE82">
            <g id="clean1x1">
                <g id="ion-waterdrop---Ionicons---group">
                    <path d="M12.3046875,0.4921875 C13.2421922,1.47656742 14.1796828,2.55468164 15.1171875,3.7265625 C16.0546922,4.89844336 17.144525,6.39842836 18.3867188,8.2265625 C19.6289125,10.0546966 20.6249963,12.0703015 21.375,14.2734375 C22.1250037,16.4765735 22.5,18.632802 22.5,20.7421875 C22.5,23.7422025 21.3984485,26.2851458 19.1953125,28.3710938 C16.9921765,30.4570417 14.3437655,31.5 11.25,31.5 C9.28124016,31.5 7.46485207,31.0664106 5.80078125,30.1992188 C4.13671043,29.3320269 2.81250492,28.148445 1.828125,26.6484375 C1.45312313,26.0390595 1.10156414,25.3593787 0.7734375,24.609375 C0.257809922,23.3437437 0,22.0546941 0,20.7421875 L0,20.4609375 C0.0468752344,16.5234178 1.54686023,12.2343982 4.5,7.59375 C5.43750469,6.14061773 6.82030336,4.33594828 8.6484375,2.1796875 C9.49219172,1.24218281 10.0078116,0.679688437 10.1953125,0.4921875 L10.265625,0.421875 C10.6406269,0.140623594 10.9687486,0 11.25,0 C11.5312514,0 11.8593731,0.140623594 12.234375,0.421875 L12.3046875,0.4921875 Z M11.25,27.5625 C13.1718846,27.5625 14.8242118,26.8711007 16.2070312,25.4882812 C17.5898507,24.1054618 18.28125,22.4531346 18.28125,20.53125 C18.28125,19.5468701 18.0937519,18.6093795 17.71875,17.71875 C17.109372,20.0156365 15.9375087,21.9960854 14.203125,23.6601562 C12.4687413,25.3242271 10.4531365,26.3906227 8.15625,26.859375 C9.18750516,27.3281273 10.2187448,27.5625 11.25,27.5625 Z" id="ion-waterdrop---Ionicons"></path>
                </g>
            </g>
        </g>
    </g>
</svg>