<?xml version="1.0" encoding="UTF-8"?>
<svg width="62px" height="74px" viewBox="0 0 62 74" version="1.1" xmlns="http://www.w3.org/2000/svg" xmlns:xlink="http://www.w3.org/1999/xlink">
    <!-- Generator: Sketch 48.2 (47327) - http://www.bohemiancoding.com/sketch -->
    <title>icons/doublecoffee/2x2</title>
    <desc>Created with Sketch.</desc>
    <defs></defs>
    <g id="Symbols" stroke="none" stroke-width="1" fill="none" fill-rule="evenodd">
        <g id="icons/doublecoffee/2x2" fill="#D7BE82">
            <g id="doubleCoffee2x2">
                <g id="icons" transform="translate(1.000000, 0.000000)">
                    <path d="M24.448,10.488 L24.992,5.112 L7.008,5.112 L7.552,10.488 L24.448,10.488 Z M16,25.112 C16.7040035,25.112 17.3653302,24.9306685 17.984,24.568 C18.6026698,24.2053315 19.0933315,23.7146698 19.456,23.096 C19.8186685,22.4773302 20,21.8160035 20,21.112 C20,20.4933302 19.7866688,19.7360045 19.36,18.84 C19.0399984,18.1359965 18.5920029,17.3573376 18.016,16.504 C17.5893312,15.8853302 17.1306691,15.2666698 16.64,14.648 L16,13.912 L15.36,14.648 C14.8693309,15.2666698 14.4213354,15.8853302 14.016,16.504 C13.4186637,17.3573376 12.9600016,18.1359965 12.64,18.84 C12.2133312,19.7360045 12,20.4933302 12,21.112 C12,21.8160035 12.1813315,22.4773302 12.544,23.096 C12.9066685,23.7146698 13.3973302,24.2053315 14.016,24.568 C14.6346698,24.9306685 15.2959965,25.112 16,25.112 Z M4,2.488 L28,2.488 L25.312,26.808 C25.2053328,27.4693366 24.9120024,28.0186645 24.432,28.456 C23.9519976,28.8933355 23.3706701,29.112 22.688,29.112 L9.312,29.112 C8.62932992,29.112 8.0480024,28.8933355 7.568,28.456 C7.0879976,28.0186645 6.7946672,27.4693366 6.688,26.808 L4,2.488 Z" id="local_drink---material-copy-2"></path>
                    <path d="M52.448,10.488 L52.992,5.112 L35.008,5.112 L35.552,10.488 L52.448,10.488 Z M44,25.112 C44.7040035,25.112 45.3653302,24.9306685 45.984,24.568 C46.6026698,24.2053315 47.0933315,23.7146698 47.456,23.096 C47.8186685,22.4773302 48,21.8160035 48,21.112 C48,20.4933302 47.7866688,19.7360045 47.36,18.84 C47.0399984,18.1359965 46.5920029,17.3573376 46.016,16.504 C45.5893312,15.8853302 45.1306691,15.2666698 44.64,14.648 L44,13.912 L43.36,14.648 C42.8693309,15.2666698 42.4213354,15.8853302 42.016,16.504 C41.4186637,17.3573376 40.9600016,18.1359965 40.64,18.84 C40.2133312,19.7360045 40,20.4933302 40,21.112 C40,21.8160035 40.1813315,22.4773302 40.544,23.096 C40.9066685,23.7146698 41.3973302,24.2053315 42.016,24.568 C42.6346698,24.9306685 43.2959965,25.112 44,25.112 Z M32,2.488 L56,2.488 L53.312,26.808 C53.2053328,27.4693366 52.9120024,28.0186645 52.432,28.456 C51.9519976,28.8933355 51.3706701,29.112 50.688,29.112 L37.312,29.112 C36.6293299,29.112 36.0480024,28.8933355 35.568,28.456 C35.0879976,28.0186645 34.7946672,27.4693366 34.688,26.808 L32,2.488 Z" id="local_drink---material-copy-4"></path>
                </g>
                
            </g>
        </g>
    </g>
</svg>